<?xml version="1.0" encoding="utf-8" ?>
<svg baseProfile="full" height="300mm" version="1.1" viewBox="0,0,200,300" width="200mm" xmlns="http://www.w3.org/2000/svg" xmlns:ev="http://www.w3.org/2001/xml-events" xmlns:xlink="http://www.w3.org/1999/xlink"><defs /><rect fill="#222222" height="300" width="200" x="0" y="0" /><text fill="#FFFFFF" style="font-size:12px; font-family:Arial; font-weight:bold;" x="10" y="20">Over 1km Runs</text><text fill="#FFFFFF" style="font-size:4px; font-family:Arial" x="10" y="280">ATHLETE</text><text fill="#FFFFFF" style="font-size:9px; font-family:Arial" x="10" y="290">ElvisZhu</text><text fill="#FFFFFF" style="font-size:4px; font-family:Arial" x="120" y="280">STATISTICS</text><text fill="#FFFFFF" style="font-size:3px; font-family:Arial" x="120" y="285">Number: 46</text><text fill="#FFFFFF" style="font-size:3px; font-family:Arial" x="120" y="290">Weekly: 3.3</text><text fill="#FFFFFF" style="font-size:3px; font-family:Arial" x="141" y="285">Total: 220.7 km</text><text fill="#FFFFFF" style="font-size:3px; font-family:Arial" x="141" y="290">Avg: 4.8 km</text><text fill="#FFFFFF" style="font-size:3px; font-family:Arial" x="167" y="285">Min: 1.2 km</text><text fill="#FFFFFF" style="font-size:3px; font-family:Arial" x="167" y="290">Max: 13.0 km</text><polyline fill="none" points="17.26136363646947,39.83874028758146 20.26136363646947,40.91484624039731 22.238636363646947,40.91484624039731 22.613636363763362,46.414895370195154 24.181818181765266,46.49460563741741 23.125,48.92576069183997 24.318181818234734,50.0815502202895 37.375,48.68663138154079 38.465909090824425,47.2917073823628 38.159090908942744,45.9764885994955 35.193181818234734,45.05981825012714 30.113636363646947,46.89315672055818 24.215909090824425,47.2518523352046 23.056818181765266,48.80619605560787 24.28409090905916,50.041695467953105 31.477272727293894,49.68300250725588 37.44318181811832,48.726486277155345 38.465909090824425,46.693881231563864 37.17045454541221,45.37866036358173 34.78409090905916,45.09967352906824 29.05681818188168,47.132287168264156 24.318181818234734,47.17214222808252 23.056818181765266,48.68663138154079 24.386363636353053,50.121404968522256 37.375,48.68663138154079 38.465909090824425,47.41127249886631 38.056818181765266,45.85692302818643 35.397727272706106,45.05981825012714 29.09090909094084,47.132287168264156 24.318181818234734,47.211997283651726 23.022727272706106,48.726486277155345 24.420454545412213,50.161259712447645 37.375,48.766341168404324 38.5,47.132287168264156 37.71590909094084,45.617791771685006 35.193181818234734,45.09967352906824 28.75,47.132287168264156 24.96590909094084,47.092432104138425 24.079545454471372,46.335185086296406 22.613636363763362,46.49460563741741 22.238636363646947,40.95470195758389 20.397727272706106,41.11412478363491 19.375,40.3170099791314 17.534090909175575,40.03801939939149 11.636363636353053,41.35325889635715 11.5,40.71556759203668" stroke="#4dd2ff" stroke-linecap="round" stroke-linejoin="round" stroke-width="0.5"><title>2023-09-20 4.8km</title><desc>1695213501000</desc></polyline><polyline fill="none" points="41.5,37.376168073154986 42.35805084765889,43.39502664888278 44.13135593221523,43.79628185153706 44.760593220358714,45.00004593236372 44.64618644071743,47.741944455658086 42.87288135616109,50.082580135553144 44.760593220358714,52.62383192690322 66.6694915255066,50.416955954395235 68.4427966105286,48.67819976678584 68.2139830510132,46.07005652593216 63.86652542394586,44.26441259961575 53.62711864407174,47.40756722324295 44.93220338993706,47.741944455658086 42.930084745632485,50.416955954395235 45.33262711856514,52.55695701041259 66.55508474609815,50.48383109702263 68.5,47.40756722324295 67.1843220340088,45.13379735557828 64.03813559329137,44.19753679964924 53.74152542394586,47.340691755583975 44.81779661029577,47.87569529924076 42.81567796622403,50.082580135553144 44.81779661029577,52.55695701041259 57.11652542371303,51.88820745801786 66.78389830538072,50.2163304843707 68.32838983065449,48.67819976678584 68.15677966130897,46.003180916944984 63.752118644537404,44.26441259961575 52.48305084765889,47.67506902344758 46.305084746098146,47.67506902344758 44.41737288143486,46.33755889162421" stroke="#4dd2ff" stroke-linecap="round" stroke-linejoin="round" stroke-width="0.5"><title>2023-09-19 3.1km</title><desc>1695125206000</desc></polyline><polyline fill="none" points="71.5,38.268768558540614 75.51292407116853,39.95159696351038 77.78109854622744,40.00259167194599 78.39176090457477,45.00004695812822 80.22374798054807,45.66297081124503 80.22374798054807,48.00869405409321 78.87156704370864,49.946456826117355 80.31098546017893,51.680237972643226 97.23505654279143,49.895463168853894 98.36914378032088,48.41664475822472 97.7584814215079,46.17291161688627 93.92003231006674,45.255017778719775 87.46445880457759,47.65173690507072 80.48546042013913,47.95770019170595 78.82794830366038,49.64049480063841 80.44184168009087,51.731231441459386 97.10420032311231,49.895463168853894 98.41276252013631,48.46763857192127 98.06381260068156,46.42788181753713 96.10096930526197,45.357006069185445 93.78917609038763,45.30601192667382 87.68255250388756,47.600743004935794 80.31098546017893,48.00869405409321 78.82794830366038,49.946456826117355 80.31098546017893,51.731231441459386 97.14781906292774,49.895463168853894 98.36914378032088,48.51863238032092 98.41276252013631,47.09080370864831 96.92972536361776,45.66297081124503 94.92326332791708,45.15302946671727 87.68255250388756,47.600743004935794 80.44184168009087,48.00869405409321 79.08966074301861,49.28353885898832 79.00242326338775,50.40539950074162 80.61631663981825,51.680237972643226 97.23505654279143,49.84446950594429 98.5,48.314657114387956 98.41276252013631,46.98881578471628 96.6680129240267,45.509988464502385 94.26898222928867,45.255017778719775 86.24313408741727,47.90670632413821 80.31098546017893,48.00869405409321 79.08966074301861,49.23254513152642 79.00242326338775,50.35440589176142 80.44184168009087,51.680237972643226 97.36591276247054,49.793475837650476 98.5,48.314657114387956 98.32552504027262,46.83583385840757 96.79886914370582,45.61197670106776 94.87964458786882,45.204023625381524 86.67932148627006,47.80471857264638 80.35460420022719,48.00869405409321 78.9588045233395,50.40539950074162 80.70355411944911,51.680237972643226 97.19143780274317,49.84446950594429 98.36914378032088,48.51863238032092 98.23828756040893,46.78483987218351 96.8861066235695,45.66297081124503 94.70516962837428,45.255017778719775 86.0686591276899,47.90670632413821 80.44184168009087,48.00869405409321 78.82794830366038,50.201425032748375 80.61631663981825,51.731231441459386 97.19143780274317,49.84446950594429 98.36914378032088,48.62061998079298 98.1946688205935,46.733845880487934 96.71163166384213,45.560982585389866 94.31260096933693,45.204023625381524 87.24636510503478,47.70273079961771 80.39822294027545,48.00869405409321 79.04604200320318,49.28353885898832 79.08966074301861,50.558380295173265 80.74717285949737,51.62924449832644 97.32229402265511,49.84446950594429 98.5,47.80471857264638 97.84571890137158,46.32589375344105 95.53392568649724,45.255017778719775" stroke="#4dd2ff" stroke-linecap="round" stroke-linejoin="round" stroke-width="0.5"><title>2023-09-16 7.8km</title><desc>1694864697000</desc></polyline><polyline fill="none" points="101.5,38.34526228689356 105.77463651029393,39.875105725368485 107.60662358650006,39.620132155832835 108.43537964462303,44.56659535333165 110.22374798054807,45.38250193570275 110.13651050091721,47.728225674451096 108.82794830366038,49.71698251916678 110.31098546017893,51.50175732295611 126.92972536361776,49.76797617643024 128.4127625201363,48.085182634793455 127.62762520182878,46.04542501803371 124.31260096933693,45.1275312769867 117.1591276251711,47.62623792295926 110.48546042013913,47.830213404406095 108.74071082379669,49.61499518796336 110.39822294027545,51.60374425514601 126.97334410343319,49.8699634752993 128.4127625201363,48.340151730633806 127.6712439416442,45.94343691095128 124.31260096933693,45.17852541949833 117.42084006452933,47.524250149930594 110.35460420022719,47.830213404406095 108.78432956384495,49.76797617643024 110.39822294027545,51.65473771310644 127.19143780274317,49.76797617643024 128.4127625201363,48.28915792223415 128.1946688205935,46.50437123372103 126.40630048466846,45.33150781481527 124.18174474965781,45.17852541949833 118.29321486270055,47.371268449991476 110.22374798054807,47.88120726120542 108.9151857837569,49.25803935946897 108.9588045233395,50.328906052804086 110.57269789976999,51.55275079177227 127.14781906292774,49.76797617643024 128.36914378032088,48.49313312335289 128.10743134072982,46.40238322346704 126.79886914370582,45.38250193570275 124.18174474965781,45.1275312769867 117.28998384485021,47.524250149930594 110.44184168009087,47.830213404406095 109.13327948306687,49.003070748993196 108.9151857837569,50.226918851054506 110.65993537940085,51.55275079177227 127.10420032311231,49.8699634752993 128.5,47.524250149930594 128.06381260068156,46.19840713837766 126.79886914370582,45.38250193570275 123.57108239084482,45.17852541949833 116.41760904691182,47.67723180147004" stroke="#4dd2ff" stroke-linecap="round" stroke-linejoin="round" stroke-width="0.5"><title>2023-09-14 5.3km</title><desc>1694693604000</desc></polyline><polyline fill="none" points="131.5,40.469400164613035 135.68463611858897,39.490945924044354 138.30458221025765,39.91636110359104 139.5053908356931,40.80973151672515 141.25202156347223,40.55448302970035 141.87061994615942,44.936226261925185 143.10781671153381,45.021308182767825 143.36253369273618,45.57434022903908 143.25336927222088,47.36105395408231 142.1981132074725,49.14775974751683 143.36253369273618,50.38143292826135 157.33557951496914,48.935057092719944 158.5,47.27597252797568 157.19002695428208,45.44671751651913 154.31536388141103,45.319094763632165 148.2385444745887,47.31851324334275 143.47169811325148,47.40359466031077 142.05256064701825,48.97759763270733 143.39892183314078,50.46651369778556 157.19002695428208,49.020138168212725 158.24528301903047,48.211867225851165 158.35444743954577,46.46769808305544 155.69811320770532,45.10639008542057 148.34770889487118,47.31851324334275 143.4353099730797,47.36105395408231 142.4164420485031,48.16932660504244 142.1253369273618,49.27538128645392 143.3261455525644,50.509054075955646 157.3719676551409,49.0626786990033 158.35444743954577,48.211867225851165 158.46361185982823,46.935646643687505 158.0997304583434,46.084830673993565 156.4258760109078,45.23401290579932 154.0242587600369,45.36163568572374 148.20215633441694,47.31851324334275 143.36253369273618,47.40359466031077 142.3072776279878,48.382029664411675 142.16172506753355,49.36046228982741 143.39892183314078,50.423973315279 153.5512129382696,49.70078612375073 157.8814016173128,48.72235432569869 158.4272237198893,46.680402041674824 156.862533692969,45.36163568572374 154.2425876010675,45.23401290579932 149.0390835579019,47.19089108388289 143.47169811325148,47.40359466031077 142.05256064701825,48.97759763270733 143.36253369273618,50.46651369778556 157.19002695428208,49.10521922551561 158.318059299374,48.04170471537509 158.46361185982823,46.935646643687505 157.84501347714104,45.914667264325544 155.84366576815955,45.191471970203565 148.71159029658884,47.233431808213936" stroke="#4dd2ff" stroke-linecap="round" stroke-linejoin="round" stroke-width="0.5"><title>2023-09-11 5.2km</title><desc>1694434443000</desc></polyline><polyline fill="none" points="161.5,40.90116430964554 166.12650602404028,39.50669263326563 168.25903614470735,39.76023329986492 169.37951807235368,40.73213769891299 171.4036144579295,40.689881034893915 171.98192771081813,44.831012863869546 173.21084337332286,45.00003774167271 173.5722891567275,46.22546596810571 172.27108433749527,49.0143575850816 173.46385542163625,50.40879609793774 187.48795180721208,48.97210179679678 188.35542168677785,47.915705634251935 188.31927710864693,46.394490256439894 187.16265060240403,45.46485578693682 185.53614457836375,45.12680635301513 178.1265060242731,47.32412256402313 173.53614457836375,47.450890438456554 172.37951807235368,48.46503198714345 172.34337349398993,49.31014797918033 173.53614457836375,50.40879609793774 187.37951807235368,48.97210179679678 188.42771084350534,47.915705634251935 188.31927710864693,46.30997812116402 185.78915662667714,45.16906254790956 178.668674698798,47.239610625372734 173.28313253028318,47.493146387743764 172.30722891562618,49.267892221949296 173.6807228915859,50.49330736673437 187.30722891562618,48.929846003855346 188.42771084350534,47.83119382074801 188.35542168677785,46.394490256439894 185.5,45.0422939498967 179.6084337348584,47.02833070064662 173.8614457831718,47.15509866885259 172.45180722908117,48.21149684113334 172.27108433749527,49.267892221949296 173.71686746971682,50.40879609793774 187.45180722884834,48.929846003855346 188.42771084350534,47.873449729784625 188.28313253005035,46.26772204693407 185.5722891567275,45.0422939498967 180.07831325312145,46.90156269213185 173.35542168677785,47.366378526581684 172.27108433749527,49.31014797918033 173.89759036153555,50.40879609793774 187.16265060240403,49.05661336911726 188.31927710864693,48.126985090144444 188.3915662651416,46.56351447312045 187.19879518076777,45.42259962335811 185.5,45.0422939498967 179.82530120480806,46.9438186994812 173.53614457836375,47.32412256402313 172.37951807235368,48.422776140709175 172.27108433749527,49.31014797918033 173.64457831322215,50.49330736673437 187.45180722884834,48.929846003855346 188.5,47.66217013986898 188.24698795191944,46.26772204693407 187.1265060242731,45.42259962335811 185.28313253005035,45.12680635301513 178.70481927716173,47.239610625372734 173.50000000023283,47.366378526581684 172.37951807235368,48.46503198714345 172.37951807235368,49.35240373184206 173.6084337348584,50.49330736673437 182.42771084350534,49.85947241587564 187.56024096393958,48.88759020643192 188.42771084350534,47.78893790722941 188.0301204819698,45.971929401915986 186.51204819278792,45.25357492422336 184.23493975913152,45.21131873832201 179.71686746994965,47.02833070064662 173.3915662651416,47.493146387743764 172.19879518076777,48.97210179679678 173.53614457836375,50.451051734620705 187.34337349398993,49.0143575850816 188.5,47.450890438456554 187.81325301202014,45.71839267484029 184.52409638580866,45.21131873832201 179.42771084350534,47.07058669443359 173.3915662651416,47.40863448480377 173.5722891567275,48.08472920785425 174.25903614447452,47.61991420853883 173.24698795191944,46.774794643511996 173.1385542168282,45.084550153667806 171.90963855432346,44.7887566332065 171.25903614447452,40.73213769891299 169.48795180721208,40.858907663670834 168.4036144579295,40.05603054104722 166.19879518076777,39.633462986705126" stroke="#4dd2ff" stroke-linecap="round" stroke-linejoin="round" stroke-width="0.5"><title>2023-09-09 8.7km</title><desc>1694261593000</desc></polyline><polyline fill="none" points="11.5,68.45347967190901 17.881028939038515,69.8236983291572 18.618971061194316,74.84779994888231 20.008038585307077,74.94929640940973 20.311897106235847,75.7105191804585 20.268488746136427,77.68969273634139 18.879421222023666,79.92259669717168 20.355305466335267,81.44502526219003 37.11093247588724,79.77035357520799 38.45659164013341,78.19717182102613 37.97909967857413,76.16725226349081 36.59003215446137,75.30453385275905 33.72508038603701,75.2030374672031 26.51929260464385,77.68969273634139 20.572347266832367,77.79118859622395 18.879421222023666,79.66885813369299 20.442122186534107,81.54652032809099 36.72025723499246,79.82110128796194 38.19614147930406,78.70465036953101 38.5,77.4867009522277 37.63183279754594,75.86276358962641 34.54983922839165,75.00004463177174 26.43247588444501,77.63894479829469 20.832797427661717,77.79118859622395 18.966237942222506,79.71960585706984 20.485530546633527,81.54652032809099 36.67684887466021,79.77035357520799 37.84887459827587,79.21212838150677 38.5,77.53744890616508 37.28456591651775,75.65977103321347 34.98392282985151,75.05079284872045 26.47588424454443,77.5881968550093 20.485530546633527,77.8419365180307 18.922829582123086,79.66885813369299 20.485530546633527,81.54652032809099 37.02411575592123,79.87184899512795 38.5,77.4867009522277 37.15434083621949,75.60902288058423 34.33279742766172,75.10154106022674 26.30225080391392,77.68969273634139 20.572347266832367,77.8419365180307 18.922829582123086,79.66885813369299 20.485530546633527,81.49577279778896 37.15434083621949,79.61811040484463 38.41318327980116,78.24791969999205 38.5,77.02996912415256 37.11093247588724,75.65977103321347 34.63665594859049,75.15228926637792 26.60610932484269,77.68969273634139 21.527331189718097,77.74044066891656" stroke="#4dd2ff" stroke-linecap="round" stroke-linejoin="round" stroke-width="0.5"><title>2023-09-07 5.2km</title><desc>1694088262000</desc></polyline><polyline fill="none" points="41.5,68.84333065565443 42.01461245212704,69.72573303847457 46.78335451055318,68.92354913888266 47.88119440898299,70.92900570796337 52.341168996179476,71.77129430626519 52.58132147404831,77.34639550332213 54.15946632786654,77.42661218901048 53.02731893258169,79.5523481798009 54.19377382460516,81.03634549226263 67.47077509539668,79.63256439912948 68.4656925033778,78.46942755926284 68.39707750966772,77.42661218901048 67.12770012719557,76.2634685873636 65.78970775101334,75.94260075959028 58.99682337988634,77.98812851376715 54.331003811908886,78.1084533323301 53.02731893258169,79.51224006371922 54.22808132134378,81.03634549226263 64.76048284641001,80.15396941141807 67.47077509539668,79.59245629151701 68.32846251595765,78.54964400752215 68.1569250319153,76.9854202081624 66.09847522247583,75.9827092528576 58.82528589584399,78.02823679082212 54.331003811908886,78.1485615966667 53.43900889460929,78.83040144279948 53.095933926291764,79.79299678691314 54.125158831011504,80.9962375331379 62.976493011577986,80.39461763689178 67.71092757314909,79.4320238190412 68.5,78.1084533323301 67.91677255404647,76.62444456943194 65.37801778921857,75.94260075959028 58.82528589584399,78.06834506377345 54.19377382460516,78.1485615966667 52.95870393887162,79.79299678691314 54.125158831011504,81.15666934437468 67.43646759865806,79.63256439912948 68.39707750966772,78.54964400752215 68.1569250319153,76.9854202081624 66.92185514618177,76.18325165595161 64.93202033045236,76.02281774196308 59.03113087685779,78.06834506377345 54.090851334272884,78.22877811276703 53.095933926291764,79.59245629151701 54.090851334272884,80.9962375331379 62.80495552730281,80.47483367819223 67.29923761135433,79.67267250246368 68.32846251595765,78.83040144279948 68.4656925033778,77.58704550942639 67.95108005090151,76.704661407799 65.13786531146616,76.02281774196308 59.88881829730235,77.82769536291016 54.22808132134378,78.1084533323301 52.99301143584307,79.35180755730835 54.19377382460516,81.03634549226263 67.4021601016866,79.71278060140321 68.4656925033778,78.22877811276703 67.95108005090151,76.704661407799 65.27509529876988,75.9827092528576 60.06035578157753,77.7875870646385 54.94853875483386,78.06834506377345 54.0222363404464,77.26617880084086 52.51270648033824,77.54693718568888 52.10101651842706,71.85151217060047 50.24841168988496,71.89162109629251 49.35641677246895,71.12955078203231 47.40088945347816,70.84878764874884" stroke="#4dd2ff" stroke-linecap="round" stroke-linejoin="round" stroke-width="0.5"><title>2023-09-06 6.9km</title><desc>1694002969000</desc></polyline><polyline fill="none" points="78.26083467109129,72.34003242122708 78.56420545768924,74.62004284656723 79.82102728751488,74.72137639141874 80.47110754437745,76.49470996094169 78.82423756015487,79.43336257521878 80.51444622827694,81.46000905439723 97.1998394865077,79.68669385366957 98.5,77.96403851985815 97.37319422164,75.68404400031432 94.38282504025847,74.9747101602261 87.83868378819898,77.30537455031299 80.12439807411283,77.96403851985815 78.95425361162052,79.73736009333516 80.51444622827694,81.3586769339745 91.47913322644308,80.54801919907914 92.86597110773437,80.24402219502372 97.02648475137539,79.53469510268769 97.97993579460308,78.77470062457724 98.3266452648677,76.49470996094169 96.85313001624309,75.43071060650982 93.77608346706256,75.12671035714447 88.01203852333128,77.20404155176948 81.51123595517129,77.66003987711156 80.16773675754666,76.59604310948635 78.34751203865744,76.79870934260543 77.87078651692718,69.65467290073866 75.48715890850872,69.75600749551086 74.05698234355077,68.79332798134419 71.5,68.53999094557366" stroke="#4dd2ff" stroke-linecap="round" stroke-linejoin="round" stroke-width="0.5"><title>2023-09-04 2.5km</title><desc>1693829095000</desc></polyline><polyline fill="none" points="113.0812182740774,78.74540071727824 114.17766497470438,80.14739976960118 122.64086294418667,79.58660077108652 128.0545685280813,78.26471413389663 128.43147208134178,76.5823062909185 127.16370558389463,75.30046673095785 124.6281725888839,75.18029404996196 119.38578680215869,77.06299500822206 114.10913705592975,77.26328179388656 113.0812182740774,78.70534352524555 114.21192893397529,80.06728567782557 121.75000000023283,79.70677205486572 127.74619289347902,78.50505750181037 128.5,77.6237977410783 128.43147208134178,76.42207658311236 126.82106599013787,75.18029404996196 124.59390862949658,75.18029404996196 119.18020304583479,77.02293763848138 113.97208121826407,77.26328179388656 113.04695431469008,78.62522912866552 114.2461928933626,79.90705744334264 123.05203045695089,79.54654366805335 128.0888324874686,78.22465689113596 128.39720812195446,76.5021914455283 127.12944162450731,75.30046673095785 125.10786802042276,75.06012133081094 118.83756345196161,77.10305237374268 114.14340101531707,77.22322444518795 113.04695431469008,78.58517192391446 114.2461928933626,79.987171568966 121.40736040624324,79.58660077108652 127.64340101543348,78.58517192391446 128.5,77.46356847358402 128.22588832490146,75.98144453705754 125.24492385808844,75.06012133081094 118.83756345196161,77.06299500822206 114.10913705592975,77.3033391382778 113.0812182740774,78.62522912866552 114.31472081237007,80.02722862554947 122.53807106614113,79.54654366805335 127.47208121838048,78.6652863289637 128.19162436551414,78.02437061365345 128.2601522844052,76.1016169640352 126.40989847737364,74.98000616353238 124.66243654827122,75.02006374928169 118.87182741123252,76.98288026437513 114.48604060919024,77.10305237374268 113.32106598990504,77.94425607300946 113.21827411174309,79.06585810074466 114.2461928933626,80.06728567782557 116.1307106600143,79.78688622295158 118.49492385797203,79.58660077108652 127.57487309665885,78.54511471494334 128.5,76.90276550356066 127.40355329960585,75.42063937394414 125.48477157368325,74.98000616353238 118.56345177674666,77.10305237374268 114.7944162436761,77.02293763848138 114.07487309642602,76.62236370739993 114.34898477152456,76.22178935303236 112.498730964493,76.46213401653222 112.22461928939447,70.85405215321225 110.20304568542633,70.89411017508246 109.41497461940162,70.17306513362564 107.56472081225365,69.85260023036972 101.5,71.05434222021722" stroke="#4dd2ff" stroke-linecap="round" stroke-linejoin="round" stroke-width="0.5"><title>2023-09-02 6.2km</title><desc>1693656448000</desc></polyline><polyline fill="none" points="136.421875,69.59524824877735 138.91796875,70.00626148216543 139.69140625023283,70.82828664564295 141.765625,70.7460842076398 142.46875,74.85618482684367 143.8046875,75.14389024322736 143.76953125,77.28112381504616 142.6796875,78.9251416461193 143.9453125,80.28145112414495 157.3046875,78.9251416461193 158.46484375,77.5688274372369 157.8671875,75.92480387180694 155.08984375,75.22609175168327 149.4296875,77.1578221974487 144.015625,77.36332487154868 142.6796875,78.8429409195378 143.83984375,80.36365154656232 157.3046875,78.96624200270162 158.46484375,77.6099279372138 157.90234375,75.84260251108208 155.16015625,75.1849909996381 149.74609375,77.11672164965421 143.875,77.40442539344076 142.6796875,78.9251416461193 143.9453125,80.40475175125175 157.37500000023283,78.9251416461193 158.5,77.692128924391 157.8671875,75.76040113295312 155.01953125023283,75.1849909996381 149.640625,77.1578221974487 143.875,77.36332487154868 142.75,79.00734235512209 144.3671875,79.7882482248533 145.52734375,79.37724533100845 145.84375,78.06203315139282 143.6640625,76.78791711031226 143.62890625,75.22609175168327 142.328125,74.69178163615288 141.73046875,70.86938785816892 136.80859375,69.84185624099337 131.5,71.11599504231708" stroke="#4dd2ff" stroke-linecap="round" stroke-linejoin="round" stroke-width="0.5"><title>2023-08-31 4.0km</title><desc>1693483686000</desc></polyline><polyline fill="none" points="161.84782608691603,68.46835308638401 164.10869565210305,68.62084494461305 165.36956521729007,69.68828659850988 167.80434782616794,69.68828659850988 168.5,74.56798969852389 170.32608695630915,75.33043883510982 170.23913043481298,77.6686086494301 168.8043478259351,79.70179055136396 170.36956521729007,81.48081766426913 187.10869565210305,79.70179055136396 188.5,77.77026794871199 187.7173913042061,75.94039727395284 184.28260869556107,75.12711918356945 177.97826086962596,77.41446030733641 170.36956521729007,77.82109759020386 168.93478260887787,79.49847274806234 170.413043478271,81.53164691361599 186.93478260864504,79.85427884742967 188.5,77.46528998645954 186.93478260864504,75.43209862869116 184.10869565210305,75.02545932563953 178.28260869556107,77.21114153668168 169.84782608691603,78.17690493070404 168.84782608691603,79.85427884742967 170.45652173901908,81.42998840959626 180.15217391285114,80.87086625260417 187.41304347803816,79.6001316604088 188.36956521729007,77.10948211935465 186.67391304345801,75.43209862869116 183.8478260866832,75.12711918356945 178.6304347824771,77.21114153668168 169.97826086939313,77.97358648263616 168.76086956518702,79.6001316604088 170.36956521729007,81.48081766426913 182.49999999976717,80.61671960292733 187.10869565210305,79.75261998883798 188.15217391285114,78.83768929337384 188.32608695630915,76.7028442347364 186.41304347803816,75.27960893031559 183.28260869556107,75.27960893031559 176.84782608691603,77.6686086494301 170.02173913037404,78.07524571756949 168.84782608691603,79.95593768477556 170.32608695630915,81.48081766426913 179.84782608691603,81.02335417814902 187.45652173901908,79.49847274806234 188.41304347803816,77.21114153668168 186.89130434789695,75.53375840073568 183.413043478271,75.22877902010805 178.45652173901908,77.3128009327047 170.32608695630915,77.87192722631153 168.7173913042061,79.6001316604088 170.45652173901908,81.53164691361599 186.89130434789695,79.70179055136396 188.28260869556107,78.22773452929687 187.76086956518702,76.19454639521427 183.7173913042061,75.12711918356945 177.45652173901908,77.56694932869868 171.413043478271,77.6686086494301 170.23913043481298,76.7028442347364 168.15217391308397,76.95699295285158 167.80434782616794,69.73911709422828 161.5,68.57001433058758" stroke="#4dd2ff" stroke-linecap="round" stroke-linejoin="round" stroke-width="0.5"><title>2023-08-27 6.7km</title><desc>1693138023000</desc></polyline><polyline fill="none" points="11.5,98.42596752106328 14.633545310003683,98.97799283827771 15.921303656417876,99.98167358883074 18.110492845764384,99.93148960149847 18.79729729727842,104.4982107084943 20.256756756687537,104.79931165545713 20.600158982444555,105.65242996826419 20.342607313068584,107.76012746302877 19.140699523035437,109.51653489435557 20.6860095388256,111.42348417741596 37.2551669315435,109.6169008371071 38.5,107.45902839372866 36.825914149405435,105.5018797890807 33.348966613644734,105.40151297664852 28.11208267090842,107.45902839372866 20.857710651820526,107.86049377682502 19.4411764703691,108.86415574976127 19.18362480145879,110.01836439574254 20.385532591491938,110.97183898682124 20.29968203487806,111.57403247890761 32.619236883940175,110.52019336642115 37.16931637516245,109.71726675858372 38.199523052433506,108.61324045545189 38.199523052433506,106.45536345042638 35.88155802851543,105.25096271792427 33.22019077884033,105.35132956231246 27.12480127182789,107.70994429799612 20.90063592977822,107.8103106225899 19.398251192411408,108.96452183034853 19.31240063579753,110.06854731673957 20.600158982444555,111.37330139975529 36.78298887098208,109.6670838004502 38.070747217629105,108.71360658909543 38.37122416542843,107.10774590494111 36.353736088844016,105.25096271792427 33.09141494426876,105.30114614276681 27.554054053965956,107.45902839372866 21.458664546953514,107.65976112778299 20.90063592977822,106.75646315628546 18.4538950715214,106.95719618728617 17.981717010959983,99.831121611438 15.96422893484123,100.08204154708073 14.59062003181316,99.02817692619283 12.100953895132989,98.62670407432597" stroke="#4dd2ff" stroke-linecap="round" stroke-linejoin="round" stroke-width="0.5"><title>2023-08-24 3.9km</title><desc>1692881200000</desc></polyline><polyline fill="none" points="41.5,101.34446485506487 46.72794117650483,99.9905409848725 49.04411764710676,100.30000973961432 50.10294117638841,101.07368048172793 51.625000000116415,100.9963134812424 52.35294117650483,104.86464347576839 68.5,101.80866617179709 48.845588235300966,105.71567058740766 53.41176470601931,104.90332656927058 53.80882352928165,106.25723226438276 52.452205882407725,108.73293258243939 53.70955882349517,109.97077646144317 66.28308823530097,108.65556720108725 67.30882352928165,107.4950845167914 67.04411764699034,105.98645152608515 65.62132352928165,105.13542504413635 63.93382352939807,105.13542504413635 59.0367647059029,106.91484179484542 53.610294117825106,107.22430469433311 52.485294117825106,108.61688450418296 53.544117646990344,109.93209390365519 65.7867647059029,108.8102979476389 66.84558823518455,108.46215367593686 67.30882352928165,107.68849855315057 66.7132352940971,105.67698757976177 64.03308823530097,105.09674197525601 58.07720588229131,107.06957327734563 53.610294117825106,107.22430469433311 52.485294117825106,108.65556720108725 53.577205882407725,110.00945901515661 66.4485294118058,108.65556720108725 67.37500000011642,106.91484179484542 66.84558823518455,105.7930365903594 64.29779411770869,105.09674197525601 57.8125,107.1469389940903 54.404411764699034,107.10825613772613 53.34558823518455,106.29591521070688 51.261029411805794,106.72142734963563 52.31985294108745,106.45064695479232 51.7242647059029,105.67698757976177 51.591911764699034,101.11236397584435 49.67279411770869,101.30578138545388 48.845588235300966,100.45474401902175 47.09191176481545,100.14527539498522" stroke="#4dd2ff" stroke-linecap="round" stroke-linejoin="round" stroke-width="0.5"><title>2023-08-22 5.1km</title><desc>1692706390000</desc></polyline><polyline fill="none" points="79.23259493662044,109.64492688892642 80.77056962042116,111.29310043185251 97.17563291150145,109.59498214631458 98.45727848098613,108.14658231567591 98.24367088614963,106.5982879322255 95.2531645570416,105.0000432470988 92.13449367089197,105.4495501111378 88.9303797467146,106.99784825873212 80.72784810117446,107.64713306890917 79.14715189882554,109.7448163581139 80.68512658216059,111.34304499489372 96.83386075939052,109.69487162603764 98.37183544319123,108.3463618666865 98.37183544319123,106.64823299148702 96.96202531666495,105.34965973388171 95.0395569622051,104.95009801362175 87.26424050633796,107.39740824737237 80.77056962042116,107.6970780172851 79.36075949366204,108.89575519616483 79.27531645563431,109.8447058062884 80.98417721525766,111.29310043185251 97.26107594929636,109.49509264534572 98.5,108.14658231567591 98.2863924051635,106.54834286757978 96.87658227863722,105.34965973388171 95.08227848098613,104.95009801362175 87.30696202535182,107.39740824737237 80.72784810117446,107.64713306890917 79.14715189882554,109.59498214631458 80.81329113920219,111.34304499489372 96.91930379741825,109.64492688892642 98.5,107.34746326736058 97.04746835445985,105.29971453736653 94.09968354436569,104.95009801362175 88.41772151901387,107.04779327579308 80.68512658216059,107.64713306890917 79.14715189882554,109.59498214631458 80.98417721525766,111.34304499489372 90.46835443051532,110.74370988958981 97.30379746854305,109.49509264534572 98.45727848098613,108.04669250850566 98.2863924051635,106.44845272257226 96.66297468356788,105.14987891595229 94.5696202532854,104.9001527747605 86.79430379741825,107.44735322232009 80.64240506314673,107.6970780172851 79.18987341760658,109.64492688892642 80.77056962042116,111.39298955278355 96.96202531666495,109.69487162603764 98.45727848098613,108.14658231567591 97.64556962018833,105.74922111621709 94.52689873427153,105.04998847527895 88.375,107.1976282952528 80.89873417722993,107.6970780172851 79.23259493662044,109.59498214631458 80.81329113920219,111.34304499489372 97.17563291150145,109.59498214631458 98.4145569622051,108.14658231567591 97.81645569647662,105.94900168088498 94.48417721525766,105.0000432470988 86.06803797464818,107.59718811511993 81.71044303802773,107.54724315615022 80.47151898732409,106.64823299148702 77.39556962018833,107.14768329408253 78.4636075948365,106.64823299148702 78.16455696197227,99.80571068581776 75.98575949366204,100.00549376331037 74.6613924051635,99.10646924958564 71.5,98.60701044724556" stroke="#4dd2ff" stroke-linecap="round" stroke-linejoin="round" stroke-width="0.5"><title>2023-08-19 7.3km</title><desc>1692445251000</desc></polyline><polyline fill="none" points="102.99037227209192,100.68458765209652 106.76829268294387,99.79312761119218 109.22913992288522,99.9552114092221 110.30359435162973,100.88719191783457 112.00192554551177,100.80615022452548 112.52182284975424,104.77717305385158 113.7695763799129,104.97977515650564 114.11617458285764,106.2764260781696 112.86842105258256,108.99127474127454 114.15083440300077,110.16635252931155 127.18292682932224,108.86971476455801 128.46534017962404,107.77567323928815 128.0147625161335,105.87122313634609 125.10333761223592,105.14185676159104 119.62708600773476,107.0463104879309 114.11617458285764,107.28943155927118 112.83376123232301,108.66711471768213 114.04685494210571,110.20687238880782 121.3254172016168,109.80167360120686 127.35622593061998,108.7886747586308 128.5,106.88422968803206 127.52952503215056,105.46601976605598 124.51412066747434,105.1823771521158 119.76572528877296,107.00579029443907 113.838896020432,107.45151218771935 112.83376123232301,108.91023476113332 114.08151476248167,110.16635252931155 121.08279845956713,109.76115369884064 127.52952503215056,108.66711471768213 128.46534017962404,106.88422968803206 127.2869062902173,105.42549940556637 124.27150192542467,105.22289753842051 118.89922978181858,107.16787104282412 114.84403080865741,107.2083912192611 114.18549422337674,106.68162859184667 114.2894736842718,106.7626690431789 113.7695763799129,105.06081596761942 112.45250320923515,104.65561174077448 111.9672657251358,100.88719191783457 110.13029525033198,101.08979607641231 109.19448010274209,100.2793787997216 107.14955070603173,99.99573234797572 101.5,101.25187932618428" stroke="#4dd2ff" stroke-linecap="round" stroke-linejoin="round" stroke-width="0.5"><title>2023-08-17 3.9km</title><desc>1692273588000</desc></polyline><polyline fill="none" points="138.12773454356648,118.5 138.2369419401366,118.44994812386358 138.4358554125065,118.1723866719476 138.8297820930311,117.9903781985704 138.82588182885956,117.91757459544169 138.97799213125836,117.98127775487228 138.86878473467368,117.735565053139 139.13400269781414,117.6855122951456 139.68393994487997,117.40794595286934 139.97645975716296,116.87555963839259 141.2284445536934,116.0837935494419 141.84078602740192,115.8517214400963 142.25031376458355,115.6014462053281 142.6325396526372,115.60599667702263 142.93676025739114,115.53318907251742 144.3135535071924,114.6094319797412 144.98049867918598,113.95869473033235 145.23791611398337,113.59464166100952 145.67084543615056,112.52976889301863 146.34169087230111,111.44211544423888 146.89162811939605,110.29072035663557 147.18414793166448,109.82651289984278 147.68728200878832,108.56584600879796 148.17871529339754,107.71931265408057 148.2957232183253,107.18680739839692 148.10851053845545,107.12308838269746 147.37136061153433,107.63283788641274 146.63811094875564,108.59770446827315 146.54060434465646,108.85712248127675 146.4821003822144,108.86622483951942 146.46649932554283,108.79795710615144 146.60690883544157,108.25181137002801 147.05933947843732,107.53726031094993 147.1607463466935,107.10943429572944 147.68338174461678,106.28107830894442 149.02507261693245,104.73810930185573 149.14208054184564,104.25563574576881 149.38779718415753,103.96888005032088 149.41509903330007,103.8732943969735 149.30199137254385,103.81412222022482 149.5204061657132,103.33163838001565 149.66081567561196,103.2724654638696 149.84412809129572,103.39536296860024 150.09764526193612,103.09494623076534 150.0781439411221,102.98570326444678 150.20295239436382,102.73990558353762 150.19515186604986,102.5077620495249 150.59297881073144,101.90691418797724 150.71778726397315,101.56096770139266 150.6826848865021,101.30150602438152 150.76849069808668,101.03293879289413 150.79579254725832,100.50035139445754 150.62418092403095,99.59448258105476 150.67878462233057,99.30769604570014 150.66708382983052,99.46246996719128 150.73338832061563,99.51254376461293 150.7879920189007,99.32590477103076 150.7528896414442,99.13016057270943 150.74118884894415,99.1802347541161 150.6475825090165,99.1529215714254 150.7645904339297,99.18933914451918 150.78019149058673,99.13016057270943 150.71778726397315,99.1392649736299 150.67488435817359,98.76598296730663 150.59687907488842,98.64762458659607 150.74118884894415,98.28344292596739 150.76849069808668,98.02851394242316 150.78019149058673,98.07403708519996 150.8815983588429,97.96478146218942 150.87769809467136,98.02396162550576 150.89329915134294,97.88283956416126 150.97130443461356,97.92836285998055 150.9128004721424,97.94201983939638 150.97130443461356,97.89194422716537 150.78019149058673,97.75082173586998 150.80749333972926,97.67343178744704 150.85429650970036,97.70529825353515 150.79189228307223,97.70529825353515 150.83869545304333,97.50954673452725 150.70218620731612,97.37752776890193 150.5695772257459,96.8995247010389 150.616380395717,95.74774326641636 150.92060100048548,95.09217019941207 150.97130443461356,94.77348526422793 150.928401528814,94.22261006214467 150.78019149058673,93.93123522205497 150.73338832061563,93.26652903317881 150.78019149058673,93.07986313216315 150.9167007363285,93.07986313216315 150.9986062837561,92.93872496566473 150.95570337794197,92.82490352870082 151.00250654791307,92.75661052295618 151.3067271526961,92.58360109321438 151.56024432332197,92.3377443991194 151.87226545643352,91.5 151.80206070147688,91.60471893597787 151.76695832399128,91.57284798225737 151.7591577956773,91.58195397142481 151.79426017314836,91.66390778778805 151.52124168169394,92.3696147900373 151.552443795008,92.58815398179286 151.23652239773946,93.18913107426852 151.47833877587982,95.11038069633287 151.44323639842332,95.31524825926317 151.25602371856803,95.58840350291212 151.1819186994544,96.17568144519828 151.41593454926624,97.14535550883375 151.35353032265266,97.23185120210474 151.49003956837987,97.52775621546243 151.45103692675184,97.85552556372932 151.1780184352683,98.63852008238246 151.1780184352683,98.99814654437068 151.0883123595122,99.3213525904066 151.1819186994544,99.58082612241196 151.26772451105353,100.47303904375076 151.1468163219688,100.79168206429313 150.98300522709906,100.8508583673065 150.82699466055783,101.13763469122205 150.7528896414442,101.1239787188315 150.72558779230167,101.56096770139266 150.4486690366757,102.1754760040094 150.19905213019229,102.48045096378337 150.20685265853535,102.71714646851251 149.3058916367154,103.76405339219127 149.25518820257275,103.8732943969735 149.4658024674136,103.99163850815967 149.2083850326162,103.90970800404466 149.14988107017416,104.04625875817874 138.56846439406218,118.09958337421995" stroke="#4dd2ff" stroke-linecap="round" stroke-linejoin="round" stroke-width="0.5"><title>2023-08-15 13.0km</title><desc>1692056055000</desc></polyline><polyline fill="none" points="177.91485819238005,91.5935391522271 177.90050433565193,91.64390622803694 177.9497175587312,91.65110151544468 177.93126260007557,91.66789051049273 177.90050433565193,91.59114071725344 177.93126260007557,91.55756260093585 177.90050433565193,91.58394541079906 177.78157237986306,91.5 177.7733701760153,91.75423371702527 177.65033711829165,91.82138931679583 177.67084262791468,91.87895110097452 177.75286466639227,91.92691914271563 177.67904483175516,91.93411434021618 177.71390419810632,91.91492714180458 177.7549152173524,91.9604967114974 172.1897199066807,105.98197825886746 172.1938210086082,105.84535380331363 172.25943863939028,105.80700293106383 172.18766935572057,105.87891076335109 172.21022541630373,105.95081836773898 172.0502824412688,106.14976155245859 172.18561880475318,106.26481223670817 172.31070241343696,106.47094325376383 172.33530902498023,106.62194501979138 172.3742694932589,106.6578976731198 172.4419376750011,107.16841920297338 172.43168492018594,107.71008676601559 172.63674001637992,108.47463092538055 172.8992105395082,109.24154590018588 173.1206700433977,109.77357794045929 173.30932073189615,110.64589177987727 173.64356053869415,111.71706649523185 174.0926311993535,112.22268174545025 174.23616976667836,112.24664427407697 174.5211963503898,112.39281515108269 174.5622073696286,112.49585307273082 174.5540051657881,112.42396619995998 174.4637809234555,112.34968285900868 174.58886453213927,112.38323020436837 174.61962279657018,112.68515408231542 174.71189758985565,112.76902111376148 175.01127803029522,112.91039626560632 175.08714841589244,112.85528402295677 175.22453533032967,112.87205732835719 175.160968250515,113.07093986231303 175.26349579860835,113.21710543343579 175.27579910438362,113.41119268862349 175.44804538518656,113.50464151619599 175.42959042652365,113.60288217671587 175.36397279574157,113.63882377560549 175.21018147360883,113.60048606810415 175.15481659762736,113.71789509294103 175.160968250515,113.86405650019879 175.01742968318285,114.00063270274404 175.05844070242165,114.08449487626604 175.03178353991098,114.33607953889805 175.08304731396493,114.37920805838257 175.2060803716813,114.38879216270288 175.27784965534374,114.66433343238714 175.423438773636,114.74819315532841 175.3578211428612,114.79850884048392 175.27784965534374,114.78652892555147 175.21838367744203,114.82965658972171 175.35987169382133,115.1291519986662 175.38037720344437,115.24655312157302 175.3127090216949,115.6802132336943 175.13431108800432,116.03001038587354 175.23888918707235,116.89489665989822 175.22453533032967,117.33810816808545 175.11790668031608,117.56330421646453 174.75906026198209,117.84599396876183 174.71599869176862,117.92984194780729 174.80622293410124,118.25085706478421 174.79186907736585,118.5" stroke="#4dd2ff" stroke-linecap="round" stroke-linejoin="round" stroke-width="0.5"><title>2023-08-14 8.0km</title><desc>1691992321000</desc></polyline><polyline fill="none" points="14.885852090083063,130.54513801500434 14.393890675157309,130.03889497675118 14.480707395472564,130.37639042403316 13.90192926034797,130.30889136277256 12.889067524112761,129.76889836456394 11.5,129.8363975387765 12.454983922769316,130.8488834562013 11.963022507959977,130.9501318729308 15.117363344063051,132.84009648003848 17.17202572338283,132.7725979349052 18.18488745985087,133.7850746268814 19.718649517628364,133.4813319532259 20.499999999883585,134.66255185339833 21.657556270016357,134.66255185339833 23.8569131832337,135.74252054435783 25.506430868175812,135.97876321314834 25.88263665593695,137.15997395888553 26.83762057882268,137.90244706868543 28.602893890696578,137.93619580572704 28.747588424477726,138.57742113867425 28.747588424477726,138.0374419958098 33.03054662386421,137.63245704490691 34.68006430868991,139.0499021464493 36.011254019336775,138.57742113867425 38.5,140.23110163540696" stroke="#4dd2ff" stroke-linecap="round" stroke-linejoin="round" stroke-width="0.5"><title>2023-08-12 1.2km</title><desc>1691805906000</desc></polyline><polyline fill="none" points="41.5,130.81567076049396 42.26447876438033,130.89692102116533 47.02509652497247,129.6781653087528 48.93629343633074,129.96254198730458 49.97876447858289,130.7750456237991 51.785714285681024,130.81567076049396 52.37644787633326,134.71566389355576 53.592664092662744,134.87816274852958 54.079150579171255,136.1375265457027 52.65444015432149,138.77811465901323 53.940154440002516,140.3218346912472 67.45752895751502,138.69686606439063 68.32625482615549,137.8437547851354 68.25675675668754,136.34064935246715 67.04054054047447,135.32503424567403 65.19884169881698,135.0812862207822 58.944015444023535,137.15313950553536 53.9749034747947,137.2750128803309 52.68918918911368,138.45312017787364 52.75868725858163,139.2249816216936 54.148648648522794,140.19996228264063 61.862934362958185,139.75309645337984 67.31853281857911,138.77811465901323 68.46525096532423,137.19376396804 68.01351351337507,135.93440363180707 66.41505791503005,135.16253557961318 64.08687258686405,135.2437849213311 59.18725868710317,137.07189056748757 53.80115830118302,137.31563732994255 52.65444015432149,138.6562417607347 53.905405405326746,140.159338137717 65.72007721988484,139.14373312165844 68.11776061763521,138.16874978150008 68.5,136.95001712816884 68.04826254816726,135.97502822309616 65.37258687242866,135.04066153493477 58.874517374439165,137.11251503860694 53.73166023148224,137.31563732994255 52.58494208485354,138.77811465901323 53.9749034747947,140.1187139886315 67.35328185325488,138.77811465901323 68.46525096532423,137.43751065334072 67.4922779921908,135.52815748180728 64.95559845550451,135.04066153493477 59.465250965207815,136.95001712816884 54.63513513514772,137.11251503860694 53.66216216201428,136.70627013375633 53.627413127338514,135.0812862207822 52.34169884165749,134.67503916911664 51.75096525088884,130.8562958930852 46.6776061776327,129.84066629374865" stroke="#4dd2ff" stroke-linecap="round" stroke-linejoin="round" stroke-width="0.5"><title>2023-08-10 4.9km</title><desc>1691669419000</desc></polyline><polyline fill="none" points="71.5,128.54573442263063 74.56230031955056,128.94913130850182 75.94249201263301,129.9071975450497 78.01277955272235,129.85677305428544 78.57348242797889,134.64707588235615 80.12619808292948,134.8991957513208 80.60063897748478,136.15979309761315 79.00479233218357,139.94156515039504 80.51437699678354,141.3534190314822 97.20607028738596,139.689447946148 98.5,138.12631830654573 97.68051118170843,136.00852159204078 93.32428115000948,135.25216334409197 86.68210862623528,137.6220818462316 80.25559105421416,137.82377649427508 78.96166134183295,139.7398713977018 80.42811501584947,141.3534190314822 97.07667731610127,139.7902948439296 98.37060702871531,138.47928351158043 98.32747603813186,136.7144548748911 96.47284345026128,135.3530111797445 94.57507987204008,135.15131548707723 86.33706070296466,137.7229291809199 80.29872204479761,137.8742001428909 78.8322683707811,139.5886010271497 80.55750798736699,141.45426557734027 97.11980830668472,139.7398713977018 98.45686900941655,137.92462378635537 97.6373801913578,136.00852159204078 93.79872204456478,135.20173941823305 87.76038338639773,137.4203871130303 80.42811501584947,137.82377649427508 79.00479233218357,139.28606014238903 80.08306709257886,140.74833930830937 82.11022364208475,140.49622253046255 83.05910543119535,139.48775408696383 80.38498402549885,136.7144548748911 75.38178913737647,137.67250551629695 78.2715654950589,136.86572615653859 77.88338658143766,130.00804651077488 75.89936102228239,130.10889545510872 71.80191693292,128.64658367607626" stroke="#4dd2ff" stroke-linecap="round" stroke-linejoin="round" stroke-width="0.5"><title>2023-08-08 4.2km</title><desc>1691495320000</desc></polyline><polyline fill="none" points="101.5,131.09016675277962 106.61284046713263,129.69816178968176 108.92412451375276,130.06663417856907 110.07976653706282,130.885460454243 111.6206225680653,130.72169533753186 112.18093385221437,136.45343322283588 113.65175097296014,136.33061115749297 112.60116731515154,138.62328328963486 113.68677042820491,140.2608979330107 127.27431906643324,138.86892592752702 128.324902724009,137.7225922847574 128.1147859923076,136.12590762850596 126.64396887179464,135.18427000232623 124.5428015566431,135.06144753450644 119.88521400792524,136.90378046274418 113.82684824918397,137.2722459968354 112.60116731515154,138.5004619123938 112.7762645916082,139.36021073590382 114.14202334638685,140.30183821034734 127.30933852144517,138.82798549864674 128.5,136.98566172283608 127.7996108951047,135.67555948419613 124.92801556433551,135.0205067032366 119.95525291841477,136.90378046274418 114.00194552540779,137.19036479730858 112.60116731515154,138.78704506563372 113.79182879370637,140.30183821034734 127.30933852144517,138.82798549864674 128.2898832685314,137.7225922847574 128.21984435804188,136.24872975889593 126.92412451375276,135.2252108163666 124.89299610909075,134.9795658676594 119.95525291841477,136.9447210948565 113.93190661491826,137.19036479730858 112.7762645916082,138.13199754655943 112.6712062258739,139.19644920239807 113.82684824918397,140.2199576513085 127.13424124545418,138.95080677221995 128.35992217902094,137.80447337171063 128.35992217902094,136.53531457812642 127.30933852144517,135.38897402884322 125.6284046692308,134.93862502777483 119.88521400792524,136.86283982626628 113.72178988344967,137.23130539915292 112.56614785990678,138.58234283485217 113.75680933869444,140.30183821034734 121.04085603123531,139.85149492122582 127.4143968874123,138.78704506563372 128.2898832685314,137.76353283034405 128.18482490279712,136.08496690978063 127.23929961095564,135.307092431176 125.27821011678316,134.93862502777483 119.21984435804188,137.10848358049407 113.75680933869444,137.3131865900359 112.70622568088584,139.0326875996834 114.14202334638685,140.2199576513085 127.34435797668993,138.82798549864674 128.4299610897433,137.35412717904546 127.76459143962711,135.63461871788604 124.99805447482504,135.0205067032366 120.09533073939383,136.86283982626628 113.82684824918397,137.2722459968354 112.6712062258739,138.62328328963486 113.54669260722585,139.64679325302131 115.29766536969692,139.36021073590382 115.96303501958027,138.13199754655943 113.44163424149156,136.8218991853646 113.68677042820491,136.24872975889593 112.1459143969696,136.53531457812642 111.76070038927719,130.80357790464768 109.79961089487188,130.96734298663796 108.889105058508,130.06663417856907 106.75291828811169,129.73910318349954 102.37548638158478,130.92640172265237" stroke="#4dd2ff" stroke-linecap="round" stroke-linejoin="round" stroke-width="0.5"><title>2023-08-05 7.1km</title><desc>1691194711000</desc></polyline><polyline fill="none" points="131.84951456310228,128.4366474499402 134.42718446603976,128.79418888877262 135.4757281553466,129.76465717487736 137.79126213607378,129.81573439901695 138.53398058237508,134.71912278688978 139.932038835017,134.8212761824543 140.45631067967042,136.60895711096236 138.75242718448862,139.9799945819541 140.41262135910802,141.5633525500889 157.23300970881246,139.72461377867148 158.5,137.63048610059195 157.18932038848288,135.63850257039303 153.60679611656815,135.17881289726938 148.01456310669892,137.37510405562352 140.32524271844886,137.8347916394123 138.75242718448862,139.67353760174592 140.28155339788646,141.5633525500889 157.10194174782373,139.72461377867148 158.36893203901127,138.60093664069427 158.2378640777897,136.60895711096236 156.7961165048182,135.4852727278776 154.17475728178397,135.0766595772002 146.4417475729715,137.68156249346794 140.32524271844886,137.8347916394123 138.88349514594302,139.2649279924808 139.01456310693175,140.3375274798309 141.24271844676696,141.51227656757692 157.10194174782373,139.72461377867148 158.36893203901127,138.44770773753407 158.19417475746013,136.45572757616173 156.8398058253806,135.38311947256443 154.48058252432384,135.02558290903107 146.52912621363066,137.63048610059195 140.15048543689772,137.8858680105477 138.75242718448862,139.9799945819541 140.63106796098873,141.5633525500889 156.9271844662726,139.82676611607894 158.32524271844886,138.4987840440008 158.28155339811929,136.7111101069895 155.2233009710908,135.02558290903107 145.2621359222103,137.78371526268893 141.15533980587497,137.68156249346794 140.10679611656815,136.66003361169714 136.6116504855454,137.3240276305005 138.09708737861365,136.7111101069895 137.61650485452265,129.76465717487736 135.65048543689772,129.91788883131812 134.1213592234999,128.89634353699512 131.5,128.48772481450578" stroke="#4dd2ff" stroke-linecap="round" stroke-linejoin="round" stroke-width="0.5"><title>2023-08-03 4.9km</title><desc>1691062783000</desc></polyline><polyline fill="none" points="161.5,128.30587177330744 162.6892332790885,129.02678726270096 164.01060358900577,128.82081151756574 164.89151712902822,129.7991955319303 167.53425774886273,129.59322011328186 168.0628058728762,136.6993217317504 170.00081566069275,136.9052941458358 168.63539967359975,139.8918843654974 170.17699836869724,141.59114304266404 186.42985318112187,139.8918843654974 188.1035889070481,138.91352062040824 188.41190864611417,137.67768992346828 187.97145187598653,136.28737664190703 184.84420880908147,135.15452584941522 176.16721044038422,137.8321689319855 170.08890701457858,137.9351549105195 168.63539967359975,139.9433771398326 170.1329526915215,141.53965044260258 179.03017944539897,141.0762167967623 187.53099510609172,139.6344204125635 188.5,137.8321689319855 187.97145187598653,136.28737664190703 184.35970636224374,135.20601912442362 176.78384991828352,137.67768992346828 170.221044045873,138.0381408672547 168.503262642771,139.68591321411077 170.17699836869724,141.69412822666345 187.09053833619691,139.8918843654974 188.5,138.34709860687144 188.1035889070481,136.49334923029528 186.56199021195062,135.46348541765474 184.13947797729634,135.20601912442362 175.81484502460808,137.88366192387184 170.08890701457858,138.0381408672547 168.59135399665684,139.9433771398326 170.1329526915215,141.59114304266404 177.09216965758242,140.87024614596157 175.0660685156472,138.19261976145208 169.8246329529211,137.21425260370597 169.86867862963118,135.30900565805496 168.19494290370494,134.63959280023118 167.53425774886273,129.7991955319303 164.89151712902822,129.90218320852728 164.09869494312443,128.97529333466082 161.5,128.61483568511903" stroke="#4dd2ff" stroke-linecap="round" stroke-linejoin="round" stroke-width="0.5"><title>2023-08-01 4.2km</title><desc>1690892153000</desc></polyline><polyline fill="none" points="37.45180722884834,168.84533171131625 38.39156626514159,167.83119123466895 38.1385542168282,166.0986953022075 36.87349397595972,165.29582878763904 34.777108433656394,165.16906024320633 28.415662650717422,167.19735213025706 23.463855421636254,167.40863194334088 22.23493975913152,168.88758750873967 23.463855421636254,170.32428196180263 31.198795180767775,169.81721392075997 37.56024096393958,168.71856429241598 38.5,167.2396081018669 37.81325301202014,165.76064643997233 35.174698795191944,165.08454785789945 28.81325301202014,167.1128401737369 23.39156626514159,167.324120031466 22.23493975913152,169.01435487400158 23.60843373485841,170.32428196180263 37.01807228918187,168.97209908996592 38.39156626514159,167.6199116447533 37.92168674711138,165.8451586822921 35.066265060333535,165.1268040527939 30.18674698797986,166.85930419701617 24.25903614447452,167.2396081018669 23.283132530283183,166.39448782219552 21.548192771151662,166.47899993043393 21.295180722838268,160.73213586313068 19.487951807212085,160.85890581452986 18.584337349282578,159.92925857086084 16.198795180767775,159.67571803822648 11.5,160.90116245602258" stroke="#4dd2ff" stroke-linecap="round" stroke-linejoin="round" stroke-width="0.5"><title>2023-07-30 3.2km</title><desc>1690716823000</desc></polyline><polyline fill="none" points="41.7765685019549,159.52354323898908 41.5,160.93814380999538 42.08770806668326,160.4127213516913 42.43341869406868,161.0189779701468 43.366837387904525,160.93814380999538 47.34250960312784,159.96813255370944 49.34763124200981,160.2510527576087 50.350192061509006,161.18064623943064 52.044174135662615,161.05939504384878 52.528169014141895,164.89899756675004 53.9801536493469,165.30316401048913 53.9801536493469,167.4452390303777 52.908450704300776,169.02147524917382 54.15300896286499,170.43604068265995 67.4282970551867,168.9810590170091 68.43085787456948,167.8494027828565 67.94686299620662,166.11149561638013 65.38860435341485,165.3435806313937 59.78809218958486,167.20274057378992 54.15300896286499,167.48565542476717 52.87387964152731,169.02147524917382 54.08386683743447,170.43604068265995 67.32458386698272,168.9810590170091 68.46542893734295,167.64732096006628 68.01600512163714,166.11149561638013 65.3540332907578,165.3435806313937 58.992957746610045,167.40482263168087 54.08386683743447,167.526071815053 52.80473751609679,169.02147524917382 54.18758002575487,170.47645676101092 67.4282970551867,168.9810590170091 68.5,167.16232414953993 67.94686299620662,166.07107907673344 65.76888604357373,165.3435806313937 59.89180537778884,167.20274057378992 53.84186939825304,167.56648820091505 52.87387964152731,169.02147524917382 54.15300896286499,170.3552085130941 63.83290653023869,169.58730205043685 67.6011523688212,168.81939404568402 68.5,167.28357340977527 67.73943661968224,165.90941287516034 64.38604353391565,165.42441386033897 59.23495518579148,167.3239898213942 54.8790012805257,167.3239898213942 53.91101152356714,166.55607727140887 52.389884763164446,166.6369102439494 51.9750320102321,161.14022917859256 46.962227912968956,160.04896691913018 42.77912932145409,161.22106329607777" stroke="#4dd2ff" stroke-linecap="round" stroke-linejoin="round" stroke-width="0.5"><title>2023-07-29 4.9km</title><desc>1690631888000</desc></polyline><polyline fill="none" points="71.5,158.446595426758 71.55654905753909,158.46185572167815 71.92194296763046,158.61445840439774 73.10077332044602,159.40289788251175 73.17907201548223,159.43341786045494 73.27912034801557,159.35711787928085 73.54881585307885,159.51989102606967 73.68366360559594,159.51480437357168 95.08530691155465,170.40918052074994 95.8160947317374,170.21593110580943 96.08144030932453,170.2718718057513 96.22498791685211,170.37866750683315 96.4468342194159,170.36341099261335 96.50338327695499,170.85161704782513 96.67738037699019,170.88212976177965 96.70347994199255,171.0397784756533 96.54688255194924,171.38558674839442 96.70347994199255,171.55340457323837 98.3651522474538,171.365245154102 98.5,171.19742667296669 98.4521507974714,171.0092658616668 98.13460608987953,170.89738611150096 97.2994200096582,171.15674331665286 96.64693088448257,171.19234125531148 96.5338327694335,171.38050135062804 96.69043015950592,171.53814843152213 97.57781536973198,171.48729459090464 98.36950217495905,171.3601597541783 98.4913001449604,171.11605992594195 98.27815369743621,170.92281335030202 98.02150797485956,170.9075570086352 97.30376993716345,171.16691415895184 96.69913001448731,171.16691415895184 96.52948284192826,171.37541595231596 96.69913001448731,171.54323381264112 98.35645239247242,171.37033055346546 98.49565007249475,171.16182873808066 98.39560173996142,170.96858234624597 98.05195746736717,170.9075570086352 97.50821652970626,171.12114535166984 96.68608023200068,171.16691415895184 96.5338327694335,171.3601597541783 96.6599806669692,171.48220920389213 96.86877718701726,171.44152608836885 96.94707588205347,171.3194765354674 96.6686805219797,171.06012020755952 96.46858385691303,171.08554736034057 96.41203479940305,170.37358200264134 96.20323827935499,170.39392401620717 96.07709038181929,170.28204283511877 95.80304494925076,170.25152974056618" stroke="#4dd2ff" stroke-linecap="round" stroke-linejoin="round" stroke-width="0.5"><title>2023-07-27 4.7km</title><desc>1690456073000</desc></polyline><polyline fill="none" points="101.5,160.47201285569463 105.59655172401108,159.33999857012532 107.83103448268957,159.81892807062832 108.87379310326651,160.7332464796491 110.69862068933435,160.64616862346884 111.2572413792368,165.00003888685023 112.56068965513259,164.8694234485738 112.8958620687481,165.39188495327835 112.82137931021862,167.30757146759424 111.74137931037694,169.17971104406752 113.0448275860399,170.66000142987468 127.38275862042792,169.1361730111821 128.42551724100485,167.78649170399876 128.16482758615166,166.3061909918324 126.8241379307583,165.34834651989513 124.7386206893716,165.21773119198042 117.99793103453703,167.39464791567298 112.67241379292682,167.56880075644585 111.62965517234989,169.17971104406752 112.93310344801284,170.66000142987468 127.15931034460664,169.17971104406752 128.5,167.6123389552231 127.79241379280575,165.82726903425646 124.62689655157737,165.08711582273827 118.10965517233126,167.30757146759424 113.1937931033317,167.3511096938746 111.55517241358757,169.09263497349457 113.00758620677516,170.5729256720224 127.23379310313612,169.1361730111821 128.46275862050243,167.3511096938746 127.9041379308328,165.95788416889263 125.37172413780354,165.0435773571371 118.55655172397383,167.1769567609008 113.0448275860399,167.39464791567298 111.59241379308514,169.00555888435338 113.00758620677516,170.61646355318953 127.15931034460664,169.09263497349457 128.46275862050243,167.52526255318662 127.68068965477869,165.74019225483062 124.77586206886917,165.08711582273827 118.25862068939023,167.30757146759424 113.78965517226607,167.3511096938746 112.70965517219156,166.4803442930861 110.99655172391795,166.61095922038658 110.62413793080486,160.64616862346884 108.91103448253125,160.7332464796491 105.3731034481898,159.51415481654112" stroke="#4dd2ff" stroke-linecap="round" stroke-linejoin="round" stroke-width="0.5"><title>2023-07-25 4.8km</title><desc>1690287553000</desc></polyline><polyline fill="none" points="131.93062200956047,158.455341249326 134.7296650717035,159.00912735436577 135.46172248804942,159.86497734091245 138.00239234464243,159.86497734091245 138.56220095674507,165.05038849113043 140.24162679398432,164.94970143327373 140.629186602775,166.20828812464606 138.99282296630554,169.73231316712918 140.629186602775,171.49431591079338 156.82057416276075,169.83299921368598 158.370813397225,168.3227062789956 157.8540669856593,166.15794472076232 154.40909090894274,165.1510755274212 147.43301435397007,167.51721475544036 140.370813397225,168.0206471173151 139.03588516730815,169.68197013574536 140.4569377989974,171.44397306576138 150.18899521511048,170.8902014187188 157.20813397108577,169.73231316712918 158.41387559799477,167.41652821938624 156.6913875597529,165.50347998715006 153.3325358852744,165.35244953638176 146.61483253585175,167.7689310029673 140.4569377989974,167.91996068751905 139.03588516730815,169.68197013574536 140.58612440200523,171.49431591079338 156.94976076553576,169.83299921368598 158.5,167.51721475544036 157.25119617232122,165.75519729891676 155.05502392328344,165.20141903767944 148.42344497609884,167.31584166176617 140.8444976073224,167.8696174645156 138.99282296630554,169.8833422290918 140.5430622010026,171.544658750674 157.165071770316,169.73231316712918 158.32775119598955,168.47373578799306 158.28468899521977,166.8124085550662 156.82057416276075,165.5538234602136 154.4521531101782,165.20141903767944 145.96889952151105,167.819274236419 140.49999999976717,167.8696174645156 139.03588516730815,169.3295687675709 139.2081339713186,170.38677209004527 140.49999999976717,171.49431591079338 156.94976076553576,169.782656193187 158.32775119598955,168.3227062789956 158.11244019144215,166.40966168660088 156.088516746182,165.25176254258258 153.5047846888192,165.30210604215972 151.35167464101687,166.1076013117272 147.82057416276075,167.5675580156676 141.2320574161131,167.66824451996945 140.370813397225,166.7620652152109 138.5191387559753,166.91309521903167 138.00239234464243,159.96566547369002 135.54784689005464,160.06635358490166 134.42822966515087,159.16015981667442 131.5,158.70706228594645" stroke="#4dd2ff" stroke-linecap="round" stroke-linejoin="round" stroke-width="0.5"><title>2023-07-22 5.7km</title><desc>1690027086000</desc></polyline><polyline fill="none" points="166.6814621409867,159.60174038336845 168.90208877273835,160.01382675833884 169.71279373345897,160.79678967085783 171.75718015665188,160.71437259635422 172.39164490858093,164.83520498438156 173.51958224526607,164.91762118783663 173.90731070493348,166.1950701138121 172.5678851173725,169.1620321138471 173.87206266308203,170.35705209625303 187.23107049590908,168.95599381564534 188.4295039162971,167.63734612840926 187.8302872062195,165.82419827612466 184.93994778068736,165.24728582749958 179.15926892939024,167.1840599559073 173.6253263708204,167.47251485392917 172.53263707552105,168.91478614287917 173.80156657961197,170.35705209625303 181.09791122702882,169.94497665404924 187.44255874678493,168.91478614287917 188.4295039162971,167.0604363628663 188.11227154033259,166.1950701138121 186.77284595300443,165.4121180428192 184.83420365536585,165.16486969368998 178.6305483027827,167.3076835098327 173.80156657961197,167.34889135236153 172.49738903390244,168.91478614287917 173.8368146212306,170.39825961663155 187.44255874678493,168.91478614287917 188.5,167.3076835098327 187.86553524807096,165.86540627558134 184.93994778068736,165.0824535425636 179.37075718003325,167.10164423150127 173.6253263708204,167.43130702446797 173.69582245429046,167.96700846837484 174.47127937339246,167.84338512361865 174.43603133154102,167.34889135236153 173.59007832896896,167.5137226791412 172.5678851173725,168.8323707843665 173.73107049590908,169.86256151332054 175.24673629226163,169.53290077619022 175.8812010444235,168.42029373065452 173.87206266308203,166.81318905911758 173.30809399485588,165.0000373738294 172.0744125326164,164.71158064639894 171.68668407318182,160.92041525023524 169.95953002618626,161.04404079029337 168.65535248047672,160.09624398118467 166.46997389034368,159.84899226066773 161.5,161.16766629109043" stroke="#4dd2ff" stroke-linecap="round" stroke-linejoin="round" stroke-width="0.5"><title>2023-07-20 4.1km</title><desc>1689854520000</desc></polyline><polyline fill="none" points="11.5,188.4323625586403 14.243548387195915,188.9414884132275 15.680645161308348,189.95973850766313 17.509677419438958,189.70517618584563 18.29354838724248,192.70900301050278 17.814516129205003,195.25460429905797 18.25000000023283,196.93469377970905 20.16612903238274,196.83287034157547 18.729032258037478,199.73482989156037 20.427419354906306,201.5167262145842 37.06290322588757,199.83665271603968 38.5,197.5456339561497 36.975806451635435,195.56007554958342 34.01451612915844,195.10186860110844 26.654838709626347,197.69836887912243 19.904838709859177,198.20748493933934 18.77258064527996,199.73482989156037 20.383870967896655,201.5167262145842 29.87741935485974,201.00761365212384 37.237096774159,199.83665271603968 38.45645161275752,197.3419873167877 37.019354838645086,195.56007554958342 33.970967741915956,195.20369240513537 28.570967741776258,197.24016396480147 20.296774193411693,197.95292697648983 18.77258064527996,199.78574130660854 20.383870967896655,201.5676374413597 36.84516129037365,199.83665271603968 38.41290322551504,197.8511037536082 37.41129032243043,195.86554660645197 34.14516129042022,195.10186860110844 26.393548387102783,197.596545602486 20.819354838691652,197.69836887912243 18.77258064527996,199.37844983587274 20.340322580654174,201.5167262145842 36.80161290313117,199.78574130660854 38.36935483873822,198.003838579898 37.10645161289722,195.66189925686922 33.53548387088813,195.25460429905797 26.262903225841,197.64745724355453 21.167741935700178,197.69836887912243 20.12258064537309,196.68013514429913 18.119354838738218,196.98560549068497 17.59677419369109,189.95973850766313 15.15806451626122,189.95973850766313 14.200000000186265,189.04331351947621 11.5,188.5851003714779" stroke="#4dd2ff" stroke-linecap="round" stroke-linejoin="round" stroke-width="0.5"><title>2023-07-18 4.8km</title><desc>1689684415000</desc></polyline><polyline fill="none" points="68.34187408490106,185.34058601618744 68.5,191.48757842215127 65.69326500734314,192.6430184726778 46.362371888710186,196.38662326149642 46.9948755488731,204.5669814326393 45.057833089260384,204.65941398384166 43.75329428981058,203.64265484616044 41.5,203.41157289405237" stroke="#4dd2ff" stroke-linecap="round" stroke-linejoin="round" stroke-width="0.5"><title>2023-07-16 1.2km</title><desc>1689509495000</desc></polyline><polyline fill="none" points="71.5,190.6218654458644 75.99391069030389,189.46858286854695 78.40527740190737,189.98115330911241 78.98985115019605,190.6218654458644 81.03585926909,190.57915133488132 81.5838971582707,194.63697170495288 83.04533152910881,194.9359673835279 83.41069012181833,196.260088443727 82.02232746966183,199.16459686335293 83.4472259809263,200.53141713148216 97.1481732071843,199.1218836554326 98.4634641406592,197.79777197225485 97.87889039237052,195.91838019841816 95.13870094716549,195.10682195762638 88.78146143443882,197.19978462861036 83.22801082534716,197.3706382456876 81.87618403229862,199.16459686335293 83.33761840313673,200.48870406812057 97.33085250342265,199.036457226146 98.4634641406592,197.79777197225485 98.20771312573925,196.13194788558758 95.24830852495506,195.10682195762638 89.65832205698825,197.11435779300518 83.22801082534716,197.45606502710143 82.16847090655938,198.39575843096827 82.0953991881106,199.29273645984358 83.37415426247753,200.48870406812057 90.90054127201438,200.1469993982464 97.25778078474104,199.036457226146 98.39039242221043,197.92591200215975 98.31732070352882,196.47365595030715 96.96549391071312,195.40581728855614 95.24830852495506,195.10682195762638 88.52571041951887,197.28521144617116 83.11840324755758,197.49877841109992 81.98579161032103,199.036457226146 83.26454668468796,200.53141713148216 90.3159675237257,200.18971249781316 97.33085250342265,198.9937440046633 98.5,197.3279248480976 97.73274695524015,195.83295309191453 95.10216508805752,195.10682195762638 89.3660351827275,197.11435779300518 84.03179972944781,197.28521144617116 83.04533152910881,196.4309424580715 81.36468200269155,196.68722334413906 80.92625169153325,190.7072936539189 75.88430311228149,189.63943975427537" stroke="#4dd2ff" stroke-linecap="round" stroke-linejoin="round" stroke-width="0.5"><title>2023-07-15 4.8km</title><desc>1689425255000</desc></polyline><polyline fill="none" points="107.38461538474075,189.73910067905672 109.39230769244023,190.10332161729457 110.08461538469419,190.91270023980178 112.09230769239366,190.79129355563782 112.64615384628996,194.71675684582442 114.0307692309143,195.00003614477464 114.23846153845079,196.2545562350424 113.06153846159577,199.20873246871633 114.27307692309842,200.26089932091418 127.49615384615026,198.88498824019916 128.5,197.59000858839136 128.04999999993015,195.89034114856622 124.96923076931853,195.28331523420638 120.0192307693651,197.02345361351036 114.13461538462434,197.46860402153106 112.9230769231217,198.92545628361404 114.16923076927196,200.26089932091418 127.53076923068147,198.88498824019916 128.5,197.79234944778727 128.18846153840423,196.13315124475048 127.01153846154921,195.36425207846332 124.86538461537566,195.2023783729237 119.70769230776932,197.18532654904993 114.34230769227725,197.34719941602089 113.0961538462434,198.35890328494133 113.1307692307746,199.28966848307755 114.30769230774604,200.26089932091418 122.54615384608041,199.77528420995804 127.773076922982,198.60171181565966 128.5,197.06392185372533 127.87692307692487,195.93080950860167 125.523076922982,195.32378365841578 120.29615384619683,197.02345361351036 114.75769230769947,197.26626299117925 113.89230769244023,196.9020488669048 113.99615384626668,196.41642949581728 112.40384615398943,196.41642949581728 112.05769230762962,190.95316912597627 110.53461538464762,191.11504462815356 109.25384615396615,190.26519747881684 107.17692307708785,189.98191467637662 101.5,191.19598235344165" stroke="#4dd2ff" stroke-linecap="round" stroke-linejoin="round" stroke-width="0.5"><title>2023-07-13 3.8km</title><desc>1689250953000</desc></polyline><polyline fill="none" points="134.72018348635174,188.13670811062912 135.76055045891553,193.92855754727498 137.69266055058688,194.855247775733 137.69266055058688,197.46155564161018 136.10733944969252,199.83618090418167 137.79174311924726,201.8053745366633 156.76605504611507,199.89409846503986 158.45045871543698,198.0407334837364 157.756880733883,195.72401844180422 154.6853211009875,194.6235753655783 145.5697247707285,197.34571999969194 138.08899082569405,197.63530905847438 136.05779816536233,199.89409846503986 138.03944954136387,201.86329188931268 156.76605504611507,199.83618090418167 158.2027522935532,198.79366376344115 158.5,196.88237718713935 157.31100917444564,195.3765103406622 154.28899082588032,194.565657247731 145.6688073396217,197.2878021694487 138.08899082569405,197.63530905847438 136.05779816536233,199.7782633374445 137.9403669727035,201.86329188931268 157.01376146799885,199.7782633374445 158.3513761467766,198.21448671713006 157.9055045871064,195.89777240977855 155.77522935764864,194.68149347731378 152.70366972475313,194.6235753655783 145.4706422018353,197.34571999969194 137.9403669727035,197.69322685181396 136.20642201858573,199.2570049597416 136.50366972503252,200.53119122958742 139.03027522959746,201.6316224419861 156.81559633044526,199.7782633374445 158.40091743133962,197.98281572700944 158.153211009223,196.24528018035926 154.43761467910372,194.6235753655783 145.8669724771753,197.2878021694487 138.98073394503444,197.51947345328517 137.89082568814047,196.88237718713935 137.29633027524687,194.39190285746008 135.66146789002232,194.2181484118919 134.96788990846835,188.54213956394233 131.5,188.13670811062912" stroke="#4dd2ff" stroke-linecap="round" stroke-linejoin="round" stroke-width="0.5"><title>2023-07-11 4.3km</title><desc>1689085096000</desc></polyline><polyline fill="none" points="163.52747252723202,188.9008439440513 165.35714285681024,188.7274058421608 165.7527472525835,193.98833713738713 167.68131868122146,194.56645836943062 167.978021977935,196.93674903264036 166.1978021976538,200.17420261044754 167.978021977935,202.1976013655658 178.90659340657294,201.67729954357492 186.81868131877854,200.34763708268292 188.35164835164323,198.5554782169056 188.25274725281633,196.99456087168073 186.67032967042178,195.49145106988726 184.1978021976538,194.97114286833676 174.8021978023462,197.97736120101763 168.12637362629175,198.0351729299873 166.14835164812393,200.34763708268292 168.02747252723202,202.1976013655658 187.01648351643234,200.28982559795259 188.4010989011731,198.84453649562784 188.45054945047013,197.2258081668988 186.47252747253515,195.3758270678809 183.70329670328647,195.02895491517847 174.60439560445957,197.97736120101763 168.02747252723202,198.0351729299873 166.1978021976538,200.40544856130145 168.0769230767619,202.255412648723 186.91758241760544,200.28982559795259 188.5,197.7461142235552 187.4120879122056,195.89613488444593 184.3461538462434,195.02895491517847 174.70329670328647,197.97736120101763 168.521978022065,197.97736120101763 166.0989010988269,199.8851450344082 167.978021977935,202.31322392559377 186.86813186807558,200.23201410740148 188.35164835164323,198.67110154672991 188.00549450539984,196.30081839952618 183.60439560445957,195.0867669559084 175.69230769225396,197.80392597714672 167.87912087887526,198.2086080806912 166.1978021976538,200.23201410740148 167.978021977935,202.255412648723 175.59340659319423,201.67729954357492 177.521978022065,201.61948819935787 187.1648351647891,200.1163911073818 188.45054945047013,198.382043176156 187.90659340657294,196.30081839952618 183.5549450549297,195.0867669559084 173.86263736267574,198.0351729299873 169.0659340659622,197.97736120101763 167.73076923075132,196.8211253361078 165.6538461537566,197.11018453160068 165.0109890110325,189.13209466147237 162.0439560438972,189.0742819912266 161.5,187.68677607446443" stroke="#4dd2ff" stroke-linecap="round" stroke-linejoin="round" stroke-width="0.5"><title>2023-07-08 5.3km</title><desc>1688824288000</desc></polyline><polyline fill="none" points="14.621100917458534,218.10774870886235 15.06697247712873,218.6869364688173 15.413761467905715,226.44799338455778 17.64311926625669,226.5059113066527 16.156880734022707,229.8072227392695 17.890825688140467,231.77641657955246 36.81559633044526,229.92305786686484 38.30183486244641,228.35928157705348 38.3513761467766,226.5638292224612 36.71651376155205,224.88420717755798 33.94220183510333,224.47878039540956 26.2633027525153,227.25884373509325 18.088990825694054,227.66426846029935 16.156880734022707,229.92305786686484 17.989908256800845,231.83433393848827 36.96422018366866,229.92305786686484 38.5,227.54843285511015 37.41009174333885,225.40546974248718 34.2394495413173,224.53669852553867 25.173394495621324,227.43259722547373 17.841284403577447,227.66426846029935 16.107339449692518,229.98097542161122 17.890825688140467,231.89225129113765 37.11284403689206,229.7493051661877 38.45045871543698,227.08509018964833 36.419266055105254,224.82628908427432 33.00091743119992,224.65253476740327 26.907339449506253,227.02717232884606 25.272477064514533,227.2009258925682 18.188073394587263,227.66426846029935 16.305504587246105,229.34388198360102 16.454128440469503,230.44431563839316 18.039449541363865,231.83433393848827 29.03761467896402,231.08140779694077 37.11284403689206,229.5755524103297 38.40091743133962,227.78010404104134 37.60825688065961,225.6371418343624 33.99174311943352,224.59461664955597 27.898165137739852,226.85341870971024 22.74587155971676,227.66426846029935 15.512844036798924,226.39007545658387 14.96788990846835,218.74485521105817 11.5,218.28150510124397" stroke="#4dd2ff" stroke-linecap="round" stroke-linejoin="round" stroke-width="0.5"><title>2023-07-06 4.2km</title><desc>1688649757000</desc></polyline><polyline fill="none" points="50.7303473490756,213.63176525052404 42.635283363750204,221.24916507821763 43.47440585005097,222.63413544592913 45.15265082241967,223.03808447450865 45.89305301615968,228.4048074921011 47.91681901272386,228.92416498437524 48.114259597612545,230.71305923175532 46.28793418663554,233.65606604586355 46.43601462524384,234.81018203462008 48.01553930505179,236.25282358995173 58.72669104184024,235.61806177528342 67.1179159048479,234.23312434513355 68.40127970720641,232.61735957011115 67.61151736741886,229.96287848678185 64.10694698337466,228.86645862070145 56.15996343689039,231.63635719497688 47.91681901272386,232.09800559096038 46.28793418663554,233.5983601824264 46.386654478963464,234.867887770175 48.114259597612545,236.25282358995173 59.76325411326252,235.61806177528342 67.06855575856753,234.3485359319602 68.1051188299898,233.2521248733974 68.5,231.40553285053466 67.75959780625999,230.0782909761765 63.81078610592522,228.92416498437524 55.9131627054885,231.69406326574972 47.867458866443485,232.04029956291197 46.18921389384195,234.00230109872064 47.96617915900424,236.36823474953417 66.96983546600677,234.3485359319602 68.3519195613917,232.84818340209313 68.30255941487849,230.82847156235948 66.62431444227695,229.32810935901944 64.10694698337466,228.92416498437524 56.900365630630404,231.52094503497938 47.867458866443485,232.15571161312982 46.18921389384195,234.23312434513355 48.01553930505179,236.1951180009055 66.72303473483771,234.2908301416319 68.25319926859811,232.79047745326534 68.15447897603735,230.48223449691432 64.304387568729,228.981871341879 54.43235831800848,231.98259352851892 49.00274223019369,231.9248874882469 47.6700182815548,230.71305923175532 45.646252284990624,231.17470840847818 45.103290676372126,223.03808447450865 41.894881170010194,222.92267049691873 41.5,221.82623649179004" stroke="#4dd2ff" stroke-linecap="round" stroke-linejoin="round" stroke-width="0.5"><title>2023-07-04 4.9km</title><desc>1688476174000</desc></polyline><polyline fill="none" points="75.09016393427737,218.87667576881358 75.8278688522987,224.28134578553727 77.74590163934045,224.74131522228708 78.28688524570316,226.52369311568327 76.3196721309796,229.97344018990407 78.13934426219203,232.21576405642554 96.48360655736178,230.37590925680706 98.35245901625603,228.82352692936547 98.5,227.21364428068046 97.6147540982347,225.71874898381066 93.3852459017653,224.91380366071826 86.10655737691559,227.67361123795854 77.89344262285158,228.01858620066196 76.3196721309796,230.1459269694169 78.13934426219203,232.21576405642554 96.92622950812802,230.20342255022842 98.5,227.9610903886496 97.66393442614935,225.89123711246066 93.87704918021336,224.85630752058933 84.77868852461688,227.9035945707583 78.18852459010668,228.01858620066196 76.3196721309796,229.91594458452892 78.28688524570316,232.10077331360662 96.72950819670223,230.20342255022842 98.5,227.67361123795854 96.97540983604267,225.48876472742995 94.17213114723563,224.9712997947354 86.2049180327449,227.61611538968282 78.23770491802134,227.9610903886496 76.3196721309796,230.08843138231896 78.0901639345102,232.15826868807198 88.9098360654898,231.52581923577236 97.12295081955381,230.030935789051 98.30327868834138,228.82352692936547 98.45081967185251,226.86866880767047 96.5327868850436,225.2587803734932 93.33606557385065,224.91380366071826 85.12295081955381,227.84609874675516 77.99180327844806,228.0760820064461 76.27049180306494,230.20342255022842 78.04098360659555,232.15826868807198 80.45081967208534,231.75580093974713 80.89344262285158,229.22599684703164 77.7950819672551,226.6961809891509 75.53278688527644,227.0986524807522 75.13934426242486,219.04916606709594 71.74590163934045,218.87667576881358 71.5,217.78423594351625" stroke="#4dd2ff" stroke-linecap="round" stroke-linejoin="round" stroke-width="0.5"><title>2023-07-01 4.6km</title><desc>1688218059000</desc></polyline><polyline fill="none" points="128.5,224.23812152229948 128.0830115827266,226.12762632378144 124.90347490343265,224.7257362579112 124.12162162153982,223.68955445179017 124.6428571427241,222.71432281390298 122.76640926627442,221.556233100011 119.53474903455935,221.67813739005942 117.18918918911368,220.33718878100626 114.84362934343517,222.83622685907176 112.86293436284177,221.73908952542115 110.36100386106409,222.59241874306463 107.85907335882075,221.98289800225757 103.42857142840512,222.59241874306463 103.68918918888085,225.03049525804818 101.5,225.82286790385842 101.86486486508511,229.1142503063893 102.64671814674512,229.723763502785 103.63706563715823,228.93139622180024 103.1679536679294,226.9199974607909 104.78378378367051,225.09144703875063 104.2625482622534,224.17716965143336 106.60810810816474,225.4571575873415 109.73552123527043,224.17716965143336 112.65444015432149,224.17716965143336 115.78185328189284,222.2876584532787 117.0328185330145,220.276236497215 123.86100386083126,221.98289800225757 125.42471042461693,224.7257362579112 128.39575289562345,225.39620584540535" stroke="#4dd2ff" stroke-linecap="round" stroke-linejoin="round" stroke-width="0.5"><title>2023-06-30 1.5km</title><desc>1688098240000</desc></polyline><polyline fill="none" points="132.0419708029367,217.7134659026051 132.14051094884053,218.92310299538076 135.2937956203241,219.09590807522181 135.88503649644554,224.4528383689467 138.0036496350076,224.798444966611 138.10218978114426,228.02409597620135 146.2810218979139,227.67849142407067 154.41058394196443,225.02884924336104 157.1204379561823,225.66246050212067 158.45072992728092,227.1600841852487 158.30291970819235,229.11850894521922 156.97262773732655,230.38572121603647 138.15145985386334,232.2865340974531 136.32846715324558,230.38572121603647 137.85583941615187,228.08169671351789 144.162408759119,228.08169671351789 153.27737226290628,225.08645029732725 156.7755474455189,225.43205649324227 158.35218978114426,226.64167645282578 158.45072992728092,228.7729050872149 157.02189781027846,230.32812072208617 138.15145985386334,232.22893380443566 136.6240875911899,230.9617258196813 136.47627737210132,229.52171316929162 138.2007299270481,227.96649523283122 144.31021897797473,227.96649523283122 153.47445255471393,225.02884924336104 156.72627737233415,225.48965750454227 158.5,227.85129372763913 157.31751824822277,230.1553192040883 153.5729927008506,230.78892450244166 150.71532846731134,231.24972789309686 138.34854014613666,232.22893380443566 136.67335766437463,231.01932624645997 136.57481751823798,229.34891139535466 138.44708029180765,227.96649523283122 144.85218978114426,227.90889448323287 154.2135036494583,224.97124818328302 156.33211678848602,225.31685445230687 158.30291970819235,226.87207995029166 158.40145985409617,228.54250239336397 157.02189781027846,230.2129197163158 137.90510948910378,232.1713335054228 136.27919708029367,230.44332170387497 137.80656934319995,226.75687821389874 135.63868613145314,227.04488250944996 135.19525547442026,219.4415180705255 132.5839416058734,219.2111114313593 133.02737226290628,218.3470856670756 131.84489051089622,218.75029786099913 131.5,217.9438731750124" stroke="#4dd2ff" stroke-linecap="round" stroke-linejoin="round" stroke-width="0.5"><title>2023-06-29 4.4km</title><desc>1688039201000</desc></polyline><polyline fill="none" points="161.5,217.2929638880887 162.13057324825786,223.5256556099048 164.19426751579158,223.9947804643889 164.76751592359506,225.8042587946984 162.7038216558285,230.49547486152733 164.65286624175496,232.70703611185309 186.55095541407354,230.42845773341833 188.44267515931278,227.6807493864908 187.41082802554592,225.3351352790487 183.2834394904785,224.26285165391164 172.27707006363198,227.6807493864908 164.65286624175496,227.81478421628708 162.7038216558285,230.16038915055105 164.710191082675,232.70703611185309 176.74840764328837,231.9028329132707 186.8949044586625,230.16038915055105 188.5,227.34566218819236 187.64012738876045,225.40215294534573 182.48089171969332,224.19583386712475 173.53821656061336,227.27864472707734 164.59554140106775,227.81478421628708 162.76114649674855,229.69126885791775 162.8184713376686,230.89757748070406 166.14331210171804,231.63476495374925 168.03503184695728,230.16038915055105" stroke="#4dd2ff" stroke-linecap="round" stroke-linejoin="round" stroke-width="0.5"><title>2023-06-27 2.4km</title><desc>1687872268000</desc></polyline><polyline fill="none" points="37.49024390242994,265.911406375526 37.09512195107527,267.400451754831 36.173170731868595,266.16813866372104 35.77804878051393,267.2977591167146 31.870731707196683,266.0654457648052 31.38780487817712,260.0578733389848 29.67560975602828,257.9526380452153 26.865853658411652,250.60991660266882 21.246341463411227,242.5995482451981 19.578048780327663,243.83192121933098 22.475609756074846,248.3505953331187 22.343902438879013,249.48025728354696 20.5,249.68565008279984 21.290243902476504,247.11823384088348 21.02682926831767,247.83711175853387 19.929268292617053,246.03991496667732 17.20731707313098,245.6804748090217 12.641463414765894,250.55856850894634 11.631707317195833,252.40709646072355 11.5,254.87178943725303 15.626829268177971,258.3120691080694 18.129268292803317,259.18497200892307 20.719512195093557,256.771648391732 23.09024390229024,256.00143619894516 24.890243902569637,260.36595578631386 27.4365853657946,259.6470964381879 28.885365853784606,261.59828361848486 30.86097560962662,261.13616104831453 31.826829268364236,259.74979069599067 34.768292682943866,258.0553326616646 38.5,262.47118060541106" stroke="#4dd2ff" stroke-linecap="round" stroke-linejoin="round" stroke-width="0.5"><title>2023-06-26 2.3km</title><desc>1687750317000</desc></polyline><polyline fill="none" points="45.152650822885334,248.45033618394518 46.04113345546648,254.45183384313714 47.867458866676316,254.56724661326734 47.916819012956694,257.5679700686014 46.33729433291592,259.9916192808887 48.01553930551745,261.9536131437053 66.96983546647243,259.9916192808887 68.30255941534415,258.6643841401092 68.3519195613917,256.64467230037553 66.4268738576211,254.91348477668362 64.40310786152259,254.45183384313714 55.123400365933776,257.51026400376577 47.96617915923707,257.62567612720886 46.43601462524384,259.12603151152143 46.48537477175705,260.3955597700551 48.21297989040613,261.89590754255187 66.96983546647243,260.0493250831496 68.3519195613917,258.4912662752904 68.20383912278339,256.12531661981484 66.47623400390148,254.7403657223913 64.10694698384032,254.39412744907895 55.02468007337302,257.39485185587546 48.163619744358584,257.62567612720886 46.53473491803743,259.2414432934602 46.53473491803743,260.3955597700551 48.80530164530501,261.9536131437053 66.18007312645204,260.16473666997626 68.5,257.9719123511459 67.80895795254037,255.54825417284155 64.69926873873919,254.50954023125814 55.2221206582617,257.39485185587546 49.20018281554803,257.45255793299293 47.6700182815548,254.56724661326734 45.84369287034497,253.9901825193665 44.95521023799665,248.73887123493478 41.5,248.0463868562365" stroke="#4dd2ff" stroke-linecap="round" stroke-linejoin="round" stroke-width="0.5"><title>2023-06-22 3.3km</title><desc>1687436733000</desc></polyline><polyline fill="none" points="71.5,249.61449038799765 72.15801886792178,248.6116933248668 72.56132075471396,248.7506961774161 72.88820754716289,249.02870064714807 73.68632075469941,249.5003116055159 73.8051886792673,249.54995458856502 73.90707547169586,249.49038300260145 74.33584905660246,249.70384750223457 93.93207547169004,258.455056142855 96.24150943395216,257.9884985571043 96.49622641509632,260.2120505508901 96.64056603773497,261.31386095842026 96.75518867923529,261.38830667512957 98.29622641509923,261.2245259425763 98.47877358489495,261.10541232374453 98.49150943395216,260.9416306044659 98.35566037736135,260.80762695469093 98.14339622639818,260.75799587623624 97.39198113205202,261.00118765938896 96.75094339621137,261.030966158527 96.61509433962055,261.1451168969397 96.6023584905779,261.2394151236949 96.75943396225921,261.38334363100876 98.368396226404,261.20467369375183 98.49150943395216,261.06570771697807 98.48726415094279,260.9267413289235 98.35566037736135,260.7977007431946 98.18584905660828,260.7629589864446 97.32405660377117,261.02103999424435 96.75943396225921,261.030966158527 96.62783018866321,261.1252646145258 96.61084905659663,261.2493412418007 96.74245283017808,261.37838058638226 97.90990566037362,261.28904569328006 98.39386792451842,261.1947475661909 98.5,261.06570771697807 98.49575471697608,260.9217782360356 98.39386792451842,260.81755316408453 98.15613207545539,260.7629589864446 97.26462264150905,261.0160769113245 96.84009433961182,261.0160769113245 96.73820754715416,260.9118520486845 96.53443396226794,260.9416306044659 96.50047169810568,260.2567190432237" stroke="#4dd2ff" stroke-linecap="round" stroke-linejoin="round" stroke-width="0.5"><title>2023-06-21 5.0km</title><desc>1687340611000</desc></polyline><polyline fill="none" points="101.5,247.27728468808345 102.01923076901585,253.7522705491865 104.32692307699472,253.88716538943117 104.44230769225396,257.12463299708907 104.55769230751321,257.39442122296896 102.6538461537566,260.4969776222715 104.78846153849736,262.72271531197475 126.6538461537566,260.1597439617617 128.5,258.20378521614475 127.57692307676189,255.16866494819988 123.88461538450792,253.88716538943117 113.73076923075132,257.2595271242899 104.49999999976717,257.7316563448985 102.59615384601057,260.36208417941816 104.61538461525925,262.6552688294905 121.98076923051849,261.17144440859556 126.88461538450792,260.1597439617617 128.38461538450792,258.27123216935433 127.57692307676189,255.23611222213367 123.76923076924868,254.02206020092126 112.75,257.39442122296896" stroke="#4dd2ff" stroke-linecap="round" stroke-linejoin="round" stroke-width="0.5"><title>2023-06-20 2.2km</title><desc>1687262791000</desc></polyline></svg>