<?xml version="1.0" encoding="utf-8" ?>
<svg baseProfile="full" height="300mm" version="1.1" viewBox="0,0,200,300" width="200mm" xmlns="http://www.w3.org/2000/svg" xmlns:ev="http://www.w3.org/2001/xml-events" xmlns:xlink="http://www.w3.org/1999/xlink"><defs /><rect fill="#222222" height="300" width="200" x="0" y="0" /><text fill="#FFFFFF" style="font-size:12px; font-family:Arial; font-weight:bold;" x="10" y="20">Over 1km Runs</text><text fill="#FFFFFF" style="font-size:4px; font-family:Arial" x="10" y="280">ATHLETE</text><text fill="#FFFFFF" style="font-size:9px; font-family:Arial" x="10" y="290">ElvisZhu</text><text fill="#FFFFFF" style="font-size:4px; font-family:Arial" x="120" y="280">STATISTICS</text><text fill="#FFFFFF" style="font-size:3px; font-family:Arial" x="120" y="285">Number: 44</text><text fill="#FFFFFF" style="font-size:3px; font-family:Arial" x="120" y="290">Weekly: 3.4</text><text fill="#FFFFFF" style="font-size:3px; font-family:Arial" x="141" y="285">Total: 212.8 km</text><text fill="#FFFFFF" style="font-size:3px; font-family:Arial" x="141" y="290">Avg: 4.8 km</text><text fill="#FFFFFF" style="font-size:3px; font-family:Arial" x="167" y="285">Min: 1.2 km</text><text fill="#FFFFFF" style="font-size:3px; font-family:Arial" x="167" y="290">Max: 13.0 km</text><polyline fill="none" points="11.5,38.268768558540614 15.512924071168527,39.95159696351038 17.78109854622744,40.00259167194599 18.391760904574767,45.00004695812822 20.22374798054807,45.66297081124503 20.22374798054807,48.00869405409321 18.871567043708637,49.946456826117355 20.310985460178927,51.680237972643226 37.235056542791426,49.895463168853894 38.36914378032088,48.41664475822472 37.758481421507895,46.17291161688627 33.920032310066745,45.255017778719775 27.46445880457759,47.65173690507072 20.485460420139134,47.95770019170595 18.827948303660378,49.64049480063841 20.441841680090874,51.731231441459386 37.10420032311231,49.895463168853894 38.41276252013631,48.46763857192127 38.06381260068156,46.42788181753713 36.10096930526197,45.357006069185445 33.78917609038763,45.30601192667382 27.682552503887564,47.600743004935794 20.310985460178927,48.00869405409321 18.827948303660378,49.946456826117355 20.310985460178927,51.731231441459386 37.14781906292774,49.895463168853894 38.36914378032088,48.51863238032092 38.41276252013631,47.09080370864831 36.92972536361776,45.66297081124503 34.923263327917084,45.15302946671727 27.682552503887564,47.600743004935794 20.441841680090874,48.00869405409321 19.089660743018612,49.28353885898832 19.002423263387755,50.40539950074162 20.61631663981825,51.680237972643226 37.235056542791426,49.84446950594429 38.5,48.314657114387956 38.41276252013631,46.98881578471628 36.6680129240267,45.509988464502385 34.26898222928867,45.255017778719775 26.243134087417275,47.90670632413821 20.310985460178927,48.00869405409321 19.089660743018612,49.23254513152642 19.002423263387755,50.35440589176142 20.441841680090874,51.680237972643226 37.36591276247054,49.793475837650476 38.5,48.314657114387956 38.32552504027262,46.83583385840757 36.798869143705815,45.61197670106776 34.879644587868825,45.204023625381524 26.679321486270055,47.80471857264638 20.354604200227186,48.00869405409321 18.958804523339495,50.40539950074162 20.70355411944911,51.680237972643226 37.19143780274317,49.84446950594429 38.36914378032088,48.51863238032092 38.238287560408935,46.78483987218351 36.8861066235695,45.66297081124503 34.70516962837428,45.255017778719775 26.068659127689898,47.90670632413821 20.441841680090874,48.00869405409321 18.827948303660378,50.201425032748375 20.61631663981825,51.731231441459386 37.19143780274317,49.84446950594429 38.36914378032088,48.62061998079298 38.194668820593506,46.733845880487934 36.71163166384213,45.560982585389866 34.31260096933693,45.204023625381524 27.246365105034783,47.70273079961771 20.398222940275446,48.00869405409321 19.046042003203183,49.28353885898832 19.089660743018612,50.558380295173265 20.74717285949737,51.62924449832644 37.322294022655115,49.84446950594429 38.5,47.80471857264638 37.84571890137158,46.32589375344105 35.53392568649724,45.255017778719775" stroke="#4dd2ff" stroke-linecap="round" stroke-linejoin="round" stroke-width="0.5"><title>2023-09-16 7.8km</title><desc>1694864697000</desc></polyline><polyline fill="none" points="41.5,38.34526228689356 45.77463651029393,39.875105725368485 47.60662358650006,39.620132155832835 48.435379644623026,44.56659535333165 50.22374798054807,45.38250193570275 50.13651050091721,47.728225674451096 48.82794830366038,49.71698251916678 50.31098546017893,51.50175732295611 66.92972536361776,49.76797617643024 68.41276252013631,48.085182634793455 67.62762520182878,46.04542501803371 64.31260096933693,45.1275312769867 57.159127625171095,47.62623792295926 50.485460420139134,47.830213404406095 48.74071082379669,49.61499518796336 50.398222940275446,51.60374425514601 66.97334410343319,49.8699634752993 68.41276252013631,48.340151730633806 67.6712439416442,45.94343691095128 64.31260096933693,45.17852541949833 57.42084006452933,47.524250149930594 50.354604200227186,47.830213404406095 48.78432956384495,49.76797617643024 50.398222940275446,51.65473771310644 67.19143780274317,49.76797617643024 68.41276252013631,48.28915792223415 68.1946688205935,46.50437123372103 66.40630048466846,45.33150781481527 64.18174474965781,45.17852541949833 58.29321486270055,47.371268449991476 50.22374798054807,47.88120726120542 48.9151857837569,49.25803935946897 48.958804523339495,50.328906052804086 50.57269789976999,51.55275079177227 67.14781906292774,49.76797617643024 68.36914378032088,48.49313312335289 68.10743134072982,46.40238322346704 66.79886914370582,45.38250193570275 64.18174474965781,45.1275312769867 57.28998384485021,47.524250149930594 50.441841680090874,47.830213404406095 49.13327948306687,49.003070748993196 48.9151857837569,50.226918851054506 50.65993537940085,51.55275079177227 67.10420032311231,49.8699634752993 68.5,47.524250149930594 68.06381260068156,46.19840713837766 66.79886914370582,45.38250193570275 63.57108239084482,45.17852541949833 56.41760904691182,47.67723180147004" stroke="#4dd2ff" stroke-linecap="round" stroke-linejoin="round" stroke-width="0.5"><title>2023-09-14 5.3km</title><desc>1694693604000</desc></polyline><polyline fill="none" points="71.5,40.469400164613035 75.68463611858897,39.490945924044354 78.30458221025765,39.91636110359104 79.5053908356931,40.80973151672515 81.25202156347223,40.55448302970035 81.87061994615942,44.936226261925185 83.10781671153381,45.021308182767825 83.36253369273618,45.57434022903908 83.25336927222088,47.36105395408231 82.19811320747249,49.14775974751683 83.36253369273618,50.38143292826135 97.33557951496914,48.935057092719944 98.5,47.27597252797568 97.19002695428208,45.44671751651913 94.31536388141103,45.319094763632165 88.2385444745887,47.31851324334275 83.47169811325148,47.40359466031077 82.05256064701825,48.97759763270733 83.39892183314078,50.46651369778556 97.19002695428208,49.020138168212725 98.24528301903047,48.211867225851165 98.35444743954577,46.46769808305544 95.69811320770532,45.10639008542057 88.34770889487118,47.31851324334275 83.43530997307971,47.36105395408231 82.41644204850309,48.16932660504244 82.12533692736179,49.27538128645392 83.32614555256441,50.509054075955646 97.3719676551409,49.0626786990033 98.35444743954577,48.211867225851165 98.46361185982823,46.935646643687505 98.0997304583434,46.084830673993565 96.42587601090781,45.23401290579932 94.0242587600369,45.36163568572374 88.20215633441694,47.31851324334275 83.36253369273618,47.40359466031077 82.30727762798779,48.382029664411675 82.16172506753355,49.36046228982741 83.39892183314078,50.423973315279 93.5512129382696,49.70078612375073 97.8814016173128,48.72235432569869 98.4272237198893,46.680402041674824 96.86253369296901,45.36163568572374 94.2425876010675,45.23401290579932 89.0390835579019,47.19089108388289 83.47169811325148,47.40359466031077 82.05256064701825,48.97759763270733 83.36253369273618,50.46651369778556 97.19002695428208,49.10521922551561 98.318059299374,48.04170471537509 98.46361185982823,46.935646643687505 97.84501347714104,45.914667264325544 95.84366576815955,45.191471970203565 88.71159029658884,47.233431808213936" stroke="#4dd2ff" stroke-linecap="round" stroke-linejoin="round" stroke-width="0.5"><title>2023-09-11 5.2km</title><desc>1694434443000</desc></polyline><polyline fill="none" points="101.5,40.90116430964554 106.12650602404028,39.50669263326563 108.25903614470735,39.76023329986492 109.37951807235368,40.73213769891299 111.4036144579295,40.689881034893915 111.98192771081813,44.831012863869546 113.21084337332286,45.00003774167271 113.57228915672749,46.22546596810571 112.27108433749527,49.0143575850816 113.46385542163625,50.40879609793774 127.48795180721208,48.97210179679678 128.35542168677785,47.915705634251935 128.31927710864693,46.394490256439894 127.16265060240403,45.46485578693682 125.53614457836375,45.12680635301513 118.12650602427311,47.32412256402313 113.53614457836375,47.450890438456554 112.37951807235368,48.46503198714345 112.34337349398993,49.31014797918033 113.53614457836375,50.40879609793774 127.37951807235368,48.97210179679678 128.42771084350534,47.915705634251935 128.31927710864693,46.30997812116402 125.78915662667714,45.16906254790956 118.66867469879799,47.239610625372734 113.28313253028318,47.493146387743764 112.30722891562618,49.267892221949296 113.6807228915859,50.49330736673437 127.30722891562618,48.929846003855346 128.42771084350534,47.83119382074801 128.35542168677785,46.394490256439894 125.5,45.0422939498967 119.60843373485841,47.02833070064662 113.8614457831718,47.15509866885259 112.45180722908117,48.21149684113334 112.27108433749527,49.267892221949296 113.71686746971682,50.40879609793774 127.45180722884834,48.929846003855346 128.42771084350534,47.873449729784625 128.28313253005035,46.26772204693407 125.57228915672749,45.0422939498967 120.07831325312145,46.90156269213185 113.35542168677785,47.366378526581684 112.27108433749527,49.31014797918033 113.89759036153555,50.40879609793774 127.16265060240403,49.05661336911726 128.31927710864693,48.126985090144444 128.3915662651416,46.56351447312045 127.19879518076777,45.42259962335811 125.5,45.0422939498967 119.82530120480806,46.9438186994812 113.53614457836375,47.32412256402313 112.37951807235368,48.422776140709175 112.27108433749527,49.31014797918033 113.64457831322215,50.49330736673437 127.45180722884834,48.929846003855346 128.5,47.66217013986898 128.24698795191944,46.26772204693407 127.12650602427311,45.42259962335811 125.28313253005035,45.12680635301513 118.70481927716173,47.239610625372734 113.50000000023283,47.366378526581684 112.37951807235368,48.46503198714345 112.37951807235368,49.35240373184206 113.60843373485841,50.49330736673437 122.42771084350534,49.85947241587564 127.56024096393958,48.88759020643192 128.42771084350534,47.78893790722941 128.0301204819698,45.971929401915986 126.51204819278792,45.25357492422336 124.23493975913152,45.21131873832201 119.71686746994965,47.02833070064662 113.39156626514159,47.493146387743764 112.19879518076777,48.97210179679678 113.53614457836375,50.451051734620705 127.34337349398993,49.0143575850816 128.5,47.450890438456554 127.81325301202014,45.71839267484029 124.52409638580866,45.21131873832201 119.42771084350534,47.07058669443359 113.39156626514159,47.40863448480377 113.57228915672749,48.08472920785425 114.25903614447452,47.61991420853883 113.24698795191944,46.774794643511996 113.1385542168282,45.084550153667806 111.90963855432346,44.7887566332065 111.25903614447452,40.73213769891299 109.48795180721208,40.858907663670834 108.4036144579295,40.05603054104722 106.19879518076777,39.633462986705126" stroke="#4dd2ff" stroke-linecap="round" stroke-linejoin="round" stroke-width="0.5"><title>2023-09-09 8.7km</title><desc>1694261593000</desc></polyline><polyline fill="none" points="131.5,38.45347967190901 137.88102893903852,39.823698329157196 138.61897106119432,44.84779994888231 140.00803858530708,44.949296409409726 140.31189710623585,45.710519180458505 140.26848874613643,47.689692736341385 138.87942122202367,49.922596697171684 140.35530546633527,51.44502526219003 157.11093247588724,49.77035357520799 158.4565916401334,48.19717182102613 157.97909967857413,46.16725226349081 156.59003215446137,45.30453385275905 153.725080386037,45.2030374672031 146.51929260464385,47.689692736341385 140.57234726683237,47.79118859622395 138.87942122202367,49.66885813369299 140.4421221865341,51.54652032809099 156.72025723499246,49.82110128796194 158.19614147930406,48.70465036953101 158.5,47.48670095222769 157.63183279754594,45.86276358962641 154.54983922839165,45.00004463177174 146.432475884445,47.63894479829469 140.83279742766172,47.79118859622395 138.9662379422225,49.71960585706984 140.48553054663353,51.54652032809099 156.6768488746602,49.77035357520799 157.84887459827587,49.21212838150677 158.5,47.53744890616508 157.28456591651775,45.659771033213474 154.9839228298515,45.05079284872045 146.47588424454443,47.5881968550093 140.48553054663353,47.84193651803071 138.9228295821231,49.66885813369299 140.48553054663353,51.54652032809099 157.02411575592123,49.87184899512795 158.5,47.48670095222769 157.1543408362195,45.609022880584234 154.33279742766172,45.10154106022674 146.30225080391392,47.689692736341385 140.57234726683237,47.84193651803071 138.9228295821231,49.66885813369299 140.48553054663353,51.49577279778896 157.1543408362195,49.61811040484463 158.41318327980116,48.24791969999205 158.5,47.02996912415256 157.11093247588724,45.659771033213474 154.6366559485905,45.15228926637792 146.6061093248427,47.689692736341385 141.5273311897181,47.74044066891656" stroke="#4dd2ff" stroke-linecap="round" stroke-linejoin="round" stroke-width="0.5"><title>2023-09-07 5.2km</title><desc>1694088262000</desc></polyline><polyline fill="none" points="161.5,38.84333065565443 162.01461245212704,39.72573303847457 166.78335451055318,38.92354913888266 167.881194408983,40.92900570796337 172.34116899617948,41.77129430626519 172.5813214740483,47.34639550332213 174.15946632786654,47.426612189010484 173.0273189325817,49.5523481798009 174.19377382460516,51.036345492262626 187.47077509539668,49.63256439912948 188.4656925033778,48.46942755926284 188.39707750966772,47.426612189010484 187.12770012719557,46.263468587363604 185.78970775101334,45.94260075959028 178.99682337988634,47.98812851376715 174.3310038119089,48.1084533323301 173.0273189325817,49.51224006371922 174.22808132134378,51.036345492262626 184.76048284641,50.153969411418075 187.47077509539668,49.59245629151701 188.32846251595765,48.54964400752215 188.1569250319153,46.985420208162395 186.09847522247583,45.9827092528576 178.825285895844,48.02823679082212 174.3310038119089,48.148561596666696 173.4390088946093,48.830401442799484 173.09593392629176,49.792996786913136 174.1251588310115,50.9962375331379 182.976493011578,50.39461763689178 187.7109275731491,49.432023819041206 188.5,48.1084533323301 187.91677255404647,46.624444569431944 185.37801778921857,45.94260075959028 178.825285895844,48.06834506377345 174.19377382460516,48.148561596666696 172.95870393887162,49.792996786913136 174.1251588310115,51.15666934437468 187.43646759865806,49.63256439912948 188.39707750966772,48.54964400752215 188.1569250319153,46.985420208162395 186.92185514618177,46.18325165595161 184.93202033045236,46.02281774196308 179.0311308768578,48.06834506377345 174.09085133427288,48.22877811276703 173.09593392629176,49.59245629151701 174.09085133427288,50.9962375331379 182.8049555273028,50.474833678192226 187.29923761135433,49.67267250246368 188.32846251595765,48.830401442799484 188.4656925033778,47.58704550942639 187.9510800509015,46.704661407798994 185.13786531146616,46.02281774196308 179.88881829730235,47.82769536291016 174.22808132134378,48.1084533323301 172.99301143584307,49.35180755730835 174.19377382460516,51.036345492262626 187.4021601016866,49.71278060140321 188.4656925033778,48.22877811276703 187.9510800509015,46.704661407798994 185.27509529876988,45.9827092528576 180.06035578157753,47.7875870646385 174.94853875483386,48.06834506377345 174.0222363404464,47.26617880084086 172.51270648033824,47.546937185688876 172.10101651842706,41.85151217060047 170.24841168988496,41.89162109629251 169.35641677246895,41.12955078203231 167.40088945347816,40.84878764874884" stroke="#4dd2ff" stroke-linecap="round" stroke-linejoin="round" stroke-width="0.5"><title>2023-09-06 6.9km</title><desc>1694002969000</desc></polyline><polyline fill="none" points="18.26083467109129,72.34003242122708 18.56420545768924,74.62004284656723 19.82102728751488,74.72137639141874 20.471107544377446,76.49470996094169 18.82423756015487,79.43336257521878 20.514446228276938,81.46000905439723 37.1998394865077,79.68669385366957 38.5,77.96403851985815 37.373194221640006,75.68404400031432 34.38282504025847,74.9747101602261 27.838683788198978,77.30537455031299 20.124398074112833,77.96403851985815 18.954253611620516,79.73736009333516 20.514446228276938,81.3586769339745 31.479133226443082,80.54801919907914 32.86597110773437,80.24402219502372 37.02648475137539,79.53469510268769 37.97993579460308,78.77470062457724 38.32664526486769,76.49470996094169 36.853130016243085,75.43071060650982 33.77608346706256,75.12671035714447 28.012038523331285,77.20404155176948 21.511235955171287,77.66003987711156 20.167736757546663,76.59604310948635 18.34751203865744,76.79870934260543 17.870786516927183,69.65467290073866 15.487158908508718,69.75600749551086 14.056982343550771,68.79332798134419 11.5,68.53999094557366" stroke="#4dd2ff" stroke-linecap="round" stroke-linejoin="round" stroke-width="0.5"><title>2023-09-04 2.5km</title><desc>1693829095000</desc></polyline><polyline fill="none" points="53.0812182740774,78.74540071727824 54.177664974704385,80.14739976960118 62.640862944186665,79.58660077108652 68.05456852808129,78.26471413389663 68.43147208134178,76.5823062909185 67.16370558389463,75.30046673095785 64.6281725888839,75.18029404996196 59.38578680215869,77.06299500822206 54.10913705592975,77.26328179388656 53.0812182740774,78.70534352524555 54.21192893397529,80.06728567782557 61.75000000023283,79.70677205486572 67.74619289347902,78.50505750181037 68.5,77.6237977410783 68.43147208134178,76.42207658311236 66.82106599013787,75.18029404996196 64.59390862949658,75.18029404996196 59.18020304583479,77.02293763848138 53.972081218264066,77.26328179388656 53.04695431469008,78.62522912866552 54.246192893362604,79.90705744334264 63.05203045695089,79.54654366805335 68.08883248746861,78.22465689113596 68.39720812195446,76.5021914455283 67.12944162450731,75.30046673095785 65.10786802042276,75.06012133081094 58.837563451961614,77.10305237374268 54.14340101531707,77.22322444518795 53.04695431469008,78.58517192391446 54.246192893362604,79.987171568966 61.40736040624324,79.58660077108652 67.64340101543348,78.58517192391446 68.5,77.46356847358402 68.22588832490146,75.98144453705754 65.24492385808844,75.06012133081094 58.837563451961614,77.06299500822206 54.10913705592975,77.3033391382778 53.0812182740774,78.62522912866552 54.31472081237007,80.02722862554947 62.53807106614113,79.54654366805335 67.47208121838048,78.6652863289637 68.19162436551414,78.02437061365345 68.2601522844052,76.1016169640352 66.40989847737364,74.98000616353238 64.66243654827122,75.02006374928169 58.871827411232516,76.98288026437513 54.48604060919024,77.10305237374268 53.32106598990504,77.94425607300946 53.218274111743085,79.06585810074466 54.246192893362604,80.06728567782557 56.1307106600143,79.78688622295158 58.494923857972026,79.58660077108652 67.57487309665885,78.54511471494334 68.5,76.90276550356066 67.40355329960585,75.42063937394414 65.48477157368325,74.98000616353238 58.56345177674666,77.10305237374268 54.794416243676096,77.02293763848138 54.07487309642602,76.62236370739993 54.348984771524556,76.22178935303236 52.49873096449301,76.46213401653222 52.22461928939447,70.85405215321225 50.20304568542633,70.89411017508246 49.41497461940162,70.17306513362564 47.564720812253654,69.85260023036972 41.5,71.05434222021722" stroke="#4dd2ff" stroke-linecap="round" stroke-linejoin="round" stroke-width="0.5"><title>2023-09-02 6.2km</title><desc>1693656448000</desc></polyline><polyline fill="none" points="76.421875,69.59524824877735 78.91796875,70.00626148216543 79.69140625023283,70.82828664564295 81.765625,70.7460842076398 82.46875,74.85618482684367 83.8046875,75.14389024322736 83.76953125,77.28112381504616 82.6796875,78.9251416461193 83.9453125,80.28145112414495 97.3046875,78.9251416461193 98.46484375,77.5688274372369 97.8671875,75.92480387180694 95.08984375,75.22609175168327 89.4296875,77.1578221974487 84.015625,77.36332487154868 82.6796875,78.8429409195378 83.83984375,80.36365154656232 97.3046875,78.96624200270162 98.46484375,77.6099279372138 97.90234375,75.84260251108208 95.16015625,75.1849909996381 89.74609375,77.11672164965421 83.875,77.40442539344076 82.6796875,78.9251416461193 83.9453125,80.40475175125175 97.37500000023283,78.9251416461193 98.5,77.692128924391 97.8671875,75.76040113295312 95.01953125023283,75.1849909996381 89.640625,77.1578221974487 83.875,77.36332487154868 82.75,79.00734235512209 84.3671875,79.7882482248533 85.52734375,79.37724533100845 85.84375,78.06203315139282 83.6640625,76.78791711031226 83.62890625,75.22609175168327 82.328125,74.69178163615288 81.73046875,70.86938785816892 76.80859375,69.84185624099337 71.5,71.11599504231708" stroke="#4dd2ff" stroke-linecap="round" stroke-linejoin="round" stroke-width="0.5"><title>2023-08-31 4.0km</title><desc>1693483686000</desc></polyline><polyline fill="none" points="101.84782608691603,68.46835308638401 104.10869565210305,68.62084494461305 105.36956521729007,69.68828659850988 107.80434782616794,69.68828659850988 108.5,74.56798969852389 110.32608695630915,75.33043883510982 110.23913043481298,77.6686086494301 108.80434782593511,79.70179055136396 110.36956521729007,81.48081766426913 127.10869565210305,79.70179055136396 128.5,77.77026794871199 127.7173913042061,75.94039727395284 124.28260869556107,75.12711918356945 117.97826086962596,77.41446030733641 110.36956521729007,77.82109759020386 108.93478260887787,79.49847274806234 110.41304347827099,81.53164691361599 126.93478260864504,79.85427884742967 128.5,77.46528998645954 126.93478260864504,75.43209862869116 124.10869565210305,75.02545932563953 118.28260869556107,77.21114153668168 109.84782608691603,78.17690493070404 108.84782608691603,79.85427884742967 110.45652173901908,81.42998840959626 120.15217391285114,80.87086625260417 127.41304347803816,79.6001316604088 128.36956521729007,77.10948211935465 126.67391304345801,75.43209862869116 123.8478260866832,75.12711918356945 118.6304347824771,77.21114153668168 109.97826086939313,77.97358648263616 108.76086956518702,79.6001316604088 110.36956521729007,81.48081766426913 122.49999999976717,80.61671960292733 127.10869565210305,79.75261998883798 128.15217391285114,78.83768929337384 128.32608695630915,76.7028442347364 126.41304347803816,75.27960893031559 123.28260869556107,75.27960893031559 116.84782608691603,77.6686086494301 110.02173913037404,78.07524571756949 108.84782608691603,79.95593768477556 110.32608695630915,81.48081766426913 119.84782608691603,81.02335417814902 127.45652173901908,79.49847274806234 128.41304347803816,77.21114153668168 126.89130434789695,75.53375840073568 123.41304347827099,75.22877902010805 118.45652173901908,77.3128009327047 110.32608695630915,77.87192722631153 108.7173913042061,79.6001316604088 110.45652173901908,81.53164691361599 126.89130434789695,79.70179055136396 128.28260869556107,78.22773452929687 127.76086956518702,76.19454639521427 123.7173913042061,75.12711918356945 117.45652173901908,77.56694932869868 111.41304347827099,77.6686086494301 110.23913043481298,76.7028442347364 108.15217391308397,76.95699295285158 107.80434782616794,69.73911709422828 101.5,68.57001433058758" stroke="#4dd2ff" stroke-linecap="round" stroke-linejoin="round" stroke-width="0.5"><title>2023-08-27 6.7km</title><desc>1693138023000</desc></polyline><polyline fill="none" points="131.5,68.42596752106328 134.63354531000368,68.97799283827771 135.92130365641788,69.98167358883074 138.11049284576438,69.93148960149847 138.79729729727842,74.4982107084943 140.25675675668754,74.79931165545713 140.60015898244455,75.65242996826419 140.34260731306858,77.76012746302877 139.14069952303544,79.51653489435557 140.6860095388256,81.42348417741596 157.2551669315435,79.6169008371071 158.5,77.45902839372866 156.82591414940543,75.5018797890807 153.34896661364473,75.40151297664852 148.11208267090842,77.45902839372866 140.85771065182053,77.86049377682502 139.4411764703691,78.86415574976127 139.1836248014588,80.01836439574254 140.38553259149194,80.97183898682124 140.29968203487806,81.57403247890761 152.61923688394018,80.52019336642115 157.16931637516245,79.71726675858372 158.1995230524335,78.61324045545189 158.1995230524335,76.45536345042638 155.88155802851543,75.25096271792427 153.22019077884033,75.35132956231246 147.1248012718279,77.70994429799612 140.90063592977822,77.8103106225899 139.3982511924114,78.96452183034853 139.31240063579753,80.06854731673957 140.60015898244455,81.37330139975529 156.78298887098208,79.6670838004502 158.0707472176291,78.71360658909543 158.37122416542843,77.10774590494111 156.35373608884402,75.25096271792427 153.09141494426876,75.30114614276681 147.55405405396596,77.45902839372866 141.45866454695351,77.65976112778299 140.90063592977822,76.75646315628546 138.4538950715214,76.95719618728617 137.98171701095998,69.831121611438 135.96422893484123,70.08204154708073 134.59062003181316,69.02817692619283 132.100953895133,68.62670407432597" stroke="#4dd2ff" stroke-linecap="round" stroke-linejoin="round" stroke-width="0.5"><title>2023-08-24 3.9km</title><desc>1692881200000</desc></polyline><polyline fill="none" points="161.5,71.34446485506487 166.72794117650483,69.9905409848725 169.04411764710676,70.30000973961432 170.1029411763884,71.07368048172793 171.62500000011642,70.9963134812424 172.35294117650483,74.86464347576839 188.5,71.80866617179709 168.84558823530097,75.71567058740766 173.4117647060193,74.90332656927058 173.80882352928165,76.25723226438276 172.45220588240772,78.73293258243939 173.70955882349517,79.97077646144317 186.28308823530097,78.65556720108725 187.30882352928165,77.4950845167914 187.04411764699034,75.98645152608515 185.62132352928165,75.13542504413635 183.93382352939807,75.13542504413635 179.0367647059029,76.91484179484542 173.6102941178251,77.22430469433311 172.4852941178251,78.61688450418296 173.54411764699034,79.93209390365519 185.7867647059029,78.8102979476389 186.84558823518455,78.46215367593686 187.30882352928165,77.68849855315057 186.7132352940971,75.67698757976177 184.03308823530097,75.09674197525601 178.0772058822913,77.06957327734563 173.6102941178251,77.22430469433311 172.4852941178251,78.65556720108725 173.57720588240772,80.00945901515661 186.4485294118058,78.65556720108725 187.37500000011642,76.91484179484542 186.84558823518455,75.7930365903594 184.2977941177087,75.09674197525601 177.8125,77.1469389940903 174.40441176469903,77.10825613772613 173.34558823518455,76.29591521070688 171.2610294118058,76.72142734963563 172.31985294108745,76.45064695479232 171.7242647059029,75.67698757976177 171.59191176469903,71.11236397584435 169.6727941177087,71.30578138545388 168.84558823530097,70.45474401902175 167.09191176481545,70.14527539498522" stroke="#4dd2ff" stroke-linecap="round" stroke-linejoin="round" stroke-width="0.5"><title>2023-08-22 5.1km</title><desc>1692706390000</desc></polyline><polyline fill="none" points="19.232594936620444,109.64492688892642 20.770569620421156,111.29310043185251 37.17563291150145,109.59498214631458 38.45727848098613,108.14658231567591 38.24367088614963,106.5982879322255 35.2531645570416,105.0000432470988 32.13449367089197,105.4495501111378 28.930379746714607,106.99784825873212 20.72784810117446,107.64713306890917 19.14715189882554,109.7448163581139 20.685126582160592,111.34304499489372 36.83386075939052,109.69487162603764 38.37183544319123,108.3463618666865 38.37183544319123,106.64823299148702 36.96202531666495,105.34965973388171 35.0395569622051,104.95009801362175 27.264240506337956,107.39740824737237 20.770569620421156,107.6970780172851 19.360759493662044,108.89575519616483 19.27531645563431,109.8447058062884 20.98417721525766,111.29310043185251 37.261075949296355,109.49509264534572 38.5,108.14658231567591 38.2863924051635,106.54834286757978 36.876582278637215,105.34965973388171 35.08227848098613,104.95009801362175 27.306962025351822,107.39740824737237 20.72784810117446,107.64713306890917 19.14715189882554,109.59498214631458 20.813291139202192,111.34304499489372 36.91930379741825,109.64492688892642 38.5,107.34746326736058 37.04746835445985,105.29971453736653 34.09968354436569,104.95009801362175 28.417721519013867,107.04779327579308 20.685126582160592,107.64713306890917 19.14715189882554,109.59498214631458 20.98417721525766,111.34304499489372 30.46835443051532,110.74370988958981 37.30379746854305,109.49509264534572 38.45727848098613,108.04669250850566 38.2863924051635,106.44845272257226 36.66297468356788,105.14987891595229 34.56962025328539,104.9001527747605 26.79430379741825,107.44735322232009 20.642405063146725,107.6970780172851 19.189873417606577,109.64492688892642 20.770569620421156,111.39298955278355 36.96202531666495,109.69487162603764 38.45727848098613,108.14658231567591 37.645569620188326,105.74922111621709 34.526898734271526,105.04998847527895 28.375,107.1976282952528 20.898734177229926,107.6970780172851 19.232594936620444,109.59498214631458 20.813291139202192,111.34304499489372 37.17563291150145,109.59498214631458 38.4145569622051,108.14658231567591 37.81645569647662,105.94900168088498 34.48417721525766,105.0000432470988 26.068037974648178,107.59718811511993 21.710443038027734,107.54724315615022 20.47151898732409,106.64823299148702 17.395569620188326,107.14768329408253 18.463607594836503,106.64823299148702 18.164556961972266,99.80571068581776 15.985759493662044,100.00549376331037 14.661392405163497,99.10646924958564 11.5,98.60701044724556" stroke="#4dd2ff" stroke-linecap="round" stroke-linejoin="round" stroke-width="0.5"><title>2023-08-19 7.3km</title><desc>1692445251000</desc></polyline><polyline fill="none" points="42.99037227209192,100.68458765209652 46.768292682943866,99.79312761119218 49.229139922885224,99.9552114092221 50.30359435162973,100.88719191783457 52.00192554551177,100.80615022452548 52.521822849754244,104.77717305385158 53.769576379912905,104.97977515650564 54.11617458285764,106.2764260781696 52.86842105258256,108.99127474127454 54.15083440300077,110.16635252931155 67.18292682932224,108.86971476455801 68.46534017962404,107.77567323928815 68.01476251613349,105.87122313634609 65.10333761223592,105.14185676159104 59.62708600773476,107.0463104879309 54.11617458285764,107.28943155927118 52.83376123232301,108.66711471768213 54.04685494210571,110.20687238880782 61.3254172016168,109.80167360120686 67.35622593061998,108.7886747586308 68.5,106.88422968803206 67.52952503215056,105.46601976605598 64.51412066747434,105.1823771521158 59.765725288772956,107.00579029443907 53.838896020432,107.45151218771935 52.83376123232301,108.91023476113332 54.081514762481675,110.16635252931155 61.08279845956713,109.76115369884064 67.52952503215056,108.66711471768213 68.46534017962404,106.88422968803206 67.2869062902173,105.42549940556637 64.27150192542467,105.22289753842051 58.899229781818576,107.16787104282412 54.84403080865741,107.2083912192611 54.185494223376736,106.68162859184667 54.2894736842718,106.7626690431789 53.769576379912905,105.06081596761942 52.45250320923515,104.65561174077448 51.9672657251358,100.88719191783457 50.13029525033198,101.08979607641231 49.19448010274209,100.2793787997216 47.14955070603173,99.99573234797572 41.5,101.25187932618428" stroke="#4dd2ff" stroke-linecap="round" stroke-linejoin="round" stroke-width="0.5"><title>2023-08-17 3.9km</title><desc>1692273588000</desc></polyline><polyline fill="none" points="78.12773454356648,118.5 78.2369419401366,118.44994812386358 78.4358554125065,118.1723866719476 78.8297820930311,117.9903781985704 78.82588182885956,117.91757459544169 78.97799213125836,117.98127775487228 78.86878473467368,117.735565053139 79.13400269781414,117.6855122951456 79.68393994487997,117.40794595286934 79.97645975716296,116.87555963839259 81.22844455369341,116.0837935494419 81.84078602740192,115.8517214400963 82.25031376458355,115.6014462053281 82.6325396526372,115.60599667702263 82.93676025739114,115.53318907251742 84.31355350719241,114.6094319797412 84.98049867918598,113.95869473033235 85.23791611398337,113.59464166100952 85.67084543615056,112.52976889301863 86.34169087230111,111.44211544423888 86.89162811939605,110.29072035663557 87.18414793166448,109.82651289984278 87.68728200878832,108.56584600879796 88.17871529339754,107.71931265408057 88.29572321832529,107.18680739839692 88.10851053845545,107.12308838269746 87.37136061153433,107.63283788641274 86.63811094875564,108.59770446827315 86.54060434465646,108.85712248127675 86.48210038221441,108.86622483951942 86.46649932554283,108.79795710615144 86.60690883544157,108.25181137002801 87.05933947843732,107.53726031094993 87.16074634669349,107.10943429572944 87.68338174461678,106.28107830894442 89.02507261693245,104.73810930185573 89.14208054184564,104.25563574576881 89.38779718415753,103.96888005032088 89.41509903330007,103.8732943969735 89.30199137254385,103.81412222022482 89.52040616571321,103.33163838001565 89.66081567561196,103.2724654638696 89.84412809129572,103.39536296860024 90.09764526193612,103.09494623076534 90.07814394112211,102.98570326444678 90.20295239436382,102.73990558353762 90.19515186604986,102.5077620495249 90.59297881073144,101.90691418797724 90.71778726397315,101.56096770139266 90.6826848865021,101.30150602438152 90.76849069808668,101.03293879289413 90.79579254725832,100.50035139445754 90.62418092403095,99.59448258105476 90.67878462233057,99.30769604570014 90.66708382983052,99.46246996719128 90.73338832061563,99.51254376461293 90.7879920189007,99.32590477103076 90.7528896414442,99.13016057270943 90.74118884894415,99.1802347541161 90.6475825090165,99.1529215714254 90.7645904339297,99.18933914451918 90.78019149058673,99.13016057270943 90.71778726397315,99.1392649736299 90.67488435817359,98.76598296730663 90.59687907488842,98.64762458659607 90.74118884894415,98.28344292596739 90.76849069808668,98.02851394242316 90.78019149058673,98.07403708519996 90.8815983588429,97.96478146218942 90.87769809467136,98.02396162550576 90.89329915134294,97.88283956416126 90.97130443461356,97.92836285998055 90.91280047214241,97.94201983939638 90.97130443461356,97.89194422716537 90.78019149058673,97.75082173586998 90.80749333972926,97.67343178744704 90.85429650970036,97.70529825353515 90.79189228307223,97.70529825353515 90.83869545304333,97.50954673452725 90.70218620731612,97.37752776890193 90.56957722574589,96.8995247010389 90.61638039571699,95.74774326641636 90.92060100048548,95.09217019941207 90.97130443461356,94.77348526422793 90.92840152881399,94.22261006214467 90.78019149058673,93.93123522205497 90.73338832061563,93.26652903317881 90.78019149058673,93.07986313216315 90.9167007363285,93.07986313216315 90.99860628375609,92.93872496566473 90.95570337794197,92.82490352870082 91.00250654791307,92.75661052295618 91.30672715269611,92.58360109321438 91.56024432332197,92.3377443991194 91.87226545643352,91.5 91.80206070147688,91.60471893597787 91.76695832399128,91.57284798225737 91.75915779567731,91.58195397142481 91.79426017314836,91.66390778778805 91.52124168169394,92.3696147900373 91.552443795008,92.58815398179286 91.23652239773946,93.18913107426852 91.47833877587982,95.11038069633287 91.44323639842332,95.31524825926317 91.25602371856803,95.58840350291212 91.1819186994544,96.17568144519828 91.41593454926624,97.14535550883375 91.35353032265266,97.23185120210474 91.49003956837987,97.52775621546243 91.45103692675184,97.85552556372932 91.17801843526831,98.63852008238246 91.17801843526831,98.99814654437068 91.0883123595122,99.3213525904066 91.1819186994544,99.58082612241196 91.26772451105353,100.47303904375076 91.1468163219688,100.79168206429313 90.98300522709906,100.8508583673065 90.82699466055783,101.13763469122205 90.7528896414442,101.1239787188315 90.72558779230167,101.56096770139266 90.44866903667571,102.1754760040094 90.19905213019229,102.48045096378337 90.20685265853535,102.71714646851251 89.30589163671539,103.76405339219127 89.25518820257275,103.8732943969735 89.4658024674136,103.99163850815967 89.2083850326162,103.90970800404466 89.14988107017416,104.04625875817874 78.56846439406218,118.09958337421995" stroke="#4dd2ff" stroke-linecap="round" stroke-linejoin="round" stroke-width="0.5"><title>2023-08-15 13.0km</title><desc>1692056055000</desc></polyline><polyline fill="none" points="117.91485819238005,91.5935391522271 117.90050433565193,91.64390622803694 117.94971755873121,91.65110151544468 117.93126260007557,91.66789051049273 117.90050433565193,91.59114071725344 117.93126260007557,91.55756260093585 117.90050433565193,91.58394541079906 117.78157237986306,91.5 117.7733701760153,91.75423371702527 117.65033711829165,91.82138931679583 117.67084262791468,91.87895110097452 117.75286466639227,91.92691914271563 117.67904483175516,91.93411434021618 117.71390419810632,91.91492714180458 117.75491521735239,91.9604967114974 112.1897199066807,105.98197825886746 112.19382100860821,105.84535380331363 112.25943863939028,105.80700293106383 112.18766935572057,105.87891076335109 112.21022541630373,105.95081836773898 112.05028244126879,106.14976155245859 112.18561880475318,106.26481223670817 112.31070241343696,106.47094325376383 112.33530902498023,106.62194501979138 112.37426949325891,106.6578976731198 112.4419376750011,107.16841920297338 112.43168492018594,107.71008676601559 112.63674001637992,108.47463092538055 112.8992105395082,109.24154590018588 113.1206700433977,109.77357794045929 113.30932073189615,110.64589177987727 113.64356053869415,111.71706649523185 114.09263119935349,112.22268174545025 114.23616976667836,112.24664427407697 114.5211963503898,112.39281515108269 114.5622073696286,112.49585307273082 114.55400516578811,112.42396619995998 114.46378092345549,112.34968285900868 114.58886453213927,112.38323020436837 114.61962279657018,112.68515408231542 114.71189758985565,112.76902111376148 115.01127803029522,112.91039626560632 115.08714841589244,112.85528402295677 115.22453533032967,112.87205732835719 115.160968250515,113.07093986231303 115.26349579860835,113.21710543343579 115.27579910438362,113.41119268862349 115.44804538518656,113.50464151619599 115.42959042652365,113.60288217671587 115.36397279574157,113.63882377560549 115.21018147360883,113.60048606810415 115.15481659762736,113.71789509294103 115.160968250515,113.86405650019879 115.01742968318285,114.00063270274404 115.05844070242165,114.08449487626604 115.03178353991098,114.33607953889805 115.08304731396493,114.37920805838257 115.20608037168131,114.38879216270288 115.27784965534374,114.66433343238714 115.42343877363601,114.74819315532841 115.35782114286121,114.79850884048392 115.27784965534374,114.78652892555147 115.21838367744203,114.82965658972171 115.35987169382133,115.1291519986662 115.38037720344437,115.24655312157302 115.3127090216949,115.6802132336943 115.13431108800432,116.03001038587354 115.23888918707235,116.89489665989822 115.22453533032967,117.33810816808545 115.11790668031608,117.56330421646453 114.75906026198209,117.84599396876183 114.71599869176862,117.92984194780729 114.80622293410124,118.25085706478421 114.79186907736585,118.5" stroke="#4dd2ff" stroke-linecap="round" stroke-linejoin="round" stroke-width="0.5"><title>2023-08-14 8.0km</title><desc>1691992321000</desc></polyline><polyline fill="none" points="134.88585209008306,100.54513801500434 134.3938906751573,100.03889497675118 134.48070739547256,100.37639042403316 133.90192926034797,100.30889136277256 132.88906752411276,99.76889836456394 131.5,99.83639753877651 132.45498392276932,100.84888345620129 131.96302250795998,100.9501318729308 135.11736334406305,102.84009648003848 137.17202572338283,102.7725979349052 138.18488745985087,103.7850746268814 139.71864951762836,103.48133195322589 140.49999999988358,104.66255185339833 141.65755627001636,104.66255185339833 143.8569131832337,105.74252054435783 145.5064308681758,105.97876321314834 145.88263665593695,107.15997395888553 146.83762057882268,107.90244706868543 148.60289389069658,107.93619580572704 148.74758842447773,108.57742113867425 148.74758842447773,108.03744199580979 153.0305466238642,107.63245704490691 154.6800643086899,109.04990214644931 156.01125401933677,108.57742113867425 158.5,110.23110163540696" stroke="#4dd2ff" stroke-linecap="round" stroke-linejoin="round" stroke-width="0.5"><title>2023-08-12 1.2km</title><desc>1691805906000</desc></polyline><polyline fill="none" points="161.5,100.81567076049396 162.26447876438033,100.89692102116533 167.02509652497247,99.6781653087528 168.93629343633074,99.96254198730458 169.9787644785829,100.77504562379909 171.78571428568102,100.81567076049396 172.37644787633326,104.71566389355576 173.59266409266274,104.87816274852958 174.07915057917126,106.13752654570271 172.6544401543215,108.77811465901323 173.94015444000252,110.3218346912472 187.45752895751502,108.69686606439063 188.3262548261555,107.84375478513539 188.25675675668754,106.34064935246715 187.04054054047447,105.32503424567403 185.19884169881698,105.0812862207822 178.94401544402353,107.15313950553536 173.9749034747947,107.2750128803309 172.68918918911368,108.45312017787364 172.75868725858163,109.22498162169359 174.1486486485228,110.19996228264063 181.86293436295819,109.75309645337984 187.31853281857911,108.77811465901323 188.46525096532423,107.19376396804 188.01351351337507,105.93440363180707 186.41505791503005,105.16253557961318 184.08687258686405,105.2437849213311 179.18725868710317,107.07189056748757 173.80115830118302,107.31563732994255 172.6544401543215,108.6562417607347 173.90540540532675,110.15933813771699 185.72007721988484,109.14373312165844 188.1177606176352,108.16874978150008 188.5,106.95001712816884 188.04826254816726,105.97502822309616 185.37258687242866,105.04066153493477 178.87451737443916,107.11251503860694 173.73166023148224,107.31563732994255 172.58494208485354,108.77811465901323 173.9749034747947,110.1187139886315 187.35328185325488,108.77811465901323 188.46525096532423,107.43751065334072 187.4922779921908,105.52815748180728 184.95559845550451,105.04066153493477 179.46525096520782,106.95001712816884 174.63513513514772,107.11251503860694 173.66216216201428,106.70627013375633 173.6274131273385,105.0812862207822 172.3416988416575,104.67503916911664 171.75096525088884,100.85629589308519 166.6776061776327,99.84066629374865" stroke="#4dd2ff" stroke-linecap="round" stroke-linejoin="round" stroke-width="0.5"><title>2023-08-10 4.9km</title><desc>1691669419000</desc></polyline><polyline fill="none" points="11.5,128.54573442263063 14.562300319550559,128.94913130850182 15.94249201263301,129.9071975450497 18.01277955272235,129.85677305428544 18.573482427978888,134.64707588235615 20.126198082929477,134.8991957513208 20.600638977484778,136.15979309761315 19.00479233218357,139.94156515039504 20.51437699678354,141.3534190314822 37.206070287385955,139.689447946148 38.5,138.12631830654573 37.680511181708425,136.00852159204078 33.32428115000948,135.25216334409197 26.682108626235276,137.6220818462316 20.255591054214165,137.82377649427508 18.96166134183295,139.7398713977018 20.42811501584947,141.3534190314822 37.07667731610127,139.7902948439296 38.37060702871531,138.47928351158043 38.32747603813186,136.7144548748911 36.47284345026128,135.3530111797445 34.57507987204008,135.15131548707723 26.337060702964664,137.7229291809199 20.298722044797614,137.8742001428909 18.832268370781094,139.5886010271497 20.55750798736699,141.45426557734027 37.11980830668472,139.7398713977018 38.45686900941655,137.92462378635537 37.637380191357806,136.00852159204078 33.798722044564784,135.20173941823305 27.760383386397734,137.4203871130303 20.42811501584947,137.82377649427508 19.00479233218357,139.28606014238903 20.083067092578858,140.74833930830937 22.110223642084748,140.49622253046255 23.05910543119535,139.48775408696383 20.384984025498852,136.7144548748911 15.381789137376472,137.67250551629695 18.271565495058894,136.86572615653859 17.883386581437662,130.00804651077488 15.899361022282392,130.10889545510872 11.801916932919994,128.64658367607626" stroke="#4dd2ff" stroke-linecap="round" stroke-linejoin="round" stroke-width="0.5"><title>2023-08-08 4.2km</title><desc>1691495320000</desc></polyline><polyline fill="none" points="41.5,131.09016675277962 46.61284046713263,129.69816178968176 48.92412451375276,130.06663417856907 50.079766537062824,130.885460454243 51.6206225680653,130.72169533753186 52.180933852214366,136.45343322283588 53.651750972960144,136.33061115749297 52.60116731515154,138.62328328963486 53.68677042820491,140.2608979330107 67.27431906643324,138.86892592752702 68.32490272400901,137.7225922847574 68.11478599230759,136.12590762850596 66.64396887179464,135.18427000232623 64.5428015566431,135.06144753450644 59.88521400792524,136.90378046274418 53.82684824918397,137.2722459968354 52.60116731515154,138.5004619123938 52.7762645916082,139.36021073590382 54.14202334638685,140.30183821034734 67.30933852144517,138.82798549864674 68.5,136.98566172283608 67.7996108951047,135.67555948419613 64.92801556433551,135.0205067032366 59.95525291841477,136.90378046274418 54.00194552540779,137.19036479730858 52.60116731515154,138.78704506563372 53.79182879370637,140.30183821034734 67.30933852144517,138.82798549864674 68.28988326853141,137.7225922847574 68.21984435804188,136.24872975889593 66.92412451375276,135.2252108163666 64.89299610909075,134.9795658676594 59.95525291841477,136.9447210948565 53.93190661491826,137.19036479730858 52.7762645916082,138.13199754655943 52.6712062258739,139.19644920239807 53.82684824918397,140.2199576513085 67.13424124545418,138.95080677221995 68.35992217902094,137.80447337171063 68.35992217902094,136.53531457812642 67.30933852144517,135.38897402884322 65.6284046692308,134.93862502777483 59.88521400792524,136.86283982626628 53.721789883449674,137.23130539915292 52.56614785990678,138.58234283485217 53.75680933869444,140.30183821034734 61.04085603123531,139.85149492122582 67.4143968874123,138.78704506563372 68.28988326853141,137.76353283034405 68.18482490279712,136.08496690978063 67.23929961095564,135.307092431176 65.27821011678316,134.93862502777483 59.21984435804188,137.10848358049407 53.75680933869444,137.3131865900359 52.70622568088584,139.0326875996834 54.14202334638685,140.2199576513085 67.34435797668993,138.82798549864674 68.4299610897433,137.35412717904546 67.76459143962711,135.63461871788604 64.99805447482504,135.0205067032366 60.09533073939383,136.86283982626628 53.82684824918397,137.2722459968354 52.6712062258739,138.62328328963486 53.54669260722585,139.64679325302131 55.297665369696915,139.36021073590382 55.963035019580275,138.13199754655943 53.441634241491556,136.8218991853646 53.68677042820491,136.24872975889593 52.1459143969696,136.53531457812642 51.76070038927719,130.80357790464768 49.799610894871876,130.96734298663796 48.889105058507994,130.06663417856907 46.75291828811169,129.73910318349954 42.37548638158478,130.92640172265237" stroke="#4dd2ff" stroke-linecap="round" stroke-linejoin="round" stroke-width="0.5"><title>2023-08-05 7.1km</title><desc>1691194711000</desc></polyline><polyline fill="none" points="71.84951456310228,128.4366474499402 74.42718446603976,128.79418888877262 75.47572815534659,129.76465717487736 77.79126213607378,129.81573439901695 78.53398058237508,134.71912278688978 79.93203883501701,134.8212761824543 80.45631067967042,136.60895711096236 78.75242718448862,139.9799945819541 80.41262135910802,141.5633525500889 97.23300970881246,139.72461377867148 98.5,137.63048610059195 97.18932038848288,135.63850257039303 93.60679611656815,135.17881289726938 88.01456310669892,137.37510405562352 80.32524271844886,137.8347916394123 78.75242718448862,139.67353760174592 80.28155339788646,141.5633525500889 97.10194174782373,139.72461377867148 98.36893203901127,138.60093664069427 98.23786407778971,136.60895711096236 96.7961165048182,135.4852727278776 94.17475728178397,135.0766595772002 86.44174757297151,137.68156249346794 80.32524271844886,137.8347916394123 78.88349514594302,139.2649279924808 79.01456310693175,140.3375274798309 81.24271844676696,141.51227656757692 97.10194174782373,139.72461377867148 98.36893203901127,138.44770773753407 98.19417475746013,136.45572757616173 96.83980582538061,135.38311947256443 94.48058252432384,135.02558290903107 86.52912621363066,137.63048610059195 80.15048543689772,137.8858680105477 78.75242718448862,139.9799945819541 80.63106796098873,141.5633525500889 96.92718446627259,139.82676611607894 98.32524271844886,138.4987840440008 98.28155339811929,136.7111101069895 95.2233009710908,135.02558290903107 85.26213592221029,137.78371526268893 81.15533980587497,137.68156249346794 80.10679611656815,136.66003361169714 76.6116504855454,137.3240276305005 78.09708737861365,136.7111101069895 77.61650485452265,129.76465717487736 75.65048543689772,129.91788883131812 74.1213592234999,128.89634353699512 71.5,128.48772481450578" stroke="#4dd2ff" stroke-linecap="round" stroke-linejoin="round" stroke-width="0.5"><title>2023-08-03 4.9km</title><desc>1691062783000</desc></polyline><polyline fill="none" points="101.5,128.30587177330744 102.68923327908851,129.02678726270096 104.01060358900577,128.82081151756574 104.89151712902822,129.7991955319303 107.53425774886273,129.59322011328186 108.0628058728762,136.6993217317504 110.00081566069275,136.9052941458358 108.63539967359975,139.8918843654974 110.17699836869724,141.59114304266404 126.42985318112187,139.8918843654974 128.1035889070481,138.91352062040824 128.41190864611417,137.67768992346828 127.97145187598653,136.28737664190703 124.84420880908147,135.15452584941522 116.16721044038422,137.8321689319855 110.08890701457858,137.9351549105195 108.63539967359975,139.9433771398326 110.1329526915215,141.53965044260258 119.03017944539897,141.0762167967623 127.53099510609172,139.6344204125635 128.5,137.8321689319855 127.97145187598653,136.28737664190703 124.35970636224374,135.20601912442362 116.78384991828352,137.67768992346828 110.22104404587299,138.0381408672547 108.503262642771,139.68591321411077 110.17699836869724,141.69412822666345 127.09053833619691,139.8918843654974 128.5,138.34709860687144 128.1035889070481,136.49334923029528 126.56199021195062,135.46348541765474 124.13947797729634,135.20601912442362 115.81484502460808,137.88366192387184 110.08890701457858,138.0381408672547 108.59135399665684,139.9433771398326 110.1329526915215,141.59114304266404 117.09216965758242,140.87024614596157 115.0660685156472,138.19261976145208 109.82463295292109,137.21425260370597 109.86867862963118,135.30900565805496 108.19494290370494,134.63959280023118 107.53425774886273,129.7991955319303 104.89151712902822,129.90218320852728 104.09869494312443,128.97529333466082 101.5,128.61483568511903" stroke="#4dd2ff" stroke-linecap="round" stroke-linejoin="round" stroke-width="0.5"><title>2023-08-01 4.2km</title><desc>1690892153000</desc></polyline><polyline fill="none" points="157.45180722884834,138.84533171131625 158.3915662651416,137.83119123466895 158.1385542168282,136.0986953022075 156.87349397595972,135.29582878763904 154.7771084336564,135.16906024320633 148.41566265071742,137.19735213025706 143.46385542163625,137.40863194334088 142.23493975913152,138.88758750873967 143.46385542163625,140.32428196180263 151.19879518076777,139.81721392075997 157.56024096393958,138.71856429241598 158.5,137.2396081018669 157.81325301202014,135.76064643997233 155.17469879519194,135.08454785789945 148.81325301202014,137.1128401737369 143.3915662651416,137.324120031466 142.23493975913152,139.01435487400158 143.6084337348584,140.32428196180263 157.01807228918187,138.97209908996592 158.3915662651416,137.6199116447533 157.92168674711138,135.8451586822921 155.06626506033354,135.1268040527939 150.18674698797986,136.85930419701617 144.25903614447452,137.2396081018669 143.28313253028318,136.39448782219552 141.54819277115166,136.47899993043393 141.29518072283827,130.73213586313068 139.48795180721208,130.85890581452986 138.58433734928258,129.92925857086084 136.19879518076777,129.67571803822648 131.5,130.90116245602258" stroke="#4dd2ff" stroke-linecap="round" stroke-linejoin="round" stroke-width="0.5"><title>2023-07-30 3.2km</title><desc>1690716823000</desc></polyline><polyline fill="none" points="161.7765685019549,129.52354323898908 161.5,130.93814380999538 162.08770806668326,130.4127213516913 162.43341869406868,131.0189779701468 163.36683738790452,130.93814380999538 167.34250960312784,129.96813255370944 169.3476312420098,130.2510527576087 170.350192061509,131.18064623943064 172.04417413566262,131.05939504384878 172.5281690141419,134.89899756675004 173.9801536493469,135.30316401048913 173.9801536493469,137.4452390303777 172.90845070430078,139.02147524917382 174.153008962865,140.43604068265995 187.4282970551867,138.9810590170091 188.43085787456948,137.8494027828565 187.94686299620662,136.11149561638013 185.38860435341485,135.3435806313937 179.78809218958486,137.20274057378992 174.153008962865,137.48565542476717 172.8738796415273,139.02147524917382 174.08386683743447,140.43604068265995 187.32458386698272,138.9810590170091 188.46542893734295,137.64732096006628 188.01600512163714,136.11149561638013 185.3540332907578,135.3435806313937 178.99295774661005,137.40482263168087 174.08386683743447,137.526071815053 172.8047375160968,139.02147524917382 174.18758002575487,140.47645676101092 187.4282970551867,138.9810590170091 188.5,137.16232414953993 187.94686299620662,136.07107907673344 185.76888604357373,135.3435806313937 179.89180537778884,137.20274057378992 173.84186939825304,137.56648820091505 172.8738796415273,139.02147524917382 174.153008962865,140.3552085130941 183.8329065302387,139.58730205043685 187.6011523688212,138.81939404568402 188.5,137.28357340977527 187.73943661968224,135.90941287516034 184.38604353391565,135.42441386033897 179.23495518579148,137.3239898213942 174.8790012805257,137.3239898213942 173.91101152356714,136.55607727140887 172.38988476316445,136.6369102439494 171.9750320102321,131.14022917859256 166.96222791296896,130.04896691913018 162.7791293214541,131.22106329607777" stroke="#4dd2ff" stroke-linecap="round" stroke-linejoin="round" stroke-width="0.5"><title>2023-07-29 4.9km</title><desc>1690631888000</desc></polyline><polyline fill="none" points="11.5,158.446595426758 11.556549057539087,158.46185572167815 11.921942967630457,158.61445840439774 13.100773320446024,159.40289788251175 13.179072015482234,159.43341786045494 13.279120348015567,159.35711787928085 13.54881585307885,159.51989102606967 13.683663605595939,159.51480437357168 35.08530691155465,170.40918052074994 35.816094731737394,170.21593110580943 36.081440309324535,170.2718718057513 36.224987916852115,170.37866750683315 36.446834219415905,170.36341099261335 36.50338327695499,170.85161704782513 36.677380376990186,170.88212976177965 36.703479941992555,171.0397784756533 36.54688255194924,171.38558674839442 36.703479941992555,171.55340457323837 38.36515224745381,171.365245154102 38.5,171.19742667296669 38.452150797471404,171.0092658616668 38.134606089879526,170.89738611150096 37.299420009658206,171.15674331665286 36.64693088448257,171.19234125531148 36.5338327694335,171.38050135062804 36.69043015950592,171.53814843152213 37.57781536973198,171.48729459090464 38.36950217495905,171.3601597541783 38.491300144960405,171.11605992594195 38.27815369743621,170.92281335030202 38.02150797485956,170.9075570086352 37.30376993716345,171.16691415895184 36.69913001448731,171.16691415895184 36.52948284192826,171.37541595231596 36.69913001448731,171.54323381264112 38.35645239247242,171.37033055346546 38.495650072494755,171.16182873808066 38.39560173996142,170.96858234624597 38.051957467367174,170.9075570086352 37.50821652970626,171.12114535166984 36.68608023200068,171.16691415895184 36.5338327694335,171.3601597541783 36.659980666969204,171.48220920389213 36.86877718701726,171.44152608836885 36.94707588205347,171.3194765354674 36.668680521979695,171.06012020755952 36.46858385691303,171.08554736034057 36.412034799403045,170.37358200264134 36.20323827935499,170.39392401620717 36.07709038181929,170.28204283511877 35.80304494925076,170.25152974056618" stroke="#4dd2ff" stroke-linecap="round" stroke-linejoin="round" stroke-width="0.5"><title>2023-07-27 4.7km</title><desc>1690456073000</desc></polyline><polyline fill="none" points="41.5,160.47201285569463 45.59655172401108,159.33999857012532 47.831034482689574,159.81892807062832 48.87379310326651,160.7332464796491 50.69862068933435,160.64616862346884 51.2572413792368,165.00003888685023 52.56068965513259,164.8694234485738 52.8958620687481,165.39188495327835 52.82137931021862,167.30757146759424 51.74137931037694,169.17971104406752 53.0448275860399,170.66000142987468 67.38275862042792,169.1361730111821 68.42551724100485,167.78649170399876 68.16482758615166,166.3061909918324 66.8241379307583,165.34834651989513 64.7386206893716,165.21773119198042 57.99793103453703,167.39464791567298 52.67241379292682,167.56880075644585 51.629655172349885,169.17971104406752 52.933103448012844,170.66000142987468 67.15931034460664,169.17971104406752 68.5,167.6123389552231 67.79241379280575,165.82726903425646 64.62689655157737,165.08711582273827 58.10965517233126,167.30757146759424 53.1937931033317,167.3511096938746 51.55517241358757,169.09263497349457 53.00758620677516,170.5729256720224 67.23379310313612,169.1361730111821 68.46275862050243,167.3511096938746 67.9041379308328,165.95788416889263 65.37172413780354,165.0435773571371 58.556551723973826,167.1769567609008 53.0448275860399,167.39464791567298 51.59241379308514,169.00555888435338 53.00758620677516,170.61646355318953 67.15931034460664,169.09263497349457 68.46275862050243,167.52526255318662 67.68068965477869,165.74019225483062 64.77586206886917,165.08711582273827 58.25862068939023,167.30757146759424 53.789655172266066,167.3511096938746 52.70965517219156,166.4803442930861 50.996551723917946,166.61095922038658 50.624137930804864,160.64616862346884 48.91103448253125,160.7332464796491 45.373103448189795,159.51415481654112" stroke="#4dd2ff" stroke-linecap="round" stroke-linejoin="round" stroke-width="0.5"><title>2023-07-25 4.8km</title><desc>1690287553000</desc></polyline><polyline fill="none" points="71.93062200956047,158.455341249326 74.7296650717035,159.00912735436577 75.46172248804942,159.86497734091245 78.00239234464243,159.86497734091245 78.56220095674507,165.05038849113043 80.24162679398432,164.94970143327373 80.62918660277501,166.20828812464606 78.99282296630554,169.73231316712918 80.62918660277501,171.49431591079338 96.82057416276075,169.83299921368598 98.37081339722499,168.3227062789956 97.8540669856593,166.15794472076232 94.40909090894274,165.1510755274212 87.43301435397007,167.51721475544036 80.37081339722499,168.0206471173151 79.03588516730815,169.68197013574536 80.45693779899739,171.44397306576138 90.18899521511048,170.8902014187188 97.20813397108577,169.73231316712918 98.41387559799477,167.41652821938624 96.69138755975291,165.50347998715006 93.33253588527441,165.35244953638176 86.61483253585175,167.7689310029673 80.45693779899739,167.91996068751905 79.03588516730815,169.68197013574536 80.58612440200523,171.49431591079338 96.94976076553576,169.83299921368598 98.5,167.51721475544036 97.25119617232122,165.75519729891676 95.05502392328344,165.20141903767944 88.42344497609884,167.31584166176617 80.84449760732241,167.8696174645156 78.99282296630554,169.8833422290918 80.54306220100261,171.544658750674 97.16507177031599,169.73231316712918 98.32775119598955,168.47373578799306 98.28468899521977,166.8124085550662 96.82057416276075,165.5538234602136 94.45215311017819,165.20141903767944 85.96889952151105,167.819274236419 80.49999999976717,167.8696174645156 79.03588516730815,169.3295687675709 79.2081339713186,170.38677209004527 80.49999999976717,171.49431591079338 96.94976076553576,169.782656193187 98.32775119598955,168.3227062789956 98.11244019144215,166.40966168660088 96.088516746182,165.25176254258258 93.5047846888192,165.30210604215972 91.35167464101687,166.1076013117272 87.82057416276075,167.5675580156676 81.2320574161131,167.66824451996945 80.37081339722499,166.7620652152109 78.51913875597529,166.91309521903167 78.00239234464243,159.96566547369002 75.54784689005464,160.06635358490166 74.42822966515087,159.16015981667442 71.5,158.70706228594645" stroke="#4dd2ff" stroke-linecap="round" stroke-linejoin="round" stroke-width="0.5"><title>2023-07-22 5.7km</title><desc>1690027086000</desc></polyline><polyline fill="none" points="106.6814621409867,159.60174038336845 108.90208877273835,160.01382675833884 109.71279373345897,160.79678967085783 111.75718015665188,160.71437259635422 112.39164490858093,164.83520498438156 113.51958224526607,164.91762118783663 113.90731070493348,166.1950701138121 112.5678851173725,169.1620321138471 113.87206266308203,170.35705209625303 127.23107049590908,168.95599381564534 128.4295039162971,167.63734612840926 127.83028720621951,165.82419827612466 124.93994778068736,165.24728582749958 119.15926892939024,167.1840599559073 113.6253263708204,167.47251485392917 112.53263707552105,168.91478614287917 113.80156657961197,170.35705209625303 121.09791122702882,169.94497665404924 127.44255874678493,168.91478614287917 128.4295039162971,167.0604363628663 128.11227154033259,166.1950701138121 126.77284595300443,165.4121180428192 124.83420365536585,165.16486969368998 118.6305483027827,167.3076835098327 113.80156657961197,167.34889135236153 112.49738903390244,168.91478614287917 113.83681462123059,170.39825961663155 127.44255874678493,168.91478614287917 128.5,167.3076835098327 127.86553524807096,165.86540627558134 124.93994778068736,165.0824535425636 119.37075718003325,167.10164423150127 113.6253263708204,167.43130702446797 113.69582245429046,167.96700846837484 114.47127937339246,167.84338512361865 114.43603133154102,167.34889135236153 113.59007832896896,167.5137226791412 112.5678851173725,168.8323707843665 113.73107049590908,169.86256151332054 115.24673629226163,169.53290077619022 115.8812010444235,168.42029373065452 113.87206266308203,166.81318905911758 113.30809399485588,165.0000373738294 112.0744125326164,164.71158064639894 111.68668407318182,160.92041525023524 109.95953002618626,161.04404079029337 108.65535248047672,160.09624398118467 106.46997389034368,159.84899226066773 101.5,161.16766629109043" stroke="#4dd2ff" stroke-linecap="round" stroke-linejoin="round" stroke-width="0.5"><title>2023-07-20 4.1km</title><desc>1689854520000</desc></polyline><polyline fill="none" points="131.5,158.4323625586403 134.24354838719591,158.9414884132275 135.68064516130835,159.95973850766313 137.50967741943896,159.70517618584563 138.29354838724248,162.70900301050278 137.814516129205,165.25460429905797 138.25000000023283,166.93469377970905 140.16612903238274,166.83287034157547 138.72903225803748,169.73482989156037 140.4274193549063,171.5167262145842 157.06290322588757,169.83665271603968 158.5,167.5456339561497 156.97580645163544,165.56007554958342 154.01451612915844,165.10186860110844 146.65483870962635,167.69836887912243 139.90483870985918,168.20748493933934 138.77258064527996,169.73482989156037 140.38387096789666,171.5167262145842 149.87741935485974,171.00761365212384 157.237096774159,169.83665271603968 158.45645161275752,167.3419873167877 157.01935483864509,165.56007554958342 153.97096774191596,165.20369240513537 148.57096774177626,167.24016396480147 140.2967741934117,167.95292697648983 138.77258064527996,169.78574130660854 140.38387096789666,171.5676374413597 156.84516129037365,169.83665271603968 158.41290322551504,167.8511037536082 157.41129032243043,165.86554660645197 154.14516129042022,165.10186860110844 146.39354838710278,167.596545602486 140.81935483869165,167.69836887912243 138.77258064527996,169.37844983587274 140.34032258065417,171.5167262145842 156.80161290313117,169.78574130660854 158.36935483873822,168.003838579898 157.10645161289722,165.66189925686922 153.53548387088813,165.25460429905797 146.262903225841,167.64745724355453 141.16774193570018,167.69836887912243 140.1225806453731,166.68013514429913 138.11935483873822,166.98560549068497 137.5967741936911,159.95973850766313 135.15806451626122,159.95973850766313 134.20000000018626,159.04331351947621 131.5,158.5851003714779" stroke="#4dd2ff" stroke-linecap="round" stroke-linejoin="round" stroke-width="0.5"><title>2023-07-18 4.8km</title><desc>1689684415000</desc></polyline><polyline fill="none" points="188.34187408490106,155.34058601618744 188.5,161.48757842215127 185.69326500734314,162.6430184726778 166.3623718887102,166.38662326149642 166.9948755488731,174.5669814326393 165.05783308926038,174.65941398384166 163.75329428981058,173.64265484616044 161.5,173.41157289405237" stroke="#4dd2ff" stroke-linecap="round" stroke-linejoin="round" stroke-width="0.5"><title>2023-07-16 1.2km</title><desc>1689509495000</desc></polyline><polyline fill="none" points="11.5,190.6218654458644 15.993910690303892,189.46858286854695 18.40527740190737,189.98115330911241 18.989851150196046,190.6218654458644 21.035859269089997,190.57915133488132 21.5838971582707,194.63697170495288 23.045331529108807,194.9359673835279 23.410690121818334,196.260088443727 22.022327469661832,199.16459686335293 23.447225980926305,200.53141713148216 37.1481732071843,199.1218836554326 38.4634641406592,197.79777197225485 37.87889039237052,195.91838019841816 35.13870094716549,195.10682195762638 28.781461434438825,197.19978462861036 23.228010825347155,197.3706382456876 21.876184032298625,199.16459686335293 23.33761840313673,200.48870406812057 37.33085250342265,199.036457226146 38.4634641406592,197.79777197225485 38.20771312573925,196.13194788558758 35.248308524955064,195.10682195762638 29.658322056988254,197.11435779300518 23.228010825347155,197.45606502710143 22.168470906559378,198.39575843096827 22.095399188110605,199.29273645984358 23.374154262477532,200.48870406812057 30.90054127201438,200.1469993982464 37.257780784741044,199.036457226146 38.390392422210425,197.92591200215975 38.31732070352882,196.47365595030715 36.96549391071312,195.40581728855614 35.248308524955064,195.10682195762638 28.525710419518873,197.28521144617116 23.11840324755758,197.49877841109992 21.98579161032103,199.036457226146 23.264546684687957,200.53141713148216 30.315967523725703,200.18971249781316 37.33085250342265,198.9937440046633 38.5,197.3279248480976 37.732746955240145,195.83295309191453 35.10216508805752,195.10682195762638 29.3660351827275,197.11435779300518 24.031799729447812,197.28521144617116 23.045331529108807,196.4309424580715 21.364682002691552,196.68722334413906 20.926251691533253,190.7072936539189 15.884303112281486,189.63943975427537" stroke="#4dd2ff" stroke-linecap="round" stroke-linejoin="round" stroke-width="0.5"><title>2023-07-15 4.8km</title><desc>1689425255000</desc></polyline><polyline fill="none" points="47.384615384740755,189.73910067905672 49.39230769244023,190.10332161729457 50.08461538469419,190.91270023980178 52.09230769239366,190.79129355563782 52.64615384628996,194.71675684582442 54.0307692309143,195.00003614477464 54.23846153845079,196.2545562350424 53.061538461595774,199.20873246871633 54.273076923098415,200.26089932091418 67.49615384615026,198.88498824019916 68.5,197.59000858839136 68.04999999993015,195.89034114856622 64.96923076931853,195.28331523420638 60.019230769365095,197.02345361351036 54.13461538462434,197.46860402153106 52.9230769231217,198.92545628361404 54.16923076927196,200.26089932091418 67.53076923068147,198.88498824019916 68.5,197.79234944778727 68.18846153840423,196.13315124475048 67.01153846154921,195.36425207846332 64.86538461537566,195.2023783729237 59.70769230776932,197.18532654904993 54.342307692277245,197.34719941602089 53.096153846243396,198.35890328494133 53.130769230774604,199.28966848307755 54.30769230774604,200.26089932091418 62.546153846080415,199.77528420995804 67.773076922982,198.60171181565966 68.5,197.06392185372533 67.87692307692487,195.93080950860167 65.523076922982,195.32378365841578 60.29615384619683,197.02345361351036 54.75769230769947,197.26626299117925 53.89230769244023,196.9020488669048 53.99615384626668,196.41642949581728 52.403846153989434,196.41642949581728 52.05769230762962,190.95316912597627 50.53461538464762,191.11504462815356 49.25384615396615,190.26519747881684 47.17692307708785,189.98191467637662 41.5,191.19598235344165" stroke="#4dd2ff" stroke-linecap="round" stroke-linejoin="round" stroke-width="0.5"><title>2023-07-13 3.8km</title><desc>1689250953000</desc></polyline><polyline fill="none" points="74.72018348635174,188.13670811062912 75.76055045891553,193.92855754727498 77.69266055058688,194.855247775733 77.69266055058688,197.46155564161018 76.10733944969252,199.83618090418167 77.79174311924726,201.8053745366633 96.76605504611507,199.89409846503986 98.45045871543698,198.0407334837364 97.75688073388301,195.72401844180422 94.6853211009875,194.6235753655783 85.5697247707285,197.34571999969194 78.08899082569405,197.63530905847438 76.05779816536233,199.89409846503986 78.03944954136387,201.86329188931268 96.76605504611507,199.83618090418167 98.2027522935532,198.79366376344115 98.5,196.88237718713935 97.31100917444564,195.3765103406622 94.28899082588032,194.565657247731 85.66880733962171,197.2878021694487 78.08899082569405,197.63530905847438 76.05779816536233,199.7782633374445 77.94036697270349,201.86329188931268 97.01376146799885,199.7782633374445 98.3513761467766,198.21448671713006 97.9055045871064,195.89777240977855 95.77522935764864,194.68149347731378 92.70366972475313,194.6235753655783 85.47064220183529,197.34571999969194 77.94036697270349,197.69322685181396 76.20642201858573,199.2570049597416 76.50366972503252,200.53119122958742 79.03027522959746,201.6316224419861 96.81559633044526,199.7782633374445 98.40091743133962,197.98281572700944 98.15321100922301,196.24528018035926 94.43761467910372,194.6235753655783 85.8669724771753,197.2878021694487 78.98073394503444,197.51947345328517 77.89082568814047,196.88237718713935 77.29633027524687,194.39190285746008 75.66146789002232,194.2181484118919 74.96788990846835,188.54213956394233 71.5,188.13670811062912" stroke="#4dd2ff" stroke-linecap="round" stroke-linejoin="round" stroke-width="0.5"><title>2023-07-11 4.3km</title><desc>1689085096000</desc></polyline><polyline fill="none" points="103.52747252723202,188.9008439440513 105.35714285681024,188.7274058421608 105.7527472525835,193.98833713738713 107.68131868122146,194.56645836943062 107.97802197793499,196.93674903264036 106.1978021976538,200.17420261044754 107.97802197793499,202.1976013655658 118.90659340657294,201.67729954357492 126.81868131877854,200.34763708268292 128.35164835164323,198.5554782169056 128.25274725281633,196.99456087168073 126.67032967042178,195.49145106988726 124.1978021976538,194.97114286833676 114.8021978023462,197.97736120101763 108.12637362629175,198.0351729299873 106.14835164812393,200.34763708268292 108.02747252723202,202.1976013655658 127.01648351643234,200.28982559795259 128.4010989011731,198.84453649562784 128.45054945047013,197.2258081668988 126.47252747253515,195.3758270678809 123.70329670328647,195.02895491517847 114.60439560445957,197.97736120101763 108.02747252723202,198.0351729299873 106.1978021976538,200.40544856130145 108.07692307676189,202.255412648723 126.91758241760544,200.28982559795259 128.5,197.7461142235552 127.4120879122056,195.89613488444593 124.3461538462434,195.02895491517847 114.70329670328647,197.97736120101763 108.52197802206501,197.97736120101763 106.0989010988269,199.8851450344082 107.97802197793499,202.31322392559377 126.86813186807558,200.23201410740148 128.35164835164323,198.67110154672991 128.00549450539984,196.30081839952618 123.60439560445957,195.0867669559084 115.69230769225396,197.80392597714672 107.87912087887526,198.2086080806912 106.1978021976538,200.23201410740148 107.97802197793499,202.255412648723 115.59340659319423,201.67729954357492 117.52197802206501,201.61948819935787 127.16483516478911,200.1163911073818 128.45054945047013,198.382043176156 127.90659340657294,196.30081839952618 123.5549450549297,195.0867669559084 113.86263736267574,198.0351729299873 109.06593406596221,197.97736120101763 107.73076923075132,196.8211253361078 105.6538461537566,197.11018453160068 105.0109890110325,189.13209466147237 102.0439560438972,189.0742819912266 101.5,187.68677607446443" stroke="#4dd2ff" stroke-linecap="round" stroke-linejoin="round" stroke-width="0.5"><title>2023-07-08 5.3km</title><desc>1688824288000</desc></polyline><polyline fill="none" points="134.62110091745853,188.10774870886235 135.06697247712873,188.6869364688173 135.41376146790572,196.44799338455778 137.6431192662567,196.5059113066527 136.1568807340227,199.8072227392695 137.89082568814047,201.77641657955246 156.81559633044526,199.92305786686484 158.3018348624464,198.35928157705348 158.3513761467766,196.5638292224612 156.71651376155205,194.88420717755798 153.94220183510333,194.47878039540956 146.2633027525153,197.25884373509325 138.08899082569405,197.66426846029935 136.1568807340227,199.92305786686484 137.98990825680085,201.83433393848827 156.96422018366866,199.92305786686484 158.5,197.54843285511015 157.41009174333885,195.40546974248718 154.2394495413173,194.53669852553867 145.17339449562132,197.43259722547373 137.84128440357745,197.66426846029935 136.10733944969252,199.98097542161122 137.89082568814047,201.89225129113765 157.11284403689206,199.7493051661877 158.45045871543698,197.08509018964833 156.41926605510525,194.82628908427432 153.00091743119992,194.65253476740327 146.90733944950625,197.02717232884606 145.27247706451453,197.2009258925682 138.18807339458726,197.66426846029935 136.3055045872461,199.34388198360102 136.4541284404695,200.44431563839316 138.03944954136387,201.83433393848827 149.03761467896402,201.08140779694077 157.11284403689206,199.5755524103297 158.40091743133962,197.78010404104134 157.6082568806596,195.6371418343624 153.99174311943352,194.59461664955597 147.89816513773985,196.85341870971024 142.74587155971676,197.66426846029935 135.51284403679892,196.39007545658387 134.96788990846835,188.74485521105817 131.5,188.28150510124397" stroke="#4dd2ff" stroke-linecap="round" stroke-linejoin="round" stroke-width="0.5"><title>2023-07-06 4.2km</title><desc>1688649757000</desc></polyline><polyline fill="none" points="170.7303473490756,183.63176525052404 162.6352833637502,191.24916507821763 163.47440585005097,192.63413544592913 165.15265082241967,193.03808447450865 165.89305301615968,198.4048074921011 167.91681901272386,198.92416498437524 168.11425959761254,200.71305923175532 166.28793418663554,203.65606604586355 166.43601462524384,204.81018203462008 168.0155393050518,206.25282358995173 178.72669104184024,205.61806177528342 187.1179159048479,204.23312434513355 188.4012797072064,202.61735957011115 187.61151736741886,199.96287848678185 184.10694698337466,198.86645862070145 176.1599634368904,201.63635719497688 167.91681901272386,202.09800559096038 166.28793418663554,203.5983601824264 166.38665447896346,204.867887770175 168.11425959761254,206.25282358995173 179.76325411326252,205.61806177528342 187.06855575856753,204.3485359319602 188.1051188299898,203.2521248733974 188.5,201.40553285053466 187.75959780626,200.0782909761765 183.81078610592522,198.92416498437524 175.9131627054885,201.69406326574972 167.86745886644349,202.04029956291197 166.18921389384195,204.00230109872064 167.96617915900424,206.36823474953417 186.96983546600677,204.3485359319602 188.3519195613917,202.84818340209313 188.3025594148785,200.82847156235948 186.62431444227695,199.32810935901944 184.10694698337466,198.92416498437524 176.9003656306304,201.52094503497938 167.86745886644349,202.15571161312982 166.18921389384195,204.23312434513355 168.0155393050518,206.1951180009055 186.7230347348377,204.2908301416319 188.2531992685981,202.79047745326534 188.15447897603735,200.48223449691432 184.304387568729,198.981871341879 174.43235831800848,201.98259352851892 169.0027422301937,201.9248874882469 167.6700182815548,200.71305923175532 165.64625228499062,201.17470840847818 165.10329067637213,193.03808447450865 161.8948811700102,192.92267049691873 161.5,191.82623649179004" stroke="#4dd2ff" stroke-linecap="round" stroke-linejoin="round" stroke-width="0.5"><title>2023-07-04 4.9km</title><desc>1688476174000</desc></polyline><polyline fill="none" points="15.09016393427737,218.87667576881358 15.827868852298707,224.28134578553727 17.745901639340445,224.74131522228708 18.28688524570316,226.52369311568327 16.319672130979598,229.97344018990407 18.139344262192026,232.21576405642554 36.48360655736178,230.37590925680706 38.352459016256034,228.82352692936547 38.5,227.21364428068046 37.6147540982347,225.71874898381066 33.3852459017653,224.91380366071826 26.10655737691559,227.67361123795854 17.89344262285158,228.01858620066196 16.319672130979598,230.1459269694169 18.139344262192026,232.21576405642554 36.92622950812802,230.20342255022842 38.5,227.9610903886496 37.66393442614935,225.89123711246066 33.87704918021336,224.85630752058933 24.778688524616882,227.9035945707583 18.18852459010668,228.01858620066196 16.319672130979598,229.91594458452892 18.28688524570316,232.10077331360662 36.72950819670223,230.20342255022842 38.5,227.67361123795854 36.97540983604267,225.48876472742995 34.17213114723563,224.9712997947354 26.2049180327449,227.61611538968282 18.237704918021336,227.9610903886496 16.319672130979598,230.08843138231896 18.0901639345102,232.15826868807198 28.9098360654898,231.52581923577236 37.12295081955381,230.030935789051 38.30327868834138,228.82352692936547 38.450819671852514,226.86866880767047 36.532786885043606,225.2587803734932 33.33606557385065,224.91380366071826 25.122950819553807,227.84609874675516 17.99180327844806,228.0760820064461 16.270491803064942,230.20342255022842 18.040983606595546,232.15826868807198 20.450819672085345,231.75580093974713 20.89344262285158,229.22599684703164 17.7950819672551,226.6961809891509 15.532786885276437,227.0986524807522 15.139344262424856,219.04916606709594 11.745901639340445,218.87667576881358 11.5,217.78423594351625" stroke="#4dd2ff" stroke-linecap="round" stroke-linejoin="round" stroke-width="0.5"><title>2023-07-01 4.6km</title><desc>1688218059000</desc></polyline><polyline fill="none" points="68.5,224.23812152229948 68.08301158272661,226.12762632378144 64.90347490343265,224.7257362579112 64.12162162153982,223.68955445179017 64.6428571427241,222.71432281390298 62.76640926627442,221.556233100011 59.534749034559354,221.67813739005942 57.18918918911368,220.33718878100626 54.84362934343517,222.83622685907176 52.86293436284177,221.73908952542115 50.36100386106409,222.59241874306463 47.85907335882075,221.98289800225757 43.42857142840512,222.59241874306463 43.689189188880846,225.03049525804818 41.5,225.82286790385842 41.86486486508511,229.1142503063893 42.646718146745116,229.723763502785 43.63706563715823,228.93139622180024 43.167953667929396,226.9199974607909 44.783783783670515,225.09144703875063 44.262548262253404,224.17716965143336 46.60810810816474,225.4571575873415 49.735521235270426,224.17716965143336 52.65444015432149,224.17716965143336 55.781853281892836,222.2876584532787 57.032818533014506,220.276236497215 63.86100386083126,221.98289800225757 65.42471042461693,224.7257362579112 68.39575289562345,225.39620584540535" stroke="#4dd2ff" stroke-linecap="round" stroke-linejoin="round" stroke-width="0.5"><title>2023-06-30 1.5km</title><desc>1688098240000</desc></polyline><polyline fill="none" points="72.0419708029367,217.7134659026051 72.14051094884053,218.92310299538076 75.29379562032409,219.09590807522181 75.88503649644554,224.4528383689467 78.0036496350076,224.798444966611 78.10218978114426,228.02409597620135 86.28102189791389,227.67849142407067 94.41058394196443,225.02884924336104 97.12043795618229,225.66246050212067 98.45072992728092,227.1600841852487 98.30291970819235,229.11850894521922 96.97262773732655,230.38572121603647 78.15145985386334,232.2865340974531 76.32846715324558,230.38572121603647 77.85583941615187,228.08169671351789 84.16240875911899,228.08169671351789 93.27737226290628,225.08645029732725 96.7755474455189,225.43205649324227 98.35218978114426,226.64167645282578 98.45072992728092,228.7729050872149 97.02189781027846,230.32812072208617 78.15145985386334,232.22893380443566 76.62408759118989,230.9617258196813 76.47627737210132,229.52171316929162 78.20072992704809,227.96649523283122 84.31021897797473,227.96649523283122 93.47445255471393,225.02884924336104 96.72627737233415,225.48965750454227 98.5,227.85129372763913 97.31751824822277,230.1553192040883 93.57299270085059,230.78892450244166 90.71532846731134,231.24972789309686 78.34854014613666,232.22893380443566 76.67335766437463,231.01932624645997 76.57481751823798,229.34891139535466 78.44708029180765,227.96649523283122 84.85218978114426,227.90889448323287 94.21350364945829,224.97124818328302 96.33211678848602,225.31685445230687 98.30291970819235,226.87207995029166 98.40145985409617,228.54250239336397 97.02189781027846,230.2129197163158 77.90510948910378,232.1713335054228 76.27919708029367,230.44332170387497 77.80656934319995,226.75687821389874 75.63868613145314,227.04488250944996 75.19525547442026,219.4415180705255 72.5839416058734,219.2111114313593 73.02737226290628,218.3470856670756 71.84489051089622,218.75029786099913 71.5,217.9438731750124" stroke="#4dd2ff" stroke-linecap="round" stroke-linejoin="round" stroke-width="0.5"><title>2023-06-29 4.4km</title><desc>1688039201000</desc></polyline><polyline fill="none" points="101.5,217.2929638880887 102.13057324825786,223.5256556099048 104.19426751579158,223.9947804643889 104.76751592359506,225.8042587946984 102.7038216558285,230.49547486152733 104.65286624175496,232.70703611185309 126.55095541407354,230.42845773341833 128.44267515931278,227.6807493864908 127.41082802554592,225.3351352790487 123.28343949047849,224.26285165391164 112.27707006363198,227.6807493864908 104.65286624175496,227.81478421628708 102.7038216558285,230.16038915055105 104.71019108267501,232.70703611185309 116.74840764328837,231.9028329132707 126.8949044586625,230.16038915055105 128.5,227.34566218819236 127.64012738876045,225.40215294534573 122.48089171969332,224.19583386712475 113.53821656061336,227.27864472707734 104.59554140106775,227.81478421628708 102.76114649674855,229.69126885791775 102.8184713376686,230.89757748070406 106.14331210171804,231.63476495374925 108.03503184695728,230.16038915055105" stroke="#4dd2ff" stroke-linecap="round" stroke-linejoin="round" stroke-width="0.5"><title>2023-06-27 2.4km</title><desc>1687872268000</desc></polyline><polyline fill="none" points="157.49024390242994,235.91140637552598 157.09512195107527,237.400451754831 156.1731707318686,236.16813866372104 155.77804878051393,237.2977591167146 151.87073170719668,236.0654457648052 151.38780487817712,230.0578733389848 149.67560975602828,227.95263804521528 146.86585365841165,220.60991660266882 141.24634146341123,212.5995482451981 139.57804878032766,213.83192121933098 142.47560975607485,218.3505953331187 142.343902438879,219.48025728354696 140.5,219.68565008279984 141.2902439024765,217.11823384088348 141.02682926831767,217.83711175853387 139.92926829261705,216.03991496667732 137.20731707313098,215.6804748090217 132.6414634147659,220.55856850894634 131.63170731719583,222.40709646072355 131.5,224.87178943725303 135.62682926817797,228.3120691080694 138.12926829280332,229.18497200892307 140.71951219509356,226.77164839173201 143.09024390229024,226.00143619894516 144.89024390256964,230.36595578631386 147.4365853657946,229.64709643818787 148.8853658537846,231.59828361848486 150.86097560962662,231.13616104831453 151.82682926836424,229.74979069599067 154.76829268294387,228.05533266166458 158.5,232.47118060541106" stroke="#4dd2ff" stroke-linecap="round" stroke-linejoin="round" stroke-width="0.5"><title>2023-06-26 2.3km</title><desc>1687750317000</desc></polyline><polyline fill="none" points="165.15265082288533,218.45033618394518 166.04113345546648,224.45183384313714 167.86745886667632,224.56724661326734 167.9168190129567,227.56797006860143 166.33729433291592,229.9916192808887 168.01553930551745,231.9536131437053 186.96983546647243,229.9916192808887 188.30255941534415,228.66438414010918 188.3519195613917,226.64467230037553 186.4268738576211,224.91348477668362 184.40310786152259,224.45183384313714 175.12340036593378,227.51026400376577 167.96617915923707,227.62567612720886 166.43601462524384,229.12603151152143 166.48537477175705,230.39555977005512 168.21297989040613,231.89590754255187 186.96983546647243,230.0493250831496 188.3519195613917,228.4912662752904 188.2038391227834,226.12531661981484 186.47623400390148,224.7403657223913 184.10694698384032,224.39412744907895 175.02468007337302,227.39485185587546 168.16361974435858,227.62567612720886 166.53473491803743,229.24144329346018 166.53473491803743,230.39555977005512 168.805301645305,231.9536131437053 186.18007312645204,230.16473666997626 188.5,227.97191235114587 187.80895795254037,225.54825417284155 184.6992687387392,224.50954023125814 175.2221206582617,227.39485185587546 169.20018281554803,227.45255793299293 167.6700182815548,224.56724661326734 165.84369287034497,223.9901825193665 164.95521023799665,218.73887123493478 161.5,218.0463868562365" stroke="#4dd2ff" stroke-linecap="round" stroke-linejoin="round" stroke-width="0.5"><title>2023-06-22 3.3km</title><desc>1687436733000</desc></polyline><polyline fill="none" points="11.5,249.61449038799765 12.158018867921783,248.6116933248668 12.561320754713961,248.7506961774161 12.888207547162892,249.02870064714807 13.686320754699409,249.5003116055159 13.805188679267303,249.54995458856502 13.907075471695862,249.49038300260145 14.335849056602456,249.70384750223457 33.93207547169004,258.455056142855 36.24150943395216,257.9884985571043 36.49622641509632,260.2120505508901 36.64056603773497,261.31386095842026 36.75518867923529,261.38830667512957 38.29622641509923,261.2245259425763 38.47877358489495,261.10541232374453 38.49150943395216,260.9416306044659 38.355660377361346,260.80762695469093 38.14339622639818,260.75799587623624 37.391981132052024,261.00118765938896 36.75094339621137,261.030966158527 36.615094339620555,261.1451168969397 36.6023584905779,261.2394151236949 36.75943396225921,261.38334363100876 38.368396226404,261.20467369375183 38.49150943395216,261.06570771697807 38.48726415094279,260.9267413289235 38.355660377361346,260.7977007431946 38.185849056608276,260.7629589864446 37.32405660377117,261.02103999424435 36.75943396225921,261.030966158527 36.62783018866321,261.1252646145258 36.610849056596635,261.2493412418007 36.74245283017808,261.37838058638226 37.909905660373624,261.28904569328006 38.39386792451842,261.1947475661909 38.5,261.06570771697807 38.49575471697608,260.9217782360356 38.39386792451842,260.81755316408453 38.15613207545539,260.7629589864446 37.26462264150905,261.0160769113245 36.840094339611824,261.0160769113245 36.73820754715416,260.9118520486845 36.53443396226794,260.9416306044659 36.500471698105684,260.2567190432237" stroke="#4dd2ff" stroke-linecap="round" stroke-linejoin="round" stroke-width="0.5"><title>2023-06-21 5.0km</title><desc>1687340611000</desc></polyline><polyline fill="none" points="41.5,247.27728468808345 42.01923076901585,253.7522705491865 44.32692307699472,253.88716538943117 44.44230769225396,257.12463299708907 44.55769230751321,257.39442122296896 42.653846153756604,260.4969776222715 44.78846153849736,262.72271531197475 66.6538461537566,260.1597439617617 68.5,258.20378521614475 67.57692307676189,255.16866494819988 63.884615384507924,253.88716538943117 53.73076923075132,257.2595271242899 44.49999999976717,257.7316563448985 42.596153846010566,260.36208417941816 44.615384615259245,262.6552688294905 61.98076923051849,261.17144440859556 66.88461538450792,260.1597439617617 68.38461538450792,258.27123216935433 67.57692307676189,255.23611222213367 63.76923076924868,254.02206020092126 52.75,257.39442122296896" stroke="#4dd2ff" stroke-linecap="round" stroke-linejoin="round" stroke-width="0.5"><title>2023-06-20 2.2km</title><desc>1687262791000</desc></polyline></svg>