<?xml version="1.0" encoding="utf-8" ?>
<svg baseProfile="full" height="300mm" version="1.1" viewBox="0,0,200,300" width="200mm" xmlns="http://www.w3.org/2000/svg" xmlns:ev="http://www.w3.org/2001/xml-events" xmlns:xlink="http://www.w3.org/1999/xlink"><defs /><rect fill="#222222" height="300" width="200" x="0" y="0" /><text fill="#FFFFFF" style="font-size:12px; font-family:Arial; font-weight:bold;" x="10" y="20">Over 1km Runs</text><text fill="#FFFFFF" style="font-size:4px; font-family:Arial" x="10" y="280">ATHLETE</text><text fill="#FFFFFF" style="font-size:9px; font-family:Arial" x="10" y="290">ElvisZhu</text><text fill="#FFFFFF" style="font-size:4px; font-family:Arial" x="120" y="280">STATISTICS</text><text fill="#FFFFFF" style="font-size:3px; font-family:Arial" x="120" y="285">Number: 45</text><text fill="#FFFFFF" style="font-size:3px; font-family:Arial" x="120" y="290">Weekly: 3.2</text><text fill="#FFFFFF" style="font-size:3px; font-family:Arial" x="141" y="285">Total: 215.9 km</text><text fill="#FFFFFF" style="font-size:3px; font-family:Arial" x="141" y="290">Avg: 4.8 km</text><text fill="#FFFFFF" style="font-size:3px; font-family:Arial" x="167" y="285">Min: 1.2 km</text><text fill="#FFFFFF" style="font-size:3px; font-family:Arial" x="167" y="290">Max: 13.0 km</text><polyline fill="none" points="11.5,37.376168073154986 12.358050847658888,43.39502664888278 14.131355932215229,43.79628185153706 14.760593220358714,45.00004593236372 14.646186440717429,47.741944455658086 12.872881356161088,50.082580135553144 14.760593220358714,52.62383192690322 36.6694915255066,50.416955954395235 38.4427966105286,48.67819976678584 38.2139830510132,46.07005652593216 33.86652542394586,44.26441259961575 23.627118644071743,47.40756722324295 14.932203389937058,47.741944455658086 12.930084745632485,50.416955954395235 15.332627118565142,52.55695701041259 36.555084746098146,50.48383109702263 38.5,47.40756722324295 37.1843220340088,45.13379735557828 34.03813559329137,44.19753679964924 23.74152542394586,47.340691755583975 14.817796610295773,47.87569529924076 12.81567796622403,50.082580135553144 14.817796610295773,52.55695701041259 27.11652542371303,51.88820745801786 36.78389830538072,50.2163304843707 38.32838983065449,48.67819976678584 38.156779661308974,46.003180916944984 33.752118644537404,44.26441259961575 22.483050847658888,47.67506902344758 16.305084746098146,47.67506902344758 14.417372881434858,46.33755889162421" stroke="#4dd2ff" stroke-linecap="round" stroke-linejoin="round" stroke-width="0.5"><title>2023-09-19 3.1km</title><desc>1695125206000</desc></polyline><polyline fill="none" points="41.5,38.268768558540614 45.51292407116853,39.95159696351038 47.78109854622744,40.00259167194599 48.39176090457477,45.00004695812822 50.22374798054807,45.66297081124503 50.22374798054807,48.00869405409321 48.87156704370864,49.946456826117355 50.31098546017893,51.680237972643226 67.23505654279143,49.895463168853894 68.36914378032088,48.41664475822472 67.7584814215079,46.17291161688627 63.920032310066745,45.255017778719775 57.46445880457759,47.65173690507072 50.485460420139134,47.95770019170595 48.82794830366038,49.64049480063841 50.441841680090874,51.731231441459386 67.10420032311231,49.895463168853894 68.41276252013631,48.46763857192127 68.06381260068156,46.42788181753713 66.10096930526197,45.357006069185445 63.78917609038763,45.30601192667382 57.682552503887564,47.600743004935794 50.31098546017893,48.00869405409321 48.82794830366038,49.946456826117355 50.31098546017893,51.731231441459386 67.14781906292774,49.895463168853894 68.36914378032088,48.51863238032092 68.41276252013631,47.09080370864831 66.92972536361776,45.66297081124503 64.92326332791708,45.15302946671727 57.682552503887564,47.600743004935794 50.441841680090874,48.00869405409321 49.08966074301861,49.28353885898832 49.002423263387755,50.40539950074162 50.61631663981825,51.680237972643226 67.23505654279143,49.84446950594429 68.5,48.314657114387956 68.41276252013631,46.98881578471628 66.6680129240267,45.509988464502385 64.26898222928867,45.255017778719775 56.243134087417275,47.90670632413821 50.31098546017893,48.00869405409321 49.08966074301861,49.23254513152642 49.002423263387755,50.35440589176142 50.441841680090874,51.680237972643226 67.36591276247054,49.793475837650476 68.5,48.314657114387956 68.32552504027262,46.83583385840757 66.79886914370582,45.61197670106776 64.87964458786882,45.204023625381524 56.679321486270055,47.80471857264638 50.354604200227186,48.00869405409321 48.958804523339495,50.40539950074162 50.70355411944911,51.680237972643226 67.19143780274317,49.84446950594429 68.36914378032088,48.51863238032092 68.23828756040893,46.78483987218351 66.8861066235695,45.66297081124503 64.70516962837428,45.255017778719775 56.0686591276899,47.90670632413821 50.441841680090874,48.00869405409321 48.82794830366038,50.201425032748375 50.61631663981825,51.731231441459386 67.19143780274317,49.84446950594429 68.36914378032088,48.62061998079298 68.1946688205935,46.733845880487934 66.71163166384213,45.560982585389866 64.31260096933693,45.204023625381524 57.24636510503478,47.70273079961771 50.398222940275446,48.00869405409321 49.04604200320318,49.28353885898832 49.08966074301861,50.558380295173265 50.74717285949737,51.62924449832644 67.32229402265511,49.84446950594429 68.5,47.80471857264638 67.84571890137158,46.32589375344105 65.53392568649724,45.255017778719775" stroke="#4dd2ff" stroke-linecap="round" stroke-linejoin="round" stroke-width="0.5"><title>2023-09-16 7.8km</title><desc>1694864697000</desc></polyline><polyline fill="none" points="71.5,38.34526228689356 75.77463651029393,39.875105725368485 77.60662358650006,39.620132155832835 78.43537964462303,44.56659535333165 80.22374798054807,45.38250193570275 80.13651050091721,47.728225674451096 78.82794830366038,49.71698251916678 80.31098546017893,51.50175732295611 96.92972536361776,49.76797617643024 98.41276252013631,48.085182634793455 97.62762520182878,46.04542501803371 94.31260096933693,45.1275312769867 87.1591276251711,47.62623792295926 80.48546042013913,47.830213404406095 78.74071082379669,49.61499518796336 80.39822294027545,51.60374425514601 96.97334410343319,49.8699634752993 98.41276252013631,48.340151730633806 97.6712439416442,45.94343691095128 94.31260096933693,45.17852541949833 87.42084006452933,47.524250149930594 80.35460420022719,47.830213404406095 78.78432956384495,49.76797617643024 80.39822294027545,51.65473771310644 97.19143780274317,49.76797617643024 98.41276252013631,48.28915792223415 98.1946688205935,46.50437123372103 96.40630048466846,45.33150781481527 94.18174474965781,45.17852541949833 88.29321486270055,47.371268449991476 80.22374798054807,47.88120726120542 78.9151857837569,49.25803935946897 78.9588045233395,50.328906052804086 80.57269789976999,51.55275079177227 97.14781906292774,49.76797617643024 98.36914378032088,48.49313312335289 98.10743134072982,46.40238322346704 96.79886914370582,45.38250193570275 94.18174474965781,45.1275312769867 87.28998384485021,47.524250149930594 80.44184168009087,47.830213404406095 79.13327948306687,49.003070748993196 78.9151857837569,50.226918851054506 80.65993537940085,51.55275079177227 97.10420032311231,49.8699634752993 98.5,47.524250149930594 98.06381260068156,46.19840713837766 96.79886914370582,45.38250193570275 93.57108239084482,45.17852541949833 86.41760904691182,47.67723180147004" stroke="#4dd2ff" stroke-linecap="round" stroke-linejoin="round" stroke-width="0.5"><title>2023-09-14 5.3km</title><desc>1694693604000</desc></polyline><polyline fill="none" points="101.5,40.469400164613035 105.68463611858897,39.490945924044354 108.30458221025765,39.91636110359104 109.5053908356931,40.80973151672515 111.25202156347223,40.55448302970035 111.87061994615942,44.936226261925185 113.10781671153381,45.021308182767825 113.36253369273618,45.57434022903908 113.25336927222088,47.36105395408231 112.19811320747249,49.14775974751683 113.36253369273618,50.38143292826135 127.33557951496914,48.935057092719944 128.5,47.27597252797568 127.19002695428208,45.44671751651913 124.31536388141103,45.319094763632165 118.2385444745887,47.31851324334275 113.47169811325148,47.40359466031077 112.05256064701825,48.97759763270733 113.39892183314078,50.46651369778556 127.19002695428208,49.020138168212725 128.24528301903047,48.211867225851165 128.35444743954577,46.46769808305544 125.69811320770532,45.10639008542057 118.34770889487118,47.31851324334275 113.43530997307971,47.36105395408231 112.41644204850309,48.16932660504244 112.12533692736179,49.27538128645392 113.32614555256441,50.509054075955646 127.3719676551409,49.0626786990033 128.35444743954577,48.211867225851165 128.46361185982823,46.935646643687505 128.0997304583434,46.084830673993565 126.42587601090781,45.23401290579932 124.0242587600369,45.36163568572374 118.20215633441694,47.31851324334275 113.36253369273618,47.40359466031077 112.30727762798779,48.382029664411675 112.16172506753355,49.36046228982741 113.39892183314078,50.423973315279 123.5512129382696,49.70078612375073 127.8814016173128,48.72235432569869 128.4272237198893,46.680402041674824 126.86253369296901,45.36163568572374 124.2425876010675,45.23401290579932 119.0390835579019,47.19089108388289 113.47169811325148,47.40359466031077 112.05256064701825,48.97759763270733 113.36253369273618,50.46651369778556 127.19002695428208,49.10521922551561 128.318059299374,48.04170471537509 128.46361185982823,46.935646643687505 127.84501347714104,45.914667264325544 125.84366576815955,45.191471970203565 118.71159029658884,47.233431808213936" stroke="#4dd2ff" stroke-linecap="round" stroke-linejoin="round" stroke-width="0.5"><title>2023-09-11 5.2km</title><desc>1694434443000</desc></polyline><polyline fill="none" points="131.5,40.90116430964554 136.12650602404028,39.50669263326563 138.25903614470735,39.76023329986492 139.37951807235368,40.73213769891299 141.4036144579295,40.689881034893915 141.98192771081813,44.831012863869546 143.21084337332286,45.00003774167271 143.5722891567275,46.22546596810571 142.27108433749527,49.0143575850816 143.46385542163625,50.40879609793774 157.48795180721208,48.97210179679678 158.35542168677785,47.915705634251935 158.31927710864693,46.394490256439894 157.16265060240403,45.46485578693682 155.53614457836375,45.12680635301513 148.1265060242731,47.32412256402313 143.53614457836375,47.450890438456554 142.37951807235368,48.46503198714345 142.34337349398993,49.31014797918033 143.53614457836375,50.40879609793774 157.37951807235368,48.97210179679678 158.42771084350534,47.915705634251935 158.31927710864693,46.30997812116402 155.78915662667714,45.16906254790956 148.668674698798,47.239610625372734 143.28313253028318,47.493146387743764 142.30722891562618,49.267892221949296 143.6807228915859,50.49330736673437 157.30722891562618,48.929846003855346 158.42771084350534,47.83119382074801 158.35542168677785,46.394490256439894 155.5,45.0422939498967 149.6084337348584,47.02833070064662 143.8614457831718,47.15509866885259 142.45180722908117,48.21149684113334 142.27108433749527,49.267892221949296 143.71686746971682,50.40879609793774 157.45180722884834,48.929846003855346 158.42771084350534,47.873449729784625 158.28313253005035,46.26772204693407 155.5722891567275,45.0422939498967 150.07831325312145,46.90156269213185 143.35542168677785,47.366378526581684 142.27108433749527,49.31014797918033 143.89759036153555,50.40879609793774 157.16265060240403,49.05661336911726 158.31927710864693,48.126985090144444 158.3915662651416,46.56351447312045 157.19879518076777,45.42259962335811 155.5,45.0422939498967 149.82530120480806,46.9438186994812 143.53614457836375,47.32412256402313 142.37951807235368,48.422776140709175 142.27108433749527,49.31014797918033 143.64457831322215,50.49330736673437 157.45180722884834,48.929846003855346 158.5,47.66217013986898 158.24698795191944,46.26772204693407 157.1265060242731,45.42259962335811 155.28313253005035,45.12680635301513 148.70481927716173,47.239610625372734 143.50000000023283,47.366378526581684 142.37951807235368,48.46503198714345 142.37951807235368,49.35240373184206 143.6084337348584,50.49330736673437 152.42771084350534,49.85947241587564 157.56024096393958,48.88759020643192 158.42771084350534,47.78893790722941 158.0301204819698,45.971929401915986 156.51204819278792,45.25357492422336 154.23493975913152,45.21131873832201 149.71686746994965,47.02833070064662 143.3915662651416,47.493146387743764 142.19879518076777,48.97210179679678 143.53614457836375,50.451051734620705 157.34337349398993,49.0143575850816 158.5,47.450890438456554 157.81325301202014,45.71839267484029 154.52409638580866,45.21131873832201 149.42771084350534,47.07058669443359 143.3915662651416,47.40863448480377 143.5722891567275,48.08472920785425 144.25903614447452,47.61991420853883 143.24698795191944,46.774794643511996 143.1385542168282,45.084550153667806 141.90963855432346,44.7887566332065 141.25903614447452,40.73213769891299 139.48795180721208,40.858907663670834 138.4036144579295,40.05603054104722 136.19879518076777,39.633462986705126" stroke="#4dd2ff" stroke-linecap="round" stroke-linejoin="round" stroke-width="0.5"><title>2023-09-09 8.7km</title><desc>1694261593000</desc></polyline><polyline fill="none" points="161.5,38.45347967190901 167.88102893903852,39.823698329157196 168.61897106119432,44.84779994888231 170.00803858530708,44.949296409409726 170.31189710623585,45.710519180458505 170.26848874613643,47.689692736341385 168.87942122202367,49.922596697171684 170.35530546633527,51.44502526219003 187.11093247588724,49.77035357520799 188.4565916401334,48.19717182102613 187.97909967857413,46.16725226349081 186.59003215446137,45.30453385275905 183.725080386037,45.2030374672031 176.51929260464385,47.689692736341385 170.57234726683237,47.79118859622395 168.87942122202367,49.66885813369299 170.4421221865341,51.54652032809099 186.72025723499246,49.82110128796194 188.19614147930406,48.70465036953101 188.5,47.48670095222769 187.63183279754594,45.86276358962641 184.54983922839165,45.00004463177174 176.432475884445,47.63894479829469 170.83279742766172,47.79118859622395 168.9662379422225,49.71960585706984 170.48553054663353,51.54652032809099 186.6768488746602,49.77035357520799 187.84887459827587,49.21212838150677 188.5,47.53744890616508 187.28456591651775,45.659771033213474 184.9839228298515,45.05079284872045 176.47588424454443,47.5881968550093 170.48553054663353,47.84193651803071 168.9228295821231,49.66885813369299 170.48553054663353,51.54652032809099 187.02411575592123,49.87184899512795 188.5,47.48670095222769 187.1543408362195,45.609022880584234 184.33279742766172,45.10154106022674 176.30225080391392,47.689692736341385 170.57234726683237,47.84193651803071 168.9228295821231,49.66885813369299 170.48553054663353,51.49577279778896 187.1543408362195,49.61811040484463 188.41318327980116,48.24791969999205 188.5,47.02996912415256 187.11093247588724,45.659771033213474 184.6366559485905,45.15228926637792 176.6061093248427,47.689692736341385 171.5273311897181,47.74044066891656" stroke="#4dd2ff" stroke-linecap="round" stroke-linejoin="round" stroke-width="0.5"><title>2023-09-07 5.2km</title><desc>1694088262000</desc></polyline><polyline fill="none" points="11.5,68.84333065565443 12.01461245212704,69.72573303847457 16.78335451055318,68.92354913888266 17.881194408982992,70.92900570796337 22.341168996179476,71.77129430626519 22.58132147404831,77.34639550332213 24.15946632786654,77.42661218901048 23.027318932581693,79.5523481798009 24.19377382460516,81.03634549226263 37.470775095396675,79.63256439912948 38.465692503377795,78.46942755926284 38.397077509667724,77.42661218901048 37.12770012719557,76.2634685873636 35.78970775101334,75.94260075959028 28.996823379886337,77.98812851376715 24.331003811908886,78.1084533323301 23.027318932581693,79.51224006371922 24.22808132134378,81.03634549226263 34.760482846410014,80.15396941141807 37.470775095396675,79.59245629151701 38.32846251595765,78.54964400752215 38.15692503191531,76.9854202081624 36.09847522247583,75.9827092528576 28.82528589584399,78.02823679082212 24.331003811908886,78.1485615966667 23.439008894609287,78.83040144279948 23.095933926291764,79.79299678691314 24.125158831011504,80.9962375331379 32.976493011577986,80.39461763689178 37.71092757314909,79.4320238190412 38.5,78.1084533323301 37.916772554046474,76.62444456943194 35.378017789218575,75.94260075959028 28.82528589584399,78.06834506377345 24.19377382460516,78.1485615966667 22.958703938871622,79.79299678691314 24.125158831011504,81.15666934437468 37.436467598658055,79.63256439912948 38.397077509667724,78.54964400752215 38.15692503191531,76.9854202081624 36.92185514618177,76.18325165595161 34.93202033045236,76.02281774196308 29.031130876857787,78.06834506377345 24.090851334272884,78.22877811276703 23.095933926291764,79.59245629151701 24.090851334272884,80.9962375331379 32.80495552730281,80.47483367819223 37.29923761135433,79.67267250246368 38.32846251595765,78.83040144279948 38.465692503377795,77.58704550942639 37.95108005090151,76.704661407799 35.13786531146616,76.02281774196308 29.88881829730235,77.82769536291016 24.22808132134378,78.1084533323301 22.993011435843073,79.35180755730835 24.19377382460516,81.03634549226263 37.402160101686604,79.71278060140321 38.465692503377795,78.22877811276703 37.95108005090151,76.704661407799 35.275095298769884,75.9827092528576 30.060355781577528,77.7875870646385 24.948538754833862,78.06834506377345 24.022236340446398,77.26617880084086 22.512706480338238,77.54693718568888 22.10101651842706,71.85151217060047 20.24841168988496,71.89162109629251 19.356416772468947,71.12955078203231 17.400889453478158,70.84878764874884" stroke="#4dd2ff" stroke-linecap="round" stroke-linejoin="round" stroke-width="0.5"><title>2023-09-06 6.9km</title><desc>1694002969000</desc></polyline><polyline fill="none" points="48.26083467109129,72.34003242122708 48.56420545768924,74.62004284656723 49.82102728751488,74.72137639141874 50.471107544377446,76.49470996094169 48.82423756015487,79.43336257521878 50.51444622827694,81.46000905439723 67.1998394865077,79.68669385366957 68.5,77.96403851985815 67.37319422164,75.68404400031432 64.38282504025847,74.9747101602261 57.83868378819898,77.30537455031299 50.12439807411283,77.96403851985815 48.954253611620516,79.73736009333516 50.51444622827694,81.3586769339745 61.47913322644308,80.54801919907914 62.86597110773437,80.24402219502372 67.02648475137539,79.53469510268769 67.97993579460308,78.77470062457724 68.3266452648677,76.49470996094169 66.85313001624309,75.43071060650982 63.77608346706256,75.12671035714447 58.012038523331285,77.20404155176948 51.51123595517129,77.66003987711156 50.16773675754666,76.59604310948635 48.34751203865744,76.79870934260543 47.87078651692718,69.65467290073866 45.48715890850872,69.75600749551086 44.05698234355077,68.79332798134419 41.5,68.53999094557366" stroke="#4dd2ff" stroke-linecap="round" stroke-linejoin="round" stroke-width="0.5"><title>2023-09-04 2.5km</title><desc>1693829095000</desc></polyline><polyline fill="none" points="83.0812182740774,78.74540071727824 84.17766497470438,80.14739976960118 92.64086294418667,79.58660077108652 98.05456852808129,78.26471413389663 98.43147208134178,76.5823062909185 97.16370558389463,75.30046673095785 94.6281725888839,75.18029404996196 89.38578680215869,77.06299500822206 84.10913705592975,77.26328179388656 83.0812182740774,78.70534352524555 84.21192893397529,80.06728567782557 91.75000000023283,79.70677205486572 97.74619289347902,78.50505750181037 98.5,77.6237977410783 98.43147208134178,76.42207658311236 96.82106599013787,75.18029404996196 94.59390862949658,75.18029404996196 89.18020304583479,77.02293763848138 83.97208121826407,77.26328179388656 83.04695431469008,78.62522912866552 84.2461928933626,79.90705744334264 93.05203045695089,79.54654366805335 98.08883248746861,78.22465689113596 98.39720812195446,76.5021914455283 97.12944162450731,75.30046673095785 95.10786802042276,75.06012133081094 88.83756345196161,77.10305237374268 84.14340101531707,77.22322444518795 83.04695431469008,78.58517192391446 84.2461928933626,79.987171568966 91.40736040624324,79.58660077108652 97.64340101543348,78.58517192391446 98.5,77.46356847358402 98.22588832490146,75.98144453705754 95.24492385808844,75.06012133081094 88.83756345196161,77.06299500822206 84.10913705592975,77.3033391382778 83.0812182740774,78.62522912866552 84.31472081237007,80.02722862554947 92.53807106614113,79.54654366805335 97.47208121838048,78.6652863289637 98.19162436551414,78.02437061365345 98.2601522844052,76.1016169640352 96.40989847737364,74.98000616353238 94.66243654827122,75.02006374928169 88.87182741123252,76.98288026437513 84.48604060919024,77.10305237374268 83.32106598990504,77.94425607300946 83.21827411174309,79.06585810074466 84.2461928933626,80.06728567782557 86.1307106600143,79.78688622295158 88.49492385797203,79.58660077108652 97.57487309665885,78.54511471494334 98.5,76.90276550356066 97.40355329960585,75.42063937394414 95.48477157368325,74.98000616353238 88.56345177674666,77.10305237374268 84.7944162436761,77.02293763848138 84.07487309642602,76.62236370739993 84.34898477152456,76.22178935303236 82.498730964493,76.46213401653222 82.22461928939447,70.85405215321225 80.20304568542633,70.89411017508246 79.41497461940162,70.17306513362564 77.56472081225365,69.85260023036972 71.5,71.05434222021722" stroke="#4dd2ff" stroke-linecap="round" stroke-linejoin="round" stroke-width="0.5"><title>2023-09-02 6.2km</title><desc>1693656448000</desc></polyline><polyline fill="none" points="106.421875,69.59524824877735 108.91796875,70.00626148216543 109.69140625023283,70.82828664564295 111.765625,70.7460842076398 112.46875,74.85618482684367 113.8046875,75.14389024322736 113.76953125,77.28112381504616 112.6796875,78.9251416461193 113.9453125,80.28145112414495 127.3046875,78.9251416461193 128.46484375,77.5688274372369 127.8671875,75.92480387180694 125.08984375,75.22609175168327 119.4296875,77.1578221974487 114.015625,77.36332487154868 112.6796875,78.8429409195378 113.83984375,80.36365154656232 127.3046875,78.96624200270162 128.46484375,77.6099279372138 127.90234375,75.84260251108208 125.16015625,75.1849909996381 119.74609375,77.11672164965421 113.875,77.40442539344076 112.6796875,78.9251416461193 113.9453125,80.40475175125175 127.37500000023283,78.9251416461193 128.5,77.692128924391 127.8671875,75.76040113295312 125.01953125023283,75.1849909996381 119.640625,77.1578221974487 113.875,77.36332487154868 112.75,79.00734235512209 114.3671875,79.7882482248533 115.52734375,79.37724533100845 115.84375,78.06203315139282 113.6640625,76.78791711031226 113.62890625,75.22609175168327 112.328125,74.69178163615288 111.73046875,70.86938785816892 106.80859375,69.84185624099337 101.5,71.11599504231708" stroke="#4dd2ff" stroke-linecap="round" stroke-linejoin="round" stroke-width="0.5"><title>2023-08-31 4.0km</title><desc>1693483686000</desc></polyline><polyline fill="none" points="131.84782608691603,68.46835308638401 134.10869565210305,68.62084494461305 135.36956521729007,69.68828659850988 137.80434782616794,69.68828659850988 138.5,74.56798969852389 140.32608695630915,75.33043883510982 140.23913043481298,77.6686086494301 138.8043478259351,79.70179055136396 140.36956521729007,81.48081766426913 157.10869565210305,79.70179055136396 158.5,77.77026794871199 157.7173913042061,75.94039727395284 154.28260869556107,75.12711918356945 147.97826086962596,77.41446030733641 140.36956521729007,77.82109759020386 138.93478260887787,79.49847274806234 140.413043478271,81.53164691361599 156.93478260864504,79.85427884742967 158.5,77.46528998645954 156.93478260864504,75.43209862869116 154.10869565210305,75.02545932563953 148.28260869556107,77.21114153668168 139.84782608691603,78.17690493070404 138.84782608691603,79.85427884742967 140.45652173901908,81.42998840959626 150.15217391285114,80.87086625260417 157.41304347803816,79.6001316604088 158.36956521729007,77.10948211935465 156.67391304345801,75.43209862869116 153.8478260866832,75.12711918356945 148.6304347824771,77.21114153668168 139.97826086939313,77.97358648263616 138.76086956518702,79.6001316604088 140.36956521729007,81.48081766426913 152.49999999976717,80.61671960292733 157.10869565210305,79.75261998883798 158.15217391285114,78.83768929337384 158.32608695630915,76.7028442347364 156.41304347803816,75.27960893031559 153.28260869556107,75.27960893031559 146.84782608691603,77.6686086494301 140.02173913037404,78.07524571756949 138.84782608691603,79.95593768477556 140.32608695630915,81.48081766426913 149.84782608691603,81.02335417814902 157.45652173901908,79.49847274806234 158.41304347803816,77.21114153668168 156.89130434789695,75.53375840073568 153.413043478271,75.22877902010805 148.45652173901908,77.3128009327047 140.32608695630915,77.87192722631153 138.7173913042061,79.6001316604088 140.45652173901908,81.53164691361599 156.89130434789695,79.70179055136396 158.28260869556107,78.22773452929687 157.76086956518702,76.19454639521427 153.7173913042061,75.12711918356945 147.45652173901908,77.56694932869868 141.413043478271,77.6686086494301 140.23913043481298,76.7028442347364 138.15217391308397,76.95699295285158 137.80434782616794,69.73911709422828 131.5,68.57001433058758" stroke="#4dd2ff" stroke-linecap="round" stroke-linejoin="round" stroke-width="0.5"><title>2023-08-27 6.7km</title><desc>1693138023000</desc></polyline><polyline fill="none" points="161.5,68.42596752106328 164.63354531000368,68.97799283827771 165.92130365641788,69.98167358883074 168.11049284576438,69.93148960149847 168.79729729727842,74.4982107084943 170.25675675668754,74.79931165545713 170.60015898244455,75.65242996826419 170.34260731306858,77.76012746302877 169.14069952303544,79.51653489435557 170.6860095388256,81.42348417741596 187.2551669315435,79.6169008371071 188.5,77.45902839372866 186.82591414940543,75.5018797890807 183.34896661364473,75.40151297664852 178.11208267090842,77.45902839372866 170.85771065182053,77.86049377682502 169.4411764703691,78.86415574976127 169.1836248014588,80.01836439574254 170.38553259149194,80.97183898682124 170.29968203487806,81.57403247890761 182.61923688394018,80.52019336642115 187.16931637516245,79.71726675858372 188.1995230524335,78.61324045545189 188.1995230524335,76.45536345042638 185.88155802851543,75.25096271792427 183.22019077884033,75.35132956231246 177.1248012718279,77.70994429799612 170.90063592977822,77.8103106225899 169.3982511924114,78.96452183034853 169.31240063579753,80.06854731673957 170.60015898244455,81.37330139975529 186.78298887098208,79.6670838004502 188.0707472176291,78.71360658909543 188.37122416542843,77.10774590494111 186.35373608884402,75.25096271792427 183.09141494426876,75.30114614276681 177.55405405396596,77.45902839372866 171.45866454695351,77.65976112778299 170.90063592977822,76.75646315628546 168.4538950715214,76.95719618728617 167.98171701095998,69.831121611438 165.96422893484123,70.08204154708073 164.59062003181316,69.02817692619283 162.100953895133,68.62670407432597" stroke="#4dd2ff" stroke-linecap="round" stroke-linejoin="round" stroke-width="0.5"><title>2023-08-24 3.9km</title><desc>1692881200000</desc></polyline><polyline fill="none" points="11.5,101.34446485506487 16.727941176504828,99.9905409848725 19.04411764710676,100.30000973961432 20.102941176388413,101.07368048172793 21.625000000116415,100.9963134812424 22.352941176504828,104.86464347576839 38.5,101.80866617179709 18.845588235300966,105.71567058740766 23.411764706019312,104.90332656927058 23.808823529281653,106.25723226438276 22.452205882407725,108.73293258243939 23.709558823495172,109.97077646144317 36.283088235300966,108.65556720108725 37.30882352928165,107.4950845167914 37.044117646990344,105.98645152608515 35.62132352928165,105.13542504413635 33.93382352939807,105.13542504413635 29.036764705902897,106.91484179484542 23.610294117825106,107.22430469433311 22.485294117825106,108.61688450418296 23.544117646990344,109.93209390365519 35.7867647059029,108.8102979476389 36.84558823518455,108.46215367593686 37.30882352928165,107.68849855315057 36.7132352940971,105.67698757976177 34.033088235300966,105.09674197525601 28.07720588229131,107.06957327734563 23.610294117825106,107.22430469433311 22.485294117825106,108.65556720108725 23.577205882407725,110.00945901515661 36.448529411805794,108.65556720108725 37.375000000116415,106.91484179484542 36.84558823518455,105.7930365903594 34.29779411770869,105.09674197525601 27.8125,107.1469389940903 24.404411764699034,107.10825613772613 23.34558823518455,106.29591521070688 21.261029411805794,106.72142734963563 22.319852941087447,106.45064695479232 21.724264705902897,105.67698757976177 21.591911764699034,101.11236397584435 19.67279411770869,101.30578138545388 18.845588235300966,100.45474401902175 17.09191176481545,100.14527539498522" stroke="#4dd2ff" stroke-linecap="round" stroke-linejoin="round" stroke-width="0.5"><title>2023-08-22 5.1km</title><desc>1692706390000</desc></polyline><polyline fill="none" points="49.232594936620444,109.64492688892642 50.770569620421156,111.29310043185251 67.17563291150145,109.59498214631458 68.45727848098613,108.14658231567591 68.24367088614963,106.5982879322255 65.2531645570416,105.0000432470988 62.13449367089197,105.4495501111378 58.93037974671461,106.99784825873212 50.72784810117446,107.64713306890917 49.14715189882554,109.7448163581139 50.68512658216059,111.34304499489372 66.83386075939052,109.69487162603764 68.37183544319123,108.3463618666865 68.37183544319123,106.64823299148702 66.96202531666495,105.34965973388171 65.0395569622051,104.95009801362175 57.264240506337956,107.39740824737237 50.770569620421156,107.6970780172851 49.360759493662044,108.89575519616483 49.27531645563431,109.8447058062884 50.98417721525766,111.29310043185251 67.26107594929636,109.49509264534572 68.5,108.14658231567591 68.2863924051635,106.54834286757978 66.87658227863722,105.34965973388171 65.08227848098613,104.95009801362175 57.30696202535182,107.39740824737237 50.72784810117446,107.64713306890917 49.14715189882554,109.59498214631458 50.81329113920219,111.34304499489372 66.91930379741825,109.64492688892642 68.5,107.34746326736058 67.04746835445985,105.29971453736653 64.09968354436569,104.95009801362175 58.41772151901387,107.04779327579308 50.68512658216059,107.64713306890917 49.14715189882554,109.59498214631458 50.98417721525766,111.34304499489372 60.46835443051532,110.74370988958981 67.30379746854305,109.49509264534572 68.45727848098613,108.04669250850566 68.2863924051635,106.44845272257226 66.66297468356788,105.14987891595229 64.5696202532854,104.9001527747605 56.79430379741825,107.44735322232009 50.642405063146725,107.6970780172851 49.18987341760658,109.64492688892642 50.770569620421156,111.39298955278355 66.96202531666495,109.69487162603764 68.45727848098613,108.14658231567591 67.64556962018833,105.74922111621709 64.52689873427153,105.04998847527895 58.375,107.1976282952528 50.898734177229926,107.6970780172851 49.232594936620444,109.59498214631458 50.81329113920219,111.34304499489372 67.17563291150145,109.59498214631458 68.4145569622051,108.14658231567591 67.81645569647662,105.94900168088498 64.48417721525766,105.0000432470988 56.06803797464818,107.59718811511993 51.710443038027734,107.54724315615022 50.47151898732409,106.64823299148702 47.395569620188326,107.14768329408253 48.4636075948365,106.64823299148702 48.164556961972266,99.80571068581776 45.985759493662044,100.00549376331037 44.6613924051635,99.10646924958564 41.5,98.60701044724556" stroke="#4dd2ff" stroke-linecap="round" stroke-linejoin="round" stroke-width="0.5"><title>2023-08-19 7.3km</title><desc>1692445251000</desc></polyline><polyline fill="none" points="72.99037227209192,100.68458765209652 76.76829268294387,99.79312761119218 79.22913992288522,99.9552114092221 80.30359435162973,100.88719191783457 82.00192554551177,100.80615022452548 82.52182284975424,104.77717305385158 83.7695763799129,104.97977515650564 84.11617458285764,106.2764260781696 82.86842105258256,108.99127474127454 84.15083440300077,110.16635252931155 97.18292682932224,108.86971476455801 98.46534017962404,107.77567323928815 98.01476251613349,105.87122313634609 95.10333761223592,105.14185676159104 89.62708600773476,107.0463104879309 84.11617458285764,107.28943155927118 82.83376123232301,108.66711471768213 84.04685494210571,110.20687238880782 91.3254172016168,109.80167360120686 97.35622593061998,108.7886747586308 98.5,106.88422968803206 97.52952503215056,105.46601976605598 94.51412066747434,105.1823771521158 89.76572528877296,107.00579029443907 83.838896020432,107.45151218771935 82.83376123232301,108.91023476113332 84.08151476248167,110.16635252931155 91.08279845956713,109.76115369884064 97.52952503215056,108.66711471768213 98.46534017962404,106.88422968803206 97.2869062902173,105.42549940556637 94.27150192542467,105.22289753842051 88.89922978181858,107.16787104282412 84.84403080865741,107.2083912192611 84.18549422337674,106.68162859184667 84.2894736842718,106.7626690431789 83.7695763799129,105.06081596761942 82.45250320923515,104.65561174077448 81.9672657251358,100.88719191783457 80.13029525033198,101.08979607641231 79.19448010274209,100.2793787997216 77.14955070603173,99.99573234797572 71.5,101.25187932618428" stroke="#4dd2ff" stroke-linecap="round" stroke-linejoin="round" stroke-width="0.5"><title>2023-08-17 3.9km</title><desc>1692273588000</desc></polyline><polyline fill="none" points="108.12773454356648,118.5 108.2369419401366,118.44994812386358 108.4358554125065,118.1723866719476 108.8297820930311,117.9903781985704 108.82588182885956,117.91757459544169 108.97799213125836,117.98127775487228 108.86878473467368,117.735565053139 109.13400269781414,117.6855122951456 109.68393994487997,117.40794595286934 109.97645975716296,116.87555963839259 111.22844455369341,116.0837935494419 111.84078602740192,115.8517214400963 112.25031376458355,115.6014462053281 112.6325396526372,115.60599667702263 112.93676025739114,115.53318907251742 114.31355350719241,114.6094319797412 114.98049867918598,113.95869473033235 115.23791611398337,113.59464166100952 115.67084543615056,112.52976889301863 116.34169087230111,111.44211544423888 116.89162811939605,110.29072035663557 117.18414793166448,109.82651289984278 117.68728200878832,108.56584600879796 118.17871529339754,107.71931265408057 118.29572321832529,107.18680739839692 118.10851053845545,107.12308838269746 117.37136061153433,107.63283788641274 116.63811094875564,108.59770446827315 116.54060434465646,108.85712248127675 116.48210038221441,108.86622483951942 116.46649932554283,108.79795710615144 116.60690883544157,108.25181137002801 117.05933947843732,107.53726031094993 117.16074634669349,107.10943429572944 117.68338174461678,106.28107830894442 119.02507261693245,104.73810930185573 119.14208054184564,104.25563574576881 119.38779718415753,103.96888005032088 119.41509903330007,103.8732943969735 119.30199137254385,103.81412222022482 119.52040616571321,103.33163838001565 119.66081567561196,103.2724654638696 119.84412809129572,103.39536296860024 120.09764526193612,103.09494623076534 120.07814394112211,102.98570326444678 120.20295239436382,102.73990558353762 120.19515186604986,102.5077620495249 120.59297881073144,101.90691418797724 120.71778726397315,101.56096770139266 120.6826848865021,101.30150602438152 120.76849069808668,101.03293879289413 120.79579254725832,100.50035139445754 120.62418092403095,99.59448258105476 120.67878462233057,99.30769604570014 120.66708382983052,99.46246996719128 120.73338832061563,99.51254376461293 120.7879920189007,99.32590477103076 120.7528896414442,99.13016057270943 120.74118884894415,99.1802347541161 120.6475825090165,99.1529215714254 120.7645904339297,99.18933914451918 120.78019149058673,99.13016057270943 120.71778726397315,99.1392649736299 120.67488435817359,98.76598296730663 120.59687907488842,98.64762458659607 120.74118884894415,98.28344292596739 120.76849069808668,98.02851394242316 120.78019149058673,98.07403708519996 120.8815983588429,97.96478146218942 120.87769809467136,98.02396162550576 120.89329915134294,97.88283956416126 120.97130443461356,97.92836285998055 120.91280047214241,97.94201983939638 120.97130443461356,97.89194422716537 120.78019149058673,97.75082173586998 120.80749333972926,97.67343178744704 120.85429650970036,97.70529825353515 120.79189228307223,97.70529825353515 120.83869545304333,97.50954673452725 120.70218620731612,97.37752776890193 120.56957722574589,96.8995247010389 120.61638039571699,95.74774326641636 120.92060100048548,95.09217019941207 120.97130443461356,94.77348526422793 120.92840152881399,94.22261006214467 120.78019149058673,93.93123522205497 120.73338832061563,93.26652903317881 120.78019149058673,93.07986313216315 120.9167007363285,93.07986313216315 120.99860628375609,92.93872496566473 120.95570337794197,92.82490352870082 121.00250654791307,92.75661052295618 121.30672715269611,92.58360109321438 121.56024432332197,92.3377443991194 121.87226545643352,91.5 121.80206070147688,91.60471893597787 121.76695832399128,91.57284798225737 121.75915779567731,91.58195397142481 121.79426017314836,91.66390778778805 121.52124168169394,92.3696147900373 121.552443795008,92.58815398179286 121.23652239773946,93.18913107426852 121.47833877587982,95.11038069633287 121.44323639842332,95.31524825926317 121.25602371856803,95.58840350291212 121.1819186994544,96.17568144519828 121.41593454926624,97.14535550883375 121.35353032265266,97.23185120210474 121.49003956837987,97.52775621546243 121.45103692675184,97.85552556372932 121.17801843526831,98.63852008238246 121.17801843526831,98.99814654437068 121.0883123595122,99.3213525904066 121.1819186994544,99.58082612241196 121.26772451105353,100.47303904375076 121.1468163219688,100.79168206429313 120.98300522709906,100.8508583673065 120.82699466055783,101.13763469122205 120.7528896414442,101.1239787188315 120.72558779230167,101.56096770139266 120.44866903667571,102.1754760040094 120.19905213019229,102.48045096378337 120.20685265853535,102.71714646851251 119.30589163671539,103.76405339219127 119.25518820257275,103.8732943969735 119.4658024674136,103.99163850815967 119.2083850326162,103.90970800404466 119.14988107017416,104.04625875817874 108.56846439406218,118.09958337421995" stroke="#4dd2ff" stroke-linecap="round" stroke-linejoin="round" stroke-width="0.5"><title>2023-08-15 13.0km</title><desc>1692056055000</desc></polyline><polyline fill="none" points="147.91485819238005,91.5935391522271 147.90050433565193,91.64390622803694 147.9497175587312,91.65110151544468 147.93126260007557,91.66789051049273 147.90050433565193,91.59114071725344 147.93126260007557,91.55756260093585 147.90050433565193,91.58394541079906 147.78157237986306,91.5 147.7733701760153,91.75423371702527 147.65033711829165,91.82138931679583 147.67084262791468,91.87895110097452 147.75286466639227,91.92691914271563 147.67904483175516,91.93411434021618 147.71390419810632,91.91492714180458 147.7549152173524,91.9604967114974 142.1897199066807,105.98197825886746 142.1938210086082,105.84535380331363 142.25943863939028,105.80700293106383 142.18766935572057,105.87891076335109 142.21022541630373,105.95081836773898 142.0502824412688,106.14976155245859 142.18561880475318,106.26481223670817 142.31070241343696,106.47094325376383 142.33530902498023,106.62194501979138 142.3742694932589,106.6578976731198 142.4419376750011,107.16841920297338 142.43168492018594,107.71008676601559 142.63674001637992,108.47463092538055 142.8992105395082,109.24154590018588 143.1206700433977,109.77357794045929 143.30932073189615,110.64589177987727 143.64356053869415,111.71706649523185 144.0926311993535,112.22268174545025 144.23616976667836,112.24664427407697 144.5211963503898,112.39281515108269 144.5622073696286,112.49585307273082 144.5540051657881,112.42396619995998 144.4637809234555,112.34968285900868 144.58886453213927,112.38323020436837 144.61962279657018,112.68515408231542 144.71189758985565,112.76902111376148 145.01127803029522,112.91039626560632 145.08714841589244,112.85528402295677 145.22453533032967,112.87205732835719 145.160968250515,113.07093986231303 145.26349579860835,113.21710543343579 145.27579910438362,113.41119268862349 145.44804538518656,113.50464151619599 145.42959042652365,113.60288217671587 145.36397279574157,113.63882377560549 145.21018147360883,113.60048606810415 145.15481659762736,113.71789509294103 145.160968250515,113.86405650019879 145.01742968318285,114.00063270274404 145.05844070242165,114.08449487626604 145.03178353991098,114.33607953889805 145.08304731396493,114.37920805838257 145.2060803716813,114.38879216270288 145.27784965534374,114.66433343238714 145.423438773636,114.74819315532841 145.3578211428612,114.79850884048392 145.27784965534374,114.78652892555147 145.21838367744203,114.82965658972171 145.35987169382133,115.1291519986662 145.38037720344437,115.24655312157302 145.3127090216949,115.6802132336943 145.13431108800432,116.03001038587354 145.23888918707235,116.89489665989822 145.22453533032967,117.33810816808545 145.11790668031608,117.56330421646453 144.75906026198209,117.84599396876183 144.71599869176862,117.92984194780729 144.80622293410124,118.25085706478421 144.79186907736585,118.5" stroke="#4dd2ff" stroke-linecap="round" stroke-linejoin="round" stroke-width="0.5"><title>2023-08-14 8.0km</title><desc>1691992321000</desc></polyline><polyline fill="none" points="164.88585209008306,100.54513801500434 164.3938906751573,100.03889497675118 164.48070739547256,100.37639042403316 163.90192926034797,100.30889136277256 162.88906752411276,99.76889836456394 161.5,99.83639753877651 162.45498392276932,100.84888345620129 161.96302250795998,100.9501318729308 165.11736334406305,102.84009648003848 167.17202572338283,102.7725979349052 168.18488745985087,103.7850746268814 169.71864951762836,103.48133195322589 170.49999999988358,104.66255185339833 171.65755627001636,104.66255185339833 173.8569131832337,105.74252054435783 175.5064308681758,105.97876321314834 175.88263665593695,107.15997395888553 176.83762057882268,107.90244706868543 178.60289389069658,107.93619580572704 178.74758842447773,108.57742113867425 178.74758842447773,108.03744199580979 183.0305466238642,107.63245704490691 184.6800643086899,109.04990214644931 186.01125401933677,108.57742113867425 188.5,110.23110163540696" stroke="#4dd2ff" stroke-linecap="round" stroke-linejoin="round" stroke-width="0.5"><title>2023-08-12 1.2km</title><desc>1691805906000</desc></polyline><polyline fill="none" points="11.5,130.81567076049396 12.264478764380328,130.89692102116533 17.02509652497247,129.6781653087528 18.936293436330743,129.96254198730458 19.97876447858289,130.7750456237991 21.785714285681024,130.81567076049396 22.37644787633326,134.71566389355576 23.592664092662744,134.87816274852958 24.079150579171255,136.1375265457027 22.65444015432149,138.77811465901323 23.940154440002516,140.3218346912472 37.457528957515024,138.69686606439063 38.32625482615549,137.8437547851354 38.25675675668754,136.34064935246715 37.04054054047447,135.32503424567403 35.19884169881698,135.0812862207822 28.944015444023535,137.15313950553536 23.9749034747947,137.2750128803309 22.689189189113677,138.45312017787364 22.75868725858163,139.2249816216936 24.148648648522794,140.19996228264063 31.862934362958185,139.75309645337984 37.318532818579115,138.77811465901323 38.46525096532423,137.19376396804 38.013513513375074,135.93440363180707 36.41505791503005,135.16253557961318 34.08687258686405,135.2437849213311 29.187258687103167,137.07189056748757 23.801158301183023,137.31563732994255 22.65444015432149,138.6562417607347 23.905405405326746,140.159338137717 35.72007721988484,139.14373312165844 38.11776061763521,138.16874978150008 38.5,136.95001712816884 38.04826254816726,135.97502822309616 35.372586872428656,135.04066153493477 28.874517374439165,137.11251503860694 23.731660231482238,137.31563732994255 22.584942084853537,138.77811465901323 23.9749034747947,140.1187139886315 37.353281853254884,138.77811465901323 38.46525096532423,137.43751065334072 37.49227799219079,135.52815748180728 34.955598455504514,135.04066153493477 29.465250965207815,136.95001712816884 24.63513513514772,137.11251503860694 23.662162162014283,136.70627013375633 23.627413127338514,135.0812862207822 22.34169884165749,134.67503916911664 21.75096525088884,130.8562958930852 16.677606177632697,129.84066629374865" stroke="#4dd2ff" stroke-linecap="round" stroke-linejoin="round" stroke-width="0.5"><title>2023-08-10 4.9km</title><desc>1691669419000</desc></polyline><polyline fill="none" points="41.5,128.54573442263063 44.56230031955056,128.94913130850182 45.94249201263301,129.9071975450497 48.01277955272235,129.85677305428544 48.57348242797889,134.64707588235615 50.12619808292948,134.8991957513208 50.60063897748478,136.15979309761315 49.00479233218357,139.94156515039504 50.51437699678354,141.3534190314822 67.20607028738596,139.689447946148 68.5,138.12631830654573 67.68051118170843,136.00852159204078 63.32428115000948,135.25216334409197 56.68210862623528,137.6220818462316 50.255591054214165,137.82377649427508 48.96166134183295,139.7398713977018 50.42811501584947,141.3534190314822 67.07667731610127,139.7902948439296 68.37060702871531,138.47928351158043 68.32747603813186,136.7144548748911 66.47284345026128,135.3530111797445 64.57507987204008,135.15131548707723 56.33706070296466,137.7229291809199 50.298722044797614,137.8742001428909 48.832268370781094,139.5886010271497 50.55750798736699,141.45426557734027 67.11980830668472,139.7398713977018 68.45686900941655,137.92462378635537 67.6373801913578,136.00852159204078 63.798722044564784,135.20173941823305 57.760383386397734,137.4203871130303 50.42811501584947,137.82377649427508 49.00479233218357,139.28606014238903 50.08306709257886,140.74833930830937 52.11022364208475,140.49622253046255 53.05910543119535,139.48775408696383 50.38498402549885,136.7144548748911 45.38178913737647,137.67250551629695 48.271565495058894,136.86572615653859 47.88338658143766,130.00804651077488 45.89936102228239,130.10889545510872 41.801916932919994,128.64658367607626" stroke="#4dd2ff" stroke-linecap="round" stroke-linejoin="round" stroke-width="0.5"><title>2023-08-08 4.2km</title><desc>1691495320000</desc></polyline><polyline fill="none" points="71.5,131.09016675277962 76.61284046713263,129.69816178968176 78.92412451375276,130.06663417856907 80.07976653706282,130.885460454243 81.6206225680653,130.72169533753186 82.18093385221437,136.45343322283588 83.65175097296014,136.33061115749297 82.60116731515154,138.62328328963486 83.68677042820491,140.2608979330107 97.27431906643324,138.86892592752702 98.32490272400901,137.7225922847574 98.11478599230759,136.12590762850596 96.64396887179464,135.18427000232623 94.5428015566431,135.06144753450644 89.88521400792524,136.90378046274418 83.82684824918397,137.2722459968354 82.60116731515154,138.5004619123938 82.7762645916082,139.36021073590382 84.14202334638685,140.30183821034734 97.30933852144517,138.82798549864674 98.5,136.98566172283608 97.7996108951047,135.67555948419613 94.92801556433551,135.0205067032366 89.95525291841477,136.90378046274418 84.00194552540779,137.19036479730858 82.60116731515154,138.78704506563372 83.79182879370637,140.30183821034734 97.30933852144517,138.82798549864674 98.28988326853141,137.7225922847574 98.21984435804188,136.24872975889593 96.92412451375276,135.2252108163666 94.89299610909075,134.9795658676594 89.95525291841477,136.9447210948565 83.93190661491826,137.19036479730858 82.7762645916082,138.13199754655943 82.6712062258739,139.19644920239807 83.82684824918397,140.2199576513085 97.13424124545418,138.95080677221995 98.35992217902094,137.80447337171063 98.35992217902094,136.53531457812642 97.30933852144517,135.38897402884322 95.6284046692308,134.93862502777483 89.88521400792524,136.86283982626628 83.72178988344967,137.23130539915292 82.56614785990678,138.58234283485217 83.75680933869444,140.30183821034734 91.04085603123531,139.85149492122582 97.4143968874123,138.78704506563372 98.28988326853141,137.76353283034405 98.18482490279712,136.08496690978063 97.23929961095564,135.307092431176 95.27821011678316,134.93862502777483 89.21984435804188,137.10848358049407 83.75680933869444,137.3131865900359 82.70622568088584,139.0326875996834 84.14202334638685,140.2199576513085 97.34435797668993,138.82798549864674 98.4299610897433,137.35412717904546 97.76459143962711,135.63461871788604 94.99805447482504,135.0205067032366 90.09533073939383,136.86283982626628 83.82684824918397,137.2722459968354 82.6712062258739,138.62328328963486 83.54669260722585,139.64679325302131 85.29766536969692,139.36021073590382 85.96303501958027,138.13199754655943 83.44163424149156,136.8218991853646 83.68677042820491,136.24872975889593 82.1459143969696,136.53531457812642 81.76070038927719,130.80357790464768 79.79961089487188,130.96734298663796 78.889105058508,130.06663417856907 76.75291828811169,129.73910318349954 72.37548638158478,130.92640172265237" stroke="#4dd2ff" stroke-linecap="round" stroke-linejoin="round" stroke-width="0.5"><title>2023-08-05 7.1km</title><desc>1691194711000</desc></polyline><polyline fill="none" points="101.84951456310228,128.4366474499402 104.42718446603976,128.79418888877262 105.47572815534659,129.76465717487736 107.79126213607378,129.81573439901695 108.53398058237508,134.71912278688978 109.93203883501701,134.8212761824543 110.45631067967042,136.60895711096236 108.75242718448862,139.9799945819541 110.41262135910802,141.5633525500889 127.23300970881246,139.72461377867148 128.5,137.63048610059195 127.18932038848288,135.63850257039303 123.60679611656815,135.17881289726938 118.01456310669892,137.37510405562352 110.32524271844886,137.8347916394123 108.75242718448862,139.67353760174592 110.28155339788646,141.5633525500889 127.10194174782373,139.72461377867148 128.36893203901127,138.60093664069427 128.2378640777897,136.60895711096236 126.7961165048182,135.4852727278776 124.17475728178397,135.0766595772002 116.44174757297151,137.68156249346794 110.32524271844886,137.8347916394123 108.88349514594302,139.2649279924808 109.01456310693175,140.3375274798309 111.24271844676696,141.51227656757692 127.10194174782373,139.72461377867148 128.36893203901127,138.44770773753407 128.19417475746013,136.45572757616173 126.83980582538061,135.38311947256443 124.48058252432384,135.02558290903107 116.52912621363066,137.63048610059195 110.15048543689772,137.8858680105477 108.75242718448862,139.9799945819541 110.63106796098873,141.5633525500889 126.92718446627259,139.82676611607894 128.32524271844886,138.4987840440008 128.28155339811929,136.7111101069895 125.2233009710908,135.02558290903107 115.26213592221029,137.78371526268893 111.15533980587497,137.68156249346794 110.10679611656815,136.66003361169714 106.6116504855454,137.3240276305005 108.09708737861365,136.7111101069895 107.61650485452265,129.76465717487736 105.65048543689772,129.91788883131812 104.1213592234999,128.89634353699512 101.5,128.48772481450578" stroke="#4dd2ff" stroke-linecap="round" stroke-linejoin="round" stroke-width="0.5"><title>2023-08-03 4.9km</title><desc>1691062783000</desc></polyline><polyline fill="none" points="131.5,128.30587177330744 132.6892332790885,129.02678726270096 134.01060358900577,128.82081151756574 134.89151712902822,129.7991955319303 137.53425774886273,129.59322011328186 138.0628058728762,136.6993217317504 140.00081566069275,136.9052941458358 138.63539967359975,139.8918843654974 140.17699836869724,141.59114304266404 156.42985318112187,139.8918843654974 158.1035889070481,138.91352062040824 158.41190864611417,137.67768992346828 157.97145187598653,136.28737664190703 154.84420880908147,135.15452584941522 146.16721044038422,137.8321689319855 140.08890701457858,137.9351549105195 138.63539967359975,139.9433771398326 140.1329526915215,141.53965044260258 149.03017944539897,141.0762167967623 157.53099510609172,139.6344204125635 158.5,137.8321689319855 157.97145187598653,136.28737664190703 154.35970636224374,135.20601912442362 146.78384991828352,137.67768992346828 140.221044045873,138.0381408672547 138.503262642771,139.68591321411077 140.17699836869724,141.69412822666345 157.09053833619691,139.8918843654974 158.5,138.34709860687144 158.1035889070481,136.49334923029528 156.56199021195062,135.46348541765474 154.13947797729634,135.20601912442362 145.81484502460808,137.88366192387184 140.08890701457858,138.0381408672547 138.59135399665684,139.9433771398326 140.1329526915215,141.59114304266404 147.09216965758242,140.87024614596157 145.0660685156472,138.19261976145208 139.8246329529211,137.21425260370597 139.86867862963118,135.30900565805496 138.19494290370494,134.63959280023118 137.53425774886273,129.7991955319303 134.89151712902822,129.90218320852728 134.09869494312443,128.97529333466082 131.5,128.61483568511903" stroke="#4dd2ff" stroke-linecap="round" stroke-linejoin="round" stroke-width="0.5"><title>2023-08-01 4.2km</title><desc>1690892153000</desc></polyline><polyline fill="none" points="187.45180722884834,138.84533171131625 188.3915662651416,137.83119123466895 188.1385542168282,136.0986953022075 186.87349397595972,135.29582878763904 184.7771084336564,135.16906024320633 178.41566265071742,137.19735213025706 173.46385542163625,137.40863194334088 172.23493975913152,138.88758750873967 173.46385542163625,140.32428196180263 181.19879518076777,139.81721392075997 187.56024096393958,138.71856429241598 188.5,137.2396081018669 187.81325301202014,135.76064643997233 185.17469879519194,135.08454785789945 178.81325301202014,137.1128401737369 173.3915662651416,137.324120031466 172.23493975913152,139.01435487400158 173.6084337348584,140.32428196180263 187.01807228918187,138.97209908996592 188.3915662651416,137.6199116447533 187.92168674711138,135.8451586822921 185.06626506033354,135.1268040527939 180.18674698797986,136.85930419701617 174.25903614447452,137.2396081018669 173.28313253028318,136.39448782219552 171.54819277115166,136.47899993043393 171.29518072283827,130.73213586313068 169.48795180721208,130.85890581452986 168.58433734928258,129.92925857086084 166.19879518076777,129.67571803822648 161.5,130.90116245602258" stroke="#4dd2ff" stroke-linecap="round" stroke-linejoin="round" stroke-width="0.5"><title>2023-07-30 3.2km</title><desc>1690716823000</desc></polyline><polyline fill="none" points="11.776568501954898,159.52354323898908 11.5,160.93814380999538 12.087708066683263,160.4127213516913 12.433418694068678,161.0189779701468 13.366837387904525,160.93814380999538 17.342509603127837,159.96813255370944 19.34763124200981,160.2510527576087 20.350192061509006,161.18064623943064 22.044174135662615,161.05939504384878 22.528169014141895,164.89899756675004 23.980153649346903,165.30316401048913 23.980153649346903,167.4452390303777 22.908450704300776,169.02147524917382 24.153008962864988,170.43604068265995 37.428297055186704,168.9810590170091 38.43085787456948,167.8494027828565 37.94686299620662,166.11149561638013 35.38860435341485,165.3435806313937 29.78809218958486,167.20274057378992 24.153008962864988,167.48565542476717 22.87387964152731,169.02147524917382 24.08386683743447,170.43604068265995 37.32458386698272,168.9810590170091 38.46542893734295,167.64732096006628 38.016005121637136,166.11149561638013 35.3540332907578,165.3435806313937 28.992957746610045,167.40482263168087 24.08386683743447,167.526071815053 22.804737516096793,169.02147524917382 24.18758002575487,170.47645676101092 37.428297055186704,168.9810590170091 38.5,167.16232414953993 37.94686299620662,166.07107907673344 35.76888604357373,165.3435806313937 29.89180537778884,167.20274057378992 23.84186939825304,167.56648820091505 22.87387964152731,169.02147524917382 24.153008962864988,170.3552085130941 33.83290653023869,169.58730205043685 37.601152368821204,168.81939404568402 38.5,167.28357340977527 37.73943661968224,165.90941287516034 34.386043533915654,165.42441386033897 29.234955185791478,167.3239898213942 24.8790012805257,167.3239898213942 23.91101152356714,166.55607727140887 22.389884763164446,166.6369102439494 21.9750320102321,161.14022917859256 16.962227912968956,160.04896691913018 12.779129321454093,161.22106329607777" stroke="#4dd2ff" stroke-linecap="round" stroke-linejoin="round" stroke-width="0.5"><title>2023-07-29 4.9km</title><desc>1690631888000</desc></polyline><polyline fill="none" points="41.5,158.446595426758 41.55654905753909,158.46185572167815 41.92194296763046,158.61445840439774 43.100773320446024,159.40289788251175 43.179072015482234,159.43341786045494 43.27912034801557,159.35711787928085 43.54881585307885,159.51989102606967 43.68366360559594,159.51480437357168 65.08530691155465,170.40918052074994 65.8160947317374,170.21593110580943 66.08144030932453,170.2718718057513 66.22498791685211,170.37866750683315 66.4468342194159,170.36341099261335 66.50338327695499,170.85161704782513 66.67738037699019,170.88212976177965 66.70347994199255,171.0397784756533 66.54688255194924,171.38558674839442 66.70347994199255,171.55340457323837 68.3651522474538,171.365245154102 68.5,171.19742667296669 68.4521507974714,171.0092658616668 68.13460608987953,170.89738611150096 67.2994200096582,171.15674331665286 66.64693088448257,171.19234125531148 66.5338327694335,171.38050135062804 66.69043015950592,171.53814843152213 67.57781536973198,171.48729459090464 68.36950217495905,171.3601597541783 68.4913001449604,171.11605992594195 68.27815369743621,170.92281335030202 68.02150797485956,170.9075570086352 67.30376993716345,171.16691415895184 66.69913001448731,171.16691415895184 66.52948284192826,171.37541595231596 66.69913001448731,171.54323381264112 68.35645239247242,171.37033055346546 68.49565007249475,171.16182873808066 68.39560173996142,170.96858234624597 68.05195746736717,170.9075570086352 67.50821652970626,171.12114535166984 66.68608023200068,171.16691415895184 66.5338327694335,171.3601597541783 66.6599806669692,171.48220920389213 66.86877718701726,171.44152608836885 66.94707588205347,171.3194765354674 66.6686805219797,171.06012020755952 66.46858385691303,171.08554736034057 66.41203479940305,170.37358200264134 66.20323827935499,170.39392401620717 66.07709038181929,170.28204283511877 65.80304494925076,170.25152974056618" stroke="#4dd2ff" stroke-linecap="round" stroke-linejoin="round" stroke-width="0.5"><title>2023-07-27 4.7km</title><desc>1690456073000</desc></polyline><polyline fill="none" points="71.5,160.47201285569463 75.59655172401108,159.33999857012532 77.83103448268957,159.81892807062832 78.87379310326651,160.7332464796491 80.69862068933435,160.64616862346884 81.2572413792368,165.00003888685023 82.56068965513259,164.8694234485738 82.8958620687481,165.39188495327835 82.82137931021862,167.30757146759424 81.74137931037694,169.17971104406752 83.0448275860399,170.66000142987468 97.38275862042792,169.1361730111821 98.42551724100485,167.78649170399876 98.16482758615166,166.3061909918324 96.8241379307583,165.34834651989513 94.7386206893716,165.21773119198042 87.99793103453703,167.39464791567298 82.67241379292682,167.56880075644585 81.62965517234989,169.17971104406752 82.93310344801284,170.66000142987468 97.15931034460664,169.17971104406752 98.5,167.6123389552231 97.79241379280575,165.82726903425646 94.62689655157737,165.08711582273827 88.10965517233126,167.30757146759424 83.1937931033317,167.3511096938746 81.55517241358757,169.09263497349457 83.00758620677516,170.5729256720224 97.23379310313612,169.1361730111821 98.46275862050243,167.3511096938746 97.9041379308328,165.95788416889263 95.37172413780354,165.0435773571371 88.55655172397383,167.1769567609008 83.0448275860399,167.39464791567298 81.59241379308514,169.00555888435338 83.00758620677516,170.61646355318953 97.15931034460664,169.09263497349457 98.46275862050243,167.52526255318662 97.68068965477869,165.74019225483062 94.77586206886917,165.08711582273827 88.25862068939023,167.30757146759424 83.78965517226607,167.3511096938746 82.70965517219156,166.4803442930861 80.99655172391795,166.61095922038658 80.62413793080486,160.64616862346884 78.91103448253125,160.7332464796491 75.3731034481898,159.51415481654112" stroke="#4dd2ff" stroke-linecap="round" stroke-linejoin="round" stroke-width="0.5"><title>2023-07-25 4.8km</title><desc>1690287553000</desc></polyline><polyline fill="none" points="101.93062200956047,158.455341249326 104.7296650717035,159.00912735436577 105.46172248804942,159.86497734091245 108.00239234464243,159.86497734091245 108.56220095674507,165.05038849113043 110.24162679398432,164.94970143327373 110.62918660277501,166.20828812464606 108.99282296630554,169.73231316712918 110.62918660277501,171.49431591079338 126.82057416276075,169.83299921368598 128.370813397225,168.3227062789956 127.8540669856593,166.15794472076232 124.40909090894274,165.1510755274212 117.43301435397007,167.51721475544036 110.37081339722499,168.0206471173151 109.03588516730815,169.68197013574536 110.45693779899739,171.44397306576138 120.18899521511048,170.8902014187188 127.20813397108577,169.73231316712918 128.41387559799477,167.41652821938624 126.69138755975291,165.50347998715006 123.33253588527441,165.35244953638176 116.61483253585175,167.7689310029673 110.45693779899739,167.91996068751905 109.03588516730815,169.68197013574536 110.58612440200523,171.49431591079338 126.94976076553576,169.83299921368598 128.5,167.51721475544036 127.25119617232122,165.75519729891676 125.05502392328344,165.20141903767944 118.42344497609884,167.31584166176617 110.84449760732241,167.8696174645156 108.99282296630554,169.8833422290918 110.54306220100261,171.544658750674 127.16507177031599,169.73231316712918 128.32775119598955,168.47373578799306 128.28468899521977,166.8124085550662 126.82057416276075,165.5538234602136 124.45215311017819,165.20141903767944 115.96889952151105,167.819274236419 110.49999999976717,167.8696174645156 109.03588516730815,169.3295687675709 109.2081339713186,170.38677209004527 110.49999999976717,171.49431591079338 126.94976076553576,169.782656193187 128.32775119598955,168.3227062789956 128.11244019144215,166.40966168660088 126.088516746182,165.25176254258258 123.5047846888192,165.30210604215972 121.35167464101687,166.1076013117272 117.82057416276075,167.5675580156676 111.2320574161131,167.66824451996945 110.37081339722499,166.7620652152109 108.51913875597529,166.91309521903167 108.00239234464243,159.96566547369002 105.54784689005464,160.06635358490166 104.42822966515087,159.16015981667442 101.5,158.70706228594645" stroke="#4dd2ff" stroke-linecap="round" stroke-linejoin="round" stroke-width="0.5"><title>2023-07-22 5.7km</title><desc>1690027086000</desc></polyline><polyline fill="none" points="136.6814621409867,159.60174038336845 138.90208877273835,160.01382675833884 139.71279373345897,160.79678967085783 141.75718015665188,160.71437259635422 142.39164490858093,164.83520498438156 143.51958224526607,164.91762118783663 143.90731070493348,166.1950701138121 142.5678851173725,169.1620321138471 143.87206266308203,170.35705209625303 157.23107049590908,168.95599381564534 158.4295039162971,167.63734612840926 157.8302872062195,165.82419827612466 154.93994778068736,165.24728582749958 149.15926892939024,167.1840599559073 143.6253263708204,167.47251485392917 142.53263707552105,168.91478614287917 143.80156657961197,170.35705209625303 151.09791122702882,169.94497665404924 157.44255874678493,168.91478614287917 158.4295039162971,167.0604363628663 158.11227154033259,166.1950701138121 156.77284595300443,165.4121180428192 154.83420365536585,165.16486969368998 148.6305483027827,167.3076835098327 143.80156657961197,167.34889135236153 142.49738903390244,168.91478614287917 143.8368146212306,170.39825961663155 157.44255874678493,168.91478614287917 158.5,167.3076835098327 157.86553524807096,165.86540627558134 154.93994778068736,165.0824535425636 149.37075718003325,167.10164423150127 143.6253263708204,167.43130702446797 143.69582245429046,167.96700846837484 144.47127937339246,167.84338512361865 144.43603133154102,167.34889135236153 143.59007832896896,167.5137226791412 142.5678851173725,168.8323707843665 143.73107049590908,169.86256151332054 145.24673629226163,169.53290077619022 145.8812010444235,168.42029373065452 143.87206266308203,166.81318905911758 143.30809399485588,165.0000373738294 142.0744125326164,164.71158064639894 141.68668407318182,160.92041525023524 139.95953002618626,161.04404079029337 138.65535248047672,160.09624398118467 136.46997389034368,159.84899226066773 131.5,161.16766629109043" stroke="#4dd2ff" stroke-linecap="round" stroke-linejoin="round" stroke-width="0.5"><title>2023-07-20 4.1km</title><desc>1689854520000</desc></polyline><polyline fill="none" points="161.5,158.4323625586403 164.24354838719591,158.9414884132275 165.68064516130835,159.95973850766313 167.50967741943896,159.70517618584563 168.29354838724248,162.70900301050278 167.814516129205,165.25460429905797 168.25000000023283,166.93469377970905 170.16612903238274,166.83287034157547 168.72903225803748,169.73482989156037 170.4274193549063,171.5167262145842 187.06290322588757,169.83665271603968 188.5,167.5456339561497 186.97580645163544,165.56007554958342 184.01451612915844,165.10186860110844 176.65483870962635,167.69836887912243 169.90483870985918,168.20748493933934 168.77258064527996,169.73482989156037 170.38387096789666,171.5167262145842 179.87741935485974,171.00761365212384 187.237096774159,169.83665271603968 188.45645161275752,167.3419873167877 187.01935483864509,165.56007554958342 183.97096774191596,165.20369240513537 178.57096774177626,167.24016396480147 170.2967741934117,167.95292697648983 168.77258064527996,169.78574130660854 170.38387096789666,171.5676374413597 186.84516129037365,169.83665271603968 188.41290322551504,167.8511037536082 187.41129032243043,165.86554660645197 184.14516129042022,165.10186860110844 176.39354838710278,167.596545602486 170.81935483869165,167.69836887912243 168.77258064527996,169.37844983587274 170.34032258065417,171.5167262145842 186.80161290313117,169.78574130660854 188.36935483873822,168.003838579898 187.10645161289722,165.66189925686922 183.53548387088813,165.25460429905797 176.262903225841,167.64745724355453 171.16774193570018,167.69836887912243 170.1225806453731,166.68013514429913 168.11935483873822,166.98560549068497 167.5967741936911,159.95973850766313 165.15806451626122,159.95973850766313 164.20000000018626,159.04331351947621 161.5,158.5851003714779" stroke="#4dd2ff" stroke-linecap="round" stroke-linejoin="round" stroke-width="0.5"><title>2023-07-18 4.8km</title><desc>1689684415000</desc></polyline><polyline fill="none" points="38.341874084901065,185.34058601618744 38.5,191.48757842215127 35.69326500734314,192.6430184726778 16.362371888710186,196.38662326149642 16.994875548873097,204.5669814326393 15.057833089260384,204.65941398384166 13.753294289810583,203.64265484616044 11.5,203.41157289405237" stroke="#4dd2ff" stroke-linecap="round" stroke-linejoin="round" stroke-width="0.5"><title>2023-07-16 1.2km</title><desc>1689509495000</desc></polyline><polyline fill="none" points="41.5,190.6218654458644 45.99391069030389,189.46858286854695 48.40527740190737,189.98115330911241 48.989851150196046,190.6218654458644 51.03585926909,190.57915133488132 51.5838971582707,194.63697170495288 53.04533152910881,194.9359673835279 53.410690121818334,196.260088443727 52.02232746966183,199.16459686335293 53.447225980926305,200.53141713148216 67.1481732071843,199.1218836554326 68.4634641406592,197.79777197225485 67.87889039237052,195.91838019841816 65.13870094716549,195.10682195762638 58.781461434438825,197.19978462861036 53.228010825347155,197.3706382456876 51.876184032298625,199.16459686335293 53.33761840313673,200.48870406812057 67.33085250342265,199.036457226146 68.4634641406592,197.79777197225485 68.20771312573925,196.13194788558758 65.24830852495506,195.10682195762638 59.658322056988254,197.11435779300518 53.228010825347155,197.45606502710143 52.16847090655938,198.39575843096827 52.095399188110605,199.29273645984358 53.37415426247753,200.48870406812057 60.90054127201438,200.1469993982464 67.25778078474104,199.036457226146 68.39039242221043,197.92591200215975 68.31732070352882,196.47365595030715 66.96549391071312,195.40581728855614 65.24830852495506,195.10682195762638 58.52571041951887,197.28521144617116 53.11840324755758,197.49877841109992 51.98579161032103,199.036457226146 53.26454668468796,200.53141713148216 60.3159675237257,200.18971249781316 67.33085250342265,198.9937440046633 68.5,197.3279248480976 67.73274695524015,195.83295309191453 65.10216508805752,195.10682195762638 59.3660351827275,197.11435779300518 54.03179972944781,197.28521144617116 53.04533152910881,196.4309424580715 51.36468200269155,196.68722334413906 50.92625169153325,190.7072936539189 45.884303112281486,189.63943975427537" stroke="#4dd2ff" stroke-linecap="round" stroke-linejoin="round" stroke-width="0.5"><title>2023-07-15 4.8km</title><desc>1689425255000</desc></polyline><polyline fill="none" points="77.38461538474075,189.73910067905672 79.39230769244023,190.10332161729457 80.08461538469419,190.91270023980178 82.09230769239366,190.79129355563782 82.64615384628996,194.71675684582442 84.0307692309143,195.00003614477464 84.23846153845079,196.2545562350424 83.06153846159577,199.20873246871633 84.27307692309842,200.26089932091418 97.49615384615026,198.88498824019916 98.5,197.59000858839136 98.04999999993015,195.89034114856622 94.96923076931853,195.28331523420638 90.0192307693651,197.02345361351036 84.13461538462434,197.46860402153106 82.9230769231217,198.92545628361404 84.16923076927196,200.26089932091418 97.53076923068147,198.88498824019916 98.5,197.79234944778727 98.18846153840423,196.13315124475048 97.01153846154921,195.36425207846332 94.86538461537566,195.2023783729237 89.70769230776932,197.18532654904993 84.34230769227725,197.34719941602089 83.0961538462434,198.35890328494133 83.1307692307746,199.28966848307755 84.30769230774604,200.26089932091418 92.54615384608041,199.77528420995804 97.773076922982,198.60171181565966 98.5,197.06392185372533 97.87692307692487,195.93080950860167 95.523076922982,195.32378365841578 90.29615384619683,197.02345361351036 84.75769230769947,197.26626299117925 83.89230769244023,196.9020488669048 83.99615384626668,196.41642949581728 82.40384615398943,196.41642949581728 82.05769230762962,190.95316912597627 80.53461538464762,191.11504462815356 79.25384615396615,190.26519747881684 77.17692307708785,189.98191467637662 71.5,191.19598235344165" stroke="#4dd2ff" stroke-linecap="round" stroke-linejoin="round" stroke-width="0.5"><title>2023-07-13 3.8km</title><desc>1689250953000</desc></polyline><polyline fill="none" points="104.72018348635174,188.13670811062912 105.76055045891553,193.92855754727498 107.69266055058688,194.855247775733 107.69266055058688,197.46155564161018 106.10733944969252,199.83618090418167 107.79174311924726,201.8053745366633 126.76605504611507,199.89409846503986 128.45045871543698,198.0407334837364 127.75688073388301,195.72401844180422 124.6853211009875,194.6235753655783 115.5697247707285,197.34571999969194 108.08899082569405,197.63530905847438 106.05779816536233,199.89409846503986 108.03944954136387,201.86329188931268 126.76605504611507,199.83618090418167 128.2027522935532,198.79366376344115 128.5,196.88237718713935 127.31100917444564,195.3765103406622 124.28899082588032,194.565657247731 115.66880733962171,197.2878021694487 108.08899082569405,197.63530905847438 106.05779816536233,199.7782633374445 107.94036697270349,201.86329188931268 127.01376146799885,199.7782633374445 128.3513761467766,198.21448671713006 127.9055045871064,195.89777240977855 125.77522935764864,194.68149347731378 122.70366972475313,194.6235753655783 115.47064220183529,197.34571999969194 107.94036697270349,197.69322685181396 106.20642201858573,199.2570049597416 106.50366972503252,200.53119122958742 109.03027522959746,201.6316224419861 126.81559633044526,199.7782633374445 128.40091743133962,197.98281572700944 128.153211009223,196.24528018035926 124.43761467910372,194.6235753655783 115.8669724771753,197.2878021694487 108.98073394503444,197.51947345328517 107.89082568814047,196.88237718713935 107.29633027524687,194.39190285746008 105.66146789002232,194.2181484118919 104.96788990846835,188.54213956394233 101.5,188.13670811062912" stroke="#4dd2ff" stroke-linecap="round" stroke-linejoin="round" stroke-width="0.5"><title>2023-07-11 4.3km</title><desc>1689085096000</desc></polyline><polyline fill="none" points="133.52747252723202,188.9008439440513 135.35714285681024,188.7274058421608 135.7527472525835,193.98833713738713 137.68131868122146,194.56645836943062 137.978021977935,196.93674903264036 136.1978021976538,200.17420261044754 137.978021977935,202.1976013655658 148.90659340657294,201.67729954357492 156.81868131877854,200.34763708268292 158.35164835164323,198.5554782169056 158.25274725281633,196.99456087168073 156.67032967042178,195.49145106988726 154.1978021976538,194.97114286833676 144.8021978023462,197.97736120101763 138.12637362629175,198.0351729299873 136.14835164812393,200.34763708268292 138.02747252723202,202.1976013655658 157.01648351643234,200.28982559795259 158.4010989011731,198.84453649562784 158.45054945047013,197.2258081668988 156.47252747253515,195.3758270678809 153.70329670328647,195.02895491517847 144.60439560445957,197.97736120101763 138.02747252723202,198.0351729299873 136.1978021976538,200.40544856130145 138.0769230767619,202.255412648723 156.91758241760544,200.28982559795259 158.5,197.7461142235552 157.4120879122056,195.89613488444593 154.3461538462434,195.02895491517847 144.70329670328647,197.97736120101763 138.521978022065,197.97736120101763 136.0989010988269,199.8851450344082 137.978021977935,202.31322392559377 156.86813186807558,200.23201410740148 158.35164835164323,198.67110154672991 158.00549450539984,196.30081839952618 153.60439560445957,195.0867669559084 145.69230769225396,197.80392597714672 137.87912087887526,198.2086080806912 136.1978021976538,200.23201410740148 137.978021977935,202.255412648723 145.59340659319423,201.67729954357492 147.521978022065,201.61948819935787 157.1648351647891,200.1163911073818 158.45054945047013,198.382043176156 157.90659340657294,196.30081839952618 153.5549450549297,195.0867669559084 143.86263736267574,198.0351729299873 139.0659340659622,197.97736120101763 137.73076923075132,196.8211253361078 135.6538461537566,197.11018453160068 135.0109890110325,189.13209466147237 132.0439560438972,189.0742819912266 131.5,187.68677607446443" stroke="#4dd2ff" stroke-linecap="round" stroke-linejoin="round" stroke-width="0.5"><title>2023-07-08 5.3km</title><desc>1688824288000</desc></polyline><polyline fill="none" points="164.62110091745853,188.10774870886235 165.06697247712873,188.6869364688173 165.41376146790572,196.44799338455778 167.6431192662567,196.5059113066527 166.1568807340227,199.8072227392695 167.89082568814047,201.77641657955246 186.81559633044526,199.92305786686484 188.3018348624464,198.35928157705348 188.3513761467766,196.5638292224612 186.71651376155205,194.88420717755798 183.94220183510333,194.47878039540956 176.2633027525153,197.25884373509325 168.08899082569405,197.66426846029935 166.1568807340227,199.92305786686484 167.98990825680085,201.83433393848827 186.96422018366866,199.92305786686484 188.5,197.54843285511015 187.41009174333885,195.40546974248718 184.2394495413173,194.53669852553867 175.17339449562132,197.43259722547373 167.84128440357745,197.66426846029935 166.10733944969252,199.98097542161122 167.89082568814047,201.89225129113765 187.11284403689206,199.7493051661877 188.45045871543698,197.08509018964833 186.41926605510525,194.82628908427432 183.00091743119992,194.65253476740327 176.90733944950625,197.02717232884606 175.27247706451453,197.2009258925682 168.18807339458726,197.66426846029935 166.3055045872461,199.34388198360102 166.4541284404695,200.44431563839316 168.03944954136387,201.83433393848827 179.03761467896402,201.08140779694077 187.11284403689206,199.5755524103297 188.40091743133962,197.78010404104134 187.6082568806596,195.6371418343624 183.99174311943352,194.59461664955597 177.89816513773985,196.85341870971024 172.74587155971676,197.66426846029935 165.51284403679892,196.39007545658387 164.96788990846835,188.74485521105817 161.5,188.28150510124397" stroke="#4dd2ff" stroke-linecap="round" stroke-linejoin="round" stroke-width="0.5"><title>2023-07-06 4.2km</title><desc>1688649757000</desc></polyline><polyline fill="none" points="20.7303473490756,213.63176525052404 12.635283363750204,221.24916507821763 13.474405850050971,222.63413544592913 15.152650822419673,223.03808447450865 15.893053016159683,228.4048074921011 17.916819012723863,228.92416498437524 18.114259597612545,230.71305923175532 16.28793418663554,233.65606604586355 16.436014625243843,234.81018203462008 18.01553930505179,236.25282358995173 28.72669104184024,235.61806177528342 37.117915904847905,234.23312434513355 38.40127970720641,232.61735957011115 37.611517367418855,229.96287848678185 34.106946983374655,228.86645862070145 26.159963436890393,231.63635719497688 17.916819012723863,232.09800559096038 16.28793418663554,233.5983601824264 16.386654478963464,234.867887770175 18.114259597612545,236.25282358995173 29.76325411326252,235.61806177528342 37.06855575856753,234.3485359319602 38.105118829989806,233.2521248733974 38.5,231.40553285053466 37.75959780625999,230.0782909761765 33.81078610592522,228.92416498437524 25.913162705488503,231.69406326574972 17.867458866443485,232.04029956291197 16.189213893841952,234.00230109872064 17.96617915900424,236.36823474953417 36.96983546600677,234.3485359319602 38.351919561391696,232.84818340209313 38.30255941487849,230.82847156235948 36.624314442276955,229.32810935901944 34.106946983374655,228.92416498437524 26.900365630630404,231.52094503497938 17.867458866443485,232.15571161312982 16.189213893841952,234.23312434513355 18.01553930505179,236.1951180009055 36.72303473483771,234.2908301416319 38.25319926859811,232.79047745326534 38.15447897603735,230.48223449691432 34.304387568729,228.981871341879 24.432358318008482,231.98259352851892 19.00274223019369,231.9248874882469 17.670018281554803,230.71305923175532 15.646252284990624,231.17470840847818 15.103290676372126,223.03808447450865 11.894881170010194,222.92267049691873 11.5,221.82623649179004" stroke="#4dd2ff" stroke-linecap="round" stroke-linejoin="round" stroke-width="0.5"><title>2023-07-04 4.9km</title><desc>1688476174000</desc></polyline><polyline fill="none" points="45.09016393427737,218.87667576881358 45.82786885229871,224.28134578553727 47.745901639340445,224.74131522228708 48.28688524570316,226.52369311568327 46.3196721309796,229.97344018990407 48.139344262192026,232.21576405642554 66.48360655736178,230.37590925680706 68.35245901625603,228.82352692936547 68.5,227.21364428068046 67.6147540982347,225.71874898381066 63.3852459017653,224.91380366071826 56.10655737691559,227.67361123795854 47.89344262285158,228.01858620066196 46.3196721309796,230.1459269694169 48.139344262192026,232.21576405642554 66.92622950812802,230.20342255022842 68.5,227.9610903886496 67.66393442614935,225.89123711246066 63.87704918021336,224.85630752058933 54.77868852461688,227.9035945707583 48.18852459010668,228.01858620066196 46.3196721309796,229.91594458452892 48.28688524570316,232.10077331360662 66.72950819670223,230.20342255022842 68.5,227.67361123795854 66.97540983604267,225.48876472742995 64.17213114723563,224.9712997947354 56.2049180327449,227.61611538968282 48.237704918021336,227.9610903886496 46.3196721309796,230.08843138231896 48.0901639345102,232.15826868807198 58.9098360654898,231.52581923577236 67.12295081955381,230.030935789051 68.30327868834138,228.82352692936547 68.45081967185251,226.86866880767047 66.5327868850436,225.2587803734932 63.33606557385065,224.91380366071826 55.12295081955381,227.84609874675516 47.99180327844806,228.0760820064461 46.27049180306494,230.20342255022842 48.040983606595546,232.15826868807198 50.450819672085345,231.75580093974713 50.89344262285158,229.22599684703164 47.7950819672551,226.6961809891509 45.53278688527644,227.0986524807522 45.139344262424856,219.04916606709594 41.745901639340445,218.87667576881358 41.5,217.78423594351625" stroke="#4dd2ff" stroke-linecap="round" stroke-linejoin="round" stroke-width="0.5"><title>2023-07-01 4.6km</title><desc>1688218059000</desc></polyline><polyline fill="none" points="98.5,224.23812152229948 98.08301158272661,226.12762632378144 94.90347490343265,224.7257362579112 94.12162162153982,223.68955445179017 94.6428571427241,222.71432281390298 92.76640926627442,221.556233100011 89.53474903455935,221.67813739005942 87.18918918911368,220.33718878100626 84.84362934343517,222.83622685907176 82.86293436284177,221.73908952542115 80.36100386106409,222.59241874306463 77.85907335882075,221.98289800225757 73.42857142840512,222.59241874306463 73.68918918888085,225.03049525804818 71.5,225.82286790385842 71.86486486508511,229.1142503063893 72.64671814674512,229.723763502785 73.63706563715823,228.93139622180024 73.1679536679294,226.9199974607909 74.78378378367051,225.09144703875063 74.2625482622534,224.17716965143336 76.60810810816474,225.4571575873415 79.73552123527043,224.17716965143336 82.65444015432149,224.17716965143336 85.78185328189284,222.2876584532787 87.0328185330145,220.276236497215 93.86100386083126,221.98289800225757 95.42471042461693,224.7257362579112 98.39575289562345,225.39620584540535" stroke="#4dd2ff" stroke-linecap="round" stroke-linejoin="round" stroke-width="0.5"><title>2023-06-30 1.5km</title><desc>1688098240000</desc></polyline><polyline fill="none" points="102.0419708029367,217.7134659026051 102.14051094884053,218.92310299538076 105.29379562032409,219.09590807522181 105.88503649644554,224.4528383689467 108.0036496350076,224.798444966611 108.10218978114426,228.02409597620135 116.28102189791389,227.67849142407067 124.41058394196443,225.02884924336104 127.12043795618229,225.66246050212067 128.45072992728092,227.1600841852487 128.30291970819235,229.11850894521922 126.97262773732655,230.38572121603647 108.15145985386334,232.2865340974531 106.32846715324558,230.38572121603647 107.85583941615187,228.08169671351789 114.16240875911899,228.08169671351789 123.27737226290628,225.08645029732725 126.7755474455189,225.43205649324227 128.35218978114426,226.64167645282578 128.45072992728092,228.7729050872149 127.02189781027846,230.32812072208617 108.15145985386334,232.22893380443566 106.62408759118989,230.9617258196813 106.47627737210132,229.52171316929162 108.20072992704809,227.96649523283122 114.31021897797473,227.96649523283122 123.47445255471393,225.02884924336104 126.72627737233415,225.48965750454227 128.5,227.85129372763913 127.31751824822277,230.1553192040883 123.57299270085059,230.78892450244166 120.71532846731134,231.24972789309686 108.34854014613666,232.22893380443566 106.67335766437463,231.01932624645997 106.57481751823798,229.34891139535466 108.44708029180765,227.96649523283122 114.85218978114426,227.90889448323287 124.21350364945829,224.97124818328302 126.33211678848602,225.31685445230687 128.30291970819235,226.87207995029166 128.40145985409617,228.54250239336397 127.02189781027846,230.2129197163158 107.90510948910378,232.1713335054228 106.27919708029367,230.44332170387497 107.80656934319995,226.75687821389874 105.63868613145314,227.04488250944996 105.19525547442026,219.4415180705255 102.5839416058734,219.2111114313593 103.02737226290628,218.3470856670756 101.84489051089622,218.75029786099913 101.5,217.9438731750124" stroke="#4dd2ff" stroke-linecap="round" stroke-linejoin="round" stroke-width="0.5"><title>2023-06-29 4.4km</title><desc>1688039201000</desc></polyline><polyline fill="none" points="131.5,217.2929638880887 132.13057324825786,223.5256556099048 134.19426751579158,223.9947804643889 134.76751592359506,225.8042587946984 132.7038216558285,230.49547486152733 134.65286624175496,232.70703611185309 156.55095541407354,230.42845773341833 158.44267515931278,227.6807493864908 157.41082802554592,225.3351352790487 153.2834394904785,224.26285165391164 142.27707006363198,227.6807493864908 134.65286624175496,227.81478421628708 132.7038216558285,230.16038915055105 134.710191082675,232.70703611185309 146.74840764328837,231.9028329132707 156.8949044586625,230.16038915055105 158.5,227.34566218819236 157.64012738876045,225.40215294534573 152.48089171969332,224.19583386712475 143.53821656061336,227.27864472707734 134.59554140106775,227.81478421628708 132.76114649674855,229.69126885791775 132.8184713376686,230.89757748070406 136.14331210171804,231.63476495374925 138.03503184695728,230.16038915055105" stroke="#4dd2ff" stroke-linecap="round" stroke-linejoin="round" stroke-width="0.5"><title>2023-06-27 2.4km</title><desc>1687872268000</desc></polyline><polyline fill="none" points="187.49024390242994,235.91140637552598 187.09512195107527,237.400451754831 186.1731707318686,236.16813866372104 185.77804878051393,237.2977591167146 181.87073170719668,236.0654457648052 181.38780487817712,230.0578733389848 179.67560975602828,227.95263804521528 176.86585365841165,220.60991660266882 171.24634146341123,212.5995482451981 169.57804878032766,213.83192121933098 172.47560975607485,218.3505953331187 172.343902438879,219.48025728354696 170.5,219.68565008279984 171.2902439024765,217.11823384088348 171.02682926831767,217.83711175853387 169.92926829261705,216.03991496667732 167.20731707313098,215.6804748090217 162.6414634147659,220.55856850894634 161.63170731719583,222.40709646072355 161.5,224.87178943725303 165.62682926817797,228.3120691080694 168.12926829280332,229.18497200892307 170.71951219509356,226.77164839173201 173.09024390229024,226.00143619894516 174.89024390256964,230.36595578631386 177.4365853657946,229.64709643818787 178.8853658537846,231.59828361848486 180.86097560962662,231.13616104831453 181.82682926836424,229.74979069599067 184.76829268294387,228.05533266166458 188.5,232.47118060541106" stroke="#4dd2ff" stroke-linecap="round" stroke-linejoin="round" stroke-width="0.5"><title>2023-06-26 2.3km</title><desc>1687750317000</desc></polyline><polyline fill="none" points="15.152650822885334,248.45033618394518 16.04113345546648,254.45183384313714 17.867458866676316,254.56724661326734 17.916819012956694,257.5679700686014 16.337294332915917,259.9916192808887 18.01553930551745,261.9536131437053 36.96983546647243,259.9916192808887 38.30255941534415,258.6643841401092 38.351919561391696,256.64467230037553 36.4268738576211,254.91348477668362 34.403107861522585,254.45183384313714 25.123400365933776,257.51026400376577 17.966179159237072,257.62567612720886 16.436014625243843,259.12603151152143 16.48537477175705,260.3955597700551 18.21297989040613,261.89590754255187 36.96983546647243,260.0493250831496 38.351919561391696,258.4912662752904 38.20383912278339,256.12531661981484 36.47623400390148,254.7403657223913 34.10694698384032,254.39412744907895 25.02468007337302,257.39485185587546 18.163619744358584,257.62567612720886 16.53473491803743,259.2414432934602 16.53473491803743,260.3955597700551 18.805301645305008,261.9536131437053 36.180073126452044,260.16473666997626 38.5,257.9719123511459 37.80895795254037,255.54825417284155 34.69926873873919,254.50954023125814 25.2221206582617,257.39485185587546 19.200182815548033,257.45255793299293 17.670018281554803,254.56724661326734 15.843692870344967,253.9901825193665 14.955210237996653,248.73887123493478 11.5,248.0463868562365" stroke="#4dd2ff" stroke-linecap="round" stroke-linejoin="round" stroke-width="0.5"><title>2023-06-22 3.3km</title><desc>1687436733000</desc></polyline><polyline fill="none" points="41.5,249.61449038799765 42.15801886792178,248.6116933248668 42.56132075471396,248.7506961774161 42.88820754716289,249.02870064714807 43.68632075469941,249.5003116055159 43.8051886792673,249.54995458856502 43.90707547169586,249.49038300260145 44.335849056602456,249.70384750223457 63.93207547169004,258.455056142855 66.24150943395216,257.9884985571043 66.49622641509632,260.2120505508901 66.64056603773497,261.31386095842026 66.75518867923529,261.38830667512957 68.29622641509923,261.2245259425763 68.47877358489495,261.10541232374453 68.49150943395216,260.9416306044659 68.35566037736135,260.80762695469093 68.14339622639818,260.75799587623624 67.39198113205202,261.00118765938896 66.75094339621137,261.030966158527 66.61509433962055,261.1451168969397 66.6023584905779,261.2394151236949 66.75943396225921,261.38334363100876 68.368396226404,261.20467369375183 68.49150943395216,261.06570771697807 68.48726415094279,260.9267413289235 68.35566037736135,260.7977007431946 68.18584905660828,260.7629589864446 67.32405660377117,261.02103999424435 66.75943396225921,261.030966158527 66.62783018866321,261.1252646145258 66.61084905659663,261.2493412418007 66.74245283017808,261.37838058638226 67.90990566037362,261.28904569328006 68.39386792451842,261.1947475661909 68.5,261.06570771697807 68.49575471697608,260.9217782360356 68.39386792451842,260.81755316408453 68.15613207545539,260.7629589864446 67.26462264150905,261.0160769113245 66.84009433961182,261.0160769113245 66.73820754715416,260.9118520486845 66.53443396226794,260.9416306044659 66.50047169810568,260.2567190432237" stroke="#4dd2ff" stroke-linecap="round" stroke-linejoin="round" stroke-width="0.5"><title>2023-06-21 5.0km</title><desc>1687340611000</desc></polyline><polyline fill="none" points="71.5,247.27728468808345 72.01923076901585,253.7522705491865 74.32692307699472,253.88716538943117 74.44230769225396,257.12463299708907 74.55769230751321,257.39442122296896 72.6538461537566,260.4969776222715 74.78846153849736,262.72271531197475 96.6538461537566,260.1597439617617 98.5,258.20378521614475 97.57692307676189,255.16866494819988 93.88461538450792,253.88716538943117 83.73076923075132,257.2595271242899 74.49999999976717,257.7316563448985 72.59615384601057,260.36208417941816 74.61538461525925,262.6552688294905 91.98076923051849,261.17144440859556 96.88461538450792,260.1597439617617 98.38461538450792,258.27123216935433 97.57692307676189,255.23611222213367 93.76923076924868,254.02206020092126 82.75,257.39442122296896" stroke="#4dd2ff" stroke-linecap="round" stroke-linejoin="round" stroke-width="0.5"><title>2023-06-20 2.2km</title><desc>1687262791000</desc></polyline></svg>