<?xml version="1.0" encoding="utf-8" ?>
<svg baseProfile="full" height="300mm" version="1.1" viewBox="0,0,200,300" width="200mm" xmlns="http://www.w3.org/2000/svg" xmlns:ev="http://www.w3.org/2001/xml-events" xmlns:xlink="http://www.w3.org/1999/xlink"><defs /><rect fill="#222222" height="300" width="200" x="0" y="0" /><text fill="#FFFFFF" style="font-size:12px; font-family:Arial; font-weight:bold;" x="10" y="20">Over 10km Runs</text><text fill="#FFFFFF" style="font-size:4px; font-family:Arial" x="10" y="280">ATHLETE</text><text fill="#FFFFFF" style="font-size:9px; font-family:Arial" x="10" y="290">ElvisZhu</text><text fill="#FFFFFF" style="font-size:4px; font-family:Arial" x="120" y="280">STATISTICS</text><text fill="#FFFFFF" style="font-size:3px; font-family:Arial" x="120" y="285">Number: 1</text><text fill="#FFFFFF" style="font-size:3px; font-family:Arial" x="120" y="290">Weekly: 1.0</text><text fill="#FFFFFF" style="font-size:3px; font-family:Arial" x="141" y="285">Total: 13.0 km</text><text fill="#FFFFFF" style="font-size:3px; font-family:Arial" x="141" y="290">Avg: 13.0 km</text><text fill="#FFFFFF" style="font-size:3px; font-family:Arial" x="167" y="285">Min: 13.0 km</text><text fill="#FFFFFF" style="font-size:3px; font-family:Arial" x="167" y="290">Max: 13.0 km</text><polyline fill="none" points="58.76640726136975,231.0 59.421651640790515,230.69968874315964 60.615132474922575,229.0343200316711 62.97869255812839,227.94226919140783 62.95529097307008,227.50544757265016 63.867952787550166,227.88766652921913 63.21270840789657,226.413390318834 64.80401618685573,226.11307377085905 68.10363966913428,224.44767571720877 69.85875854291953,221.25335783034097 77.37066732207313,216.5027612966369 81.0447161643533,215.11032864055596 83.5018825874431,213.6086772319686 85.79523791570682,213.6359800621285 87.62056154431775,213.19913443509722 95.88132104312535,207.65659187844722 99.8829920750577,203.75216838196502 101.42749668378383,201.567849966028 104.02507261675783,195.17861335808993 108.05014523374848,188.65269266543328 111.34976871625986,181.7443221397989 113.1048875899287,178.95907739902032 116.12369205267169,171.3950760527514 119.07229176035617,166.3158759244834 119.77433930989355,163.1208443903597 118.65106323070358,162.73853029616293 114.22816366911866,165.79702731844736 109.82866569247562,171.58622680962435 109.24362606788054,173.14273488766048 108.89260229317006,173.19734903710196 108.79899595316965,172.7877426368941 109.64145301259123,169.5108682201535 112.35603687050752,165.22356186568504 112.9644780800445,162.6566057743621 116.10029046761338,157.68646985365194 124.15043570147827,148.42865581111982 124.85248325101566,145.53381447459105 126.3267831049161,143.81328030189616 126.49059419974219,143.23976638182648 125.81194823526312,142.8847333213198 127.12243699422106,139.98983028007206 127.96489405364264,139.6347927832103 129.06476854765788,140.37217781157233 130.58587157155853,138.56967738459934 130.46886364661623,137.91421958667343 131.2177143661538,136.43943350121845 131.1709111961536,135.04657229714212 133.55787286430132,131.4414851278416 134.3067235838389,129.36580620834138 134.0961093188962,127.80903614626732 134.61094418854918,126.19763275733567 134.7747552834917,123.0021083667234 133.7450855441857,117.5668954863213 134.0727077338379,115.84617627417902 134.0025029788958,116.77481980313314 134.40032992360648,117.07526258766302 134.72795211337507,115.95542862615548 134.51733784854878,114.78096343623474 134.44713309360668,115.08140852468205 133.8854950540699,114.91752942852327 134.58754260349087,115.13603486708598 134.68114894349128,114.78096343623474 134.3067235838389,114.83558984176489 134.049306148896,112.59589780383976 133.5812744492432,111.88574751955457 134.44713309360668,109.70065755577525 134.61094418854918,108.17108365450986 134.68114894349128,108.44422251117066 135.28959015302826,107.7886887731147 135.26618856796995,108.14376975302002 135.35979490797035,107.29703738496755 135.82782660762314,107.57017715988331 135.47680283279624,107.65211903638556 135.82782660762314,107.35166536297766 134.68114894349128,106.50493041521986 134.84496003831737,106.04059072464588 135.12577905820217,106.23178952120361 134.75135369843338,106.23178952120361 135.03217271820176,105.05728040714166 134.2131172438385,104.26516661338974 133.41746335441712,101.39714820621884 133.69828237430193,94.48645959846908 135.52360600279644,90.55302119645057 135.82782660762314,88.6409115853603 135.57040917279664,85.33566037286073 134.68114894349128,83.58741133229341 134.40032992360648,79.59917419907288 134.68114894349128,78.47917879297165 135.50020441785455,78.47917879297165 135.99163770244922,77.63234979397384 135.73422026762273,76.9494211722049 136.01503928739112,76.53966313772253 137.84036291611847,75.50160655926447 139.3614659399027,74.0264663946873 141.23359273851383,69.0 140.81236420874484,69.62831361585995 140.60174994391855,69.43708789354423 140.55494677403476,69.49172382851248 140.76556103886105,69.98344672669191 139.12745009013452,74.217688740202 139.3146627700189,75.52892389072804 137.41913438634947,79.13478644558927 138.8700326551916,90.66228417798993 138.65941839048173,91.89148955556448 137.53614231129177,93.53042101746541 137.0915121966973,97.05408867116785 138.49560729553923,102.8721330529952 138.12118193588685,103.39110721260658 138.9402374101337,105.16653729276732 138.70622156048194,107.13315338236862 137.06811061163899,111.83112049425836 137.06811061163899,113.988879266195 136.5298741570441,115.92811554242508 137.0915121966973,117.4849567344354 137.60634706623387,122.83823426248273 136.8808979317546,124.75009238574421 135.89803136256523,125.10515020380262 134.96196796325967,126.82580814731773 134.51733784854878,126.74387231297442 134.3535267537227,129.36580620834138 132.69201422005426,133.05285602403455 131.1943127810955,134.88270578268566 131.24111595121212,136.30287881105323 125.83534982032143,142.58432035314036 125.53112921537831,143.23976638182648 126.79481480445247,143.949831048958 125.25031019560993,143.4582480242534 124.89928642101586,144.27755254905787 61.41078636434395,228.59750024531968" stroke="#4DD2FF" stroke-linecap="round" stroke-linejoin="round" stroke-width="0.5"><title>2023-08-15 13.0km</title><desc>1692056055000</desc></polyline></svg>