<?xml version="1.0" encoding="utf-8" ?>
<svg baseProfile="full" height="200mm" version="1.1" viewBox="0,0,200,200" width="200mm" xmlns="http://www.w3.org/2000/svg" xmlns:ev="http://www.w3.org/2001/xml-events" xmlns:xlink="http://www.w3.org/1999/xlink"><defs /><rect fill="#1a1a1a" height="200" width="200" x="0" y="0" /><text alignment-baseline="middle" fill="#e1ed5e" style="dominant-baseline: central; font-size:9.0px; font-family:Arial;" text-anchor="middle" x="100.0" y="100.0">2023</text><line stroke="#e1ed5e" stroke-width="0.3" x1="100.0" x2="100.0" y1="15.0" y2="10.0" /><path d="M 100.0 14.0 a86.0,86.0 0 0,1 42.46469731375804,11.215312516191453" fill="none" id="id1" stroke="none" /><text fill="#e1ed5e" style="font-size:6.75px; font-family:Arial;" text-anchor="middle"><textPath startOffset="22.20632615414155" xlink:href="#id1">January</textPath></text><line stroke="#e1ed5e" stroke-width="0.3" x1="143.23703022742887" x2="145.7803849466894" y1="26.81831364943548" y2="22.513508569990506" /><path d="M 143.74570117128098 25.957352633546492 a86.0,86.0 0 0,1 28.547481713284135,27.462654790039103" fill="none" id="id2" stroke="none" /><text fill="#e1ed5e" style="font-size:6.75px; font-family:Arial;" text-anchor="middle"><textPath startOffset="19.985693538727396" xlink:href="#id2">February</textPath></text><line stroke="#e1ed5e" stroke-width="0.3" x1="172.23445277983987" x2="176.4835382374775" y1="55.19839476539836" y2="52.563006222186495" /><path d="M 173.08426987136738 54.67131705675599 a86.0,86.0 0 0,1 12.851231095245387,41.99856678651699" fill="none" id="id3" stroke="none" /><text fill="#e1ed5e" style="font-size:6.75px; font-family:Arial;" text-anchor="middle"><textPath startOffset="22.20632615414155" xlink:href="#id3">March</textPath></text><line stroke="#e1ed5e" stroke-width="0.3" x1="184.98032266829074" x2="189.97916517819016" y1="98.17113171792111" y2="98.06355123074" /><path d="M 185.9800911702706 98.14961562048488 a86.0,86.0 0 0,1 -9.607161424134198,41.387399972396054" fill="none" id="id4" stroke="none" /><text fill="#e1ed5e" style="font-size:6.75px; font-family:Arial;" text-anchor="middle"><textPath startOffset="21.466115282336823" xlink:href="#id4">April</textPath></text><line stroke="#e1ed5e" stroke-width="0.3" x1="174.80103733775053" x2="179.2010983576182" y1="140.37084112569926" y2="142.7455964860345" /><path d="M 175.68104954172406 140.8457921977663 a86.0,86.0 0 0,1 -30.038265399797805,32.042727171017184" fill="none" id="id5" stroke="none" /><text fill="#e1ed5e" style="font-size:6.75px; font-family:Arial;" text-anchor="middle"><textPath startOffset="22.206326154141568" xlink:href="#id5">May</textPath></text><line stroke="#e1ed5e" stroke-width="0.3" x1="143.8653032363475" x2="146.44561519142675" y1="172.8068346515853" y2="177.08958963109032" /><path d="M 144.38136562736335 173.6633856474863 a86.0,86.0 0 0,1 -40.68145358897372,12.25698825130547" fill="none" id="id6" stroke="none" /><text fill="#e1ed5e" style="font-size:6.75px; font-family:Arial;" text-anchor="middle"><textPath startOffset="21.466115282336833" xlink:href="#id6">June</textPath></text><path d="M 104.48393922423573 120.51570834832081 l 2.255331014644104 10.31898761590539 a31.56257655133559,31.56257655133559 0 0,0 -0.5317670991976869,0.11143696591153548 l -2.077372454017039 -10.356280562543468" fill="#ff2803" stroke="none" /><path d="M 103.7750983002368 120.6578951692458 l 2.651055538214271 14.50696724714255 a35.74720970815711,35.74720970815711 0 0,0 -0.6062574049792607,0.10540562090651315 l -2.40094916176296 -14.550451446570069" fill="#ff6a09" stroke="none" /><path d="M 101.98527174616119 120.90594882070398 l 1.2463052947492685 13.12424596651923 a34.183289008339926,34.183289008339926 0 0,0 -0.5862526559350821,0.050584345976605216 l -1.0202083210726447 -13.143754564774499" fill="#ff5107" stroke="none" /><path d="M 101.26447882468166 120.96189622390904 l 0.9348732970566929 15.497860978683942 a36.52603242931574,36.52603242931574 0 0,0 -0.6279206438332934,0.03245632492100533 l -0.6679645848099199 -15.51165711036715" fill="#ff760a" stroke="none" /><line stroke="#e1ed5e" stroke-width="0.3" x1="102.19456741930631" x2="102.32365962044197" y1="184.97166512339345" y2="189.96999836594603" /><path d="M 102.22038585953345 185.97133177190398 a86.0,86.0 0 0,1 -42.740103519485714,-10.115201625700543" fill="none" id="id7" stroke="none" /><text fill="#e1ed5e" style="font-size:6.75px; font-family:Arial;" text-anchor="middle"><textPath startOffset="22.20632615414155" xlink:href="#id7">July</textPath></text><path d="M 100.54218724476979 120.99299961872073 l 0.6644673894572822 25.727576198240723 a46.736155383971685,46.736155383971685 0 0,0 -0.804396690247961,0.013848418512451829 l -0.22151100931665316 -25.735202094032335" fill="#f5ff19" stroke="none" /><path d="M 99.45781275523022 120.99299961872073 l -0.6978794372740353 27.021260462937846 a48.030271044051666,48.030271044051666 0 0,0 -0.826302830084122,-0.028459540202404085 l 1.1629026190328005 -27.00524412430935" fill="#e3ff1b" stroke="none" /><path d="M 98.73552117531835 120.96189622390904 l -0.9983023646219321 16.54935627139225 a37.579439092100785,37.579439092100785 0 0,0 -0.6453592936024561,-0.04450775535095125 l 1.2830244190033182 -16.529720171525014" fill="#ff860c" stroke="none" /><path d="M 98.01472825383883 120.90594882070398 l -2.2803081600146204 24.012836419437466 a45.1208647898721,45.1208647898721 0 0,0 -0.7725710567335439,-0.08008014888289341 l 2.6933118133537577 -23.970026902098812" fill="#fff316" stroke="none" /><path d="M 96.93821686468263 120.77559828337769 l -2.5872405244466234 17.55560972897154 a38.74523165493477,38.74523165493477 0 0,0 -0.6589717715867963,-0.10291783828289333 l 2.889048159641937 -17.50847358334154" fill="#ff970d" stroke="none" /><path d="M 96.22490169976321 120.6578951692458 l -2.8957459683208757 15.845949401261043 a37.10836606054046,37.10836606054046 0 0,0 -0.6273653200866872,-0.12023605673665674 l 3.168078902979258 -15.793756146175918" fill="#ff7f0b" stroke="none" /><path d="M 95.51606077576429 120.51570834832081 l -5.723425492523271 26.186824193177166 a47.80498760851857,47.80498760851857 0 0,0 -0.8023949947869847,-0.18262248843969378 l 6.173340636703118 -26.084424971159788" fill="#e6ff1a" stroke="none" /><path d="M 94.46302465271185 120.25689768951611 l -7.0787934612913554 25.897604001582746 a47.84762950225617,47.84762950225617 0 0,0 -0.7926047135196699,-0.22399800915515086 l 7.52352934291564 -25.771917199089074" fill="#e6ff1a" stroke="none" /><path d="M 93.76903079525671 120.05430185196036 l -6.842142195832765 22.021355009235393 a44.05981323148069,44.05981323148069 0 0,0 -0.7223263445180266,-0.2312660852005291 l 7.220189885441732 -21.900316077375155" fill="#ffe415" stroke="none" /><path d="M 93.08242187328487 119.8279376855182 l -9.15226910938873 26.23325942373213 a48.78395094012912,48.78395094012912 0 0,0 -0.7904868695297617,-0.28344046723767696 l 9.602475539548218 -26.071831415454493" fill="#d9ff1c" stroke="none" /><path d="M 92.06813273071674 119.44442032107085 l -10.069891739229831 24.685638440210212 a47.66052259128829,47.66052259128829 0 0,0 -0.7569592637838386,-0.31640903365285966 l 10.493322462511133 -24.508644363537382" fill="#e8ff1a" stroke="none" /><path d="M 91.40352486487194 119.15986991738527 l -9.28160483774495 20.68689067558364 a43.67367712100531,43.67367712100531 0 0,0 -0.6832476512747845,-0.3136454855191676 l 9.636320484787154 -20.524058119730398" fill="#ffdf14" stroke="none" /><path d="M 90.7491055286396 118.85261126421891 l -12.067727892083685 24.593101077540386 a48.39435483977479,48.39435483977479 0 0,0 -0.7446879360327195,-0.3734019905947655 l 12.489269735799166 -24.381731246036317" fill="#dfff1b" stroke="none" /><line stroke="#e1ed5e" stroke-width="0.3" x1="58.666819895761336" x2="56.23545636021788" y1="174.27360380694188" y2="178.64263932499728" /><path d="M 58.180547188652646 175.14741091055294 a86.0,86.0 0 0,1 -31.652253787137756,-30.449443065178592" fill="none" id="id8" stroke="none" /><text fill="#e1ed5e" style="font-size:6.75px; font-family:Arial;" text-anchor="middle"><textPath startOffset="22.20632615414155" xlink:href="#id8">August</textPath></text><path d="M 89.7882731507175 118.34994917583269 l -11.376860054721668 20.443633762038218 a44.396048942098545,44.396048942098545 0 0,0 -0.6645691775607195,-0.37735972320910083 l 11.727077999203594 -20.244770873034486" fill="#ffe915" stroke="none" /><path d="M 89.1626897886671 117.98757091392108 l -14.0139491303617 23.260098571586447 a48.15553269203687,48.15553269203687 0 0,0 -0.7063288432136695,-0.4338848653026884 l 14.412257173507678 -23.01542523945538" fill="#e2ff1b" stroke="none" /><path d="M 88.54995079064634 117.60387380957326 l -21.484940657169563 33.03201385597647 a60.40452530387239,60.40452530387239 0 0,0 -0.866733894507569,-0.5744239637248975 l 22.050349250417096 -32.65729187116026" fill="#4bff2c" stroke="none" /><path d="M 87.65650970185807 116.9893568818739 l -13.61257304876531 18.736099435413742 a44.15909253536681,44.15909253536681 0 0,0 -0.6111093325454753,-0.452084074656376 l 13.933067351729349 -18.4990054120176" fill="#ffe615" stroke="none" /><path d="M 87.07902340077011 116.55440617244103 l -16.597358400163934 21.264601033505944 a47.975091528624596,47.975091528624596 0 0,0 -0.646618580636959,-0.5137129074898774 l 16.960934473518254 -20.975754212010933" fill="#e4ff1a" stroke="none" /><path d="M 85.18274418774928 114.88116024355367 l -13.223681482956946 13.280713085542956 a39.74148051844385,39.74148051844385 0 0,0 -0.480605788182462,-0.486851126031043 l 13.450327896194942 -13.051121465531248" fill="#ffa60f" stroke="none" /><path d="M 84.67929136418377 114.36230785411682 l -29.4453218614255 27.603343127921743 a61.360519463464875,61.360519463464875 0 0,0 -0.7157371261820813,-0.7767912906714208 l 29.916105395603314 -27.092400582448978" fill="#40ff2d" stroke="none" /><path d="M 83.95833913139862 113.55231037782056 l -21.7610319732028 18.38414749309145 a49.487179424900866,49.487179424900866 0 0,0 -0.544132746818852,-0.6554429463917939 l 22.07426071991519 -18.006843289585895" fill="#d0ff1d" stroke="none" /><path d="M 83.50135304334701 112.99209946851258 l -16.866731588201613 13.28195306429379 a42.46850976827552,42.46850976827552 0 0,0 -0.447321183030972,-0.5782229285698218 l 17.092859588450654 -12.989652141610716" fill="#ffce13" stroke="none" /><path d="M 82.85270091963577 112.12312394758628 l -30.517103058191033 21.575562493067324 a58.37376721654516,58.37376721654516 0 0,0 -0.5730054961689233,-0.8254571540006855 l 30.88396946152209 -21.047064076879625" fill="#62ff29" stroke="none" /><path d="M 82.05923443525364 110.91462005526583 l -16.48601111494811 10.02959137374425 a40.29718284119414,40.29718284119414 0 0,0 -0.35541947227020076,-0.5957034792147068 l 16.65621146291654 -9.74432580064343" fill="#ffae10" stroke="none" /><line stroke="#e1ed5e" stroke-width="0.3" x1="26.63291911575756" x2="22.317208475507996" y1="142.92168965132927" y2="145.44649492493687" /><path d="M 25.769776987707644 143.4266507060508 a86.0,86.0 0 0,1 -11.730757126820373,-40.83630448921669" fill="none" id="id9" stroke="none" /><text fill="#e1ed5e" style="font-size:6.75px; font-family:Arial;" text-anchor="middle"><textPath startOffset="21.46611528233685" xlink:href="#id9">September</textPath></text><path d="M 81.69416730710424 110.29060199501025 l -24.029803281325904 13.508325228083319 a48.566397954881474,48.566397954881474 0 0,0 -0.40338692910937857,-0.7322644479875796 l 24.2587666198868 -13.092690261697916" fill="#dcff1b" stroke="none" /><path d="M 81.35079622478065 109.6543875284942 l -7.219080442322737 3.7371997769774614 a29.129070340805708,29.129070340805708 0 0,0 -0.22668149633256543,-0.4472640975432874 l 7.282340608441569 -3.612381467731489" fill="#ff0000" stroke="none" /><path d="M 81.02952815118164 109.00673069616217 l -34.65883943805066 16.455196030323872 a59.366764622378085,59.366764622378085 0 0,0 -0.4303394519819679,-0.9269128947742397 l 34.936953506872456 -15.856163068270806" fill="#57ff2a" stroke="none" /><path d="M 80.87730276802145 108.67885076344099 l -26.57320396326776 12.06026894145507 a50.18193372300155,50.18193372300155 0 0,0 -0.3502195129776149,-0.7896525465132926 l 26.776864560976655 -11.60106805844908" fill="#c7ff1e" stroke="none" /><path d="M 80.58989483394504 108.01547362559985 l -44.83137404724074 18.513279201778555 a69.50354219813866,69.50354219813866 0 0,0 -0.44713080241999353,-1.1097419826761974 l 45.14340746391813 -17.738837851259554" fill="#39ff87" stroke="none" /><path d="M 80.32549172779594 107.34259656027581 l -27.21521269697429 10.156814308711146 a50.04872938775791,50.04872938775791 0 0,0 -0.2942763736620453,-0.8097221936445446 l 27.38601333164156 -9.686844318060485" fill="#c9ff1d" stroke="none" /><path d="M 79.97269907076064 106.31721596034903 l -27.866988535689437 8.790090355485903 a50.22045068964291,50.22045068964291 0 0,0 -0.25295138836382197,-0.8266597728423554 l 28.01416669655939 -8.3091036100915" fill="#c7ff1e" stroke="none" /><path d="M 79.76711848015287 105.62410040840567 l -42.02905051708569 11.682745235579787 a64.62255865498038,64.62255865498038 0 0,0 -0.2886841209114378,-1.0743010070404382 l 42.22392271433891 -10.95755329536381" fill="#32ff47" stroke="none" /><path d="M 79.50377843672027 104.57218783832718 l -17.066845547024524 3.807180919068253 a38.48633304831257,38.48633304831257 0 0,0 -0.1386716850510426,-0.6478279463774038 l 17.12985127080001 -3.5128391532746854" fill="#ff930d" stroke="none" /><path d="M 79.4281124754447 104.21870165774334 l -26.27236745934628 5.38770591766505 a47.81911010779739,47.81911010779739 0 0,0 -0.15841803310683097,-0.8077701378365303 l 26.361215425428778 -4.934672052760565" fill="#e6ff1a" stroke="none" /><path d="M 79.1416061653843 102.43462659150553 l -29.321690049559237 3.4224766714332846 a50.52075293634846,50.52075293634846 0 0,0 -0.09338568359157248,-0.8646354488797062 l 29.376258034651862 -2.9172449006687966" fill="#c3ff1e" stroke="none" /><path d="M 79.07016306316243 101.71520430193888 l -29.626374587537736 2.4278872929946234 a50.725691041733356,50.725691041733356 0 0,0 -0.0638260629262996,-0.8708559185862139 l 29.663777209128373 -1.917558237911649" fill="#c0ff1e" stroke="none" /><path d="M 79.0235259727143 100.99374915477108 l -43.650044756753694 2.067897351400417 a64.69900006547667,64.69900006547667 0 0,0 -0.043126095598889955,-1.1128929009091946 l 43.679172985203785 -1.3162272034772255" fill="#32ff48" stroke="none" /><line stroke="#e1ed5e" stroke-width="0.3" x1="15.007084014347285" x2="10.007500721073583" y1="101.09737516637583" y2="101.16192664675087" /><path d="M 14.007167355692545 101.11028546245083 a86.0,86.0 0 0,1 10.666146001902534,-42.60595125391555" fill="none" id="id10" stroke="none" /><text fill="#e1ed5e" style="font-size:6.75px; font-family:Arial;" text-anchor="middle"><textPath startOffset="22.20632615414155" xlink:href="#id10">October</textPath></text><path d="M 79.03285615573316 98.82574320788736 l -28.759216418425297 -1.6106488068191263 a49.80428299022093,49.80428299022093 0 0,0 0.05530506879909094,-0.8555449357190528 l 28.727230758621793 2.105452806791191" fill="#ccff1d" stroke="none" /><path d="M 79.12142395522702 97.74499172005258 l -62.635728134318974 -6.7650248398422725 a84.0,84.0 0 0,0 0.16763858798564435,-1.436225046700553 l 62.50999919332974 7.842193624867687" fill="#4dd2ff" stroke="none" /><path d="M 79.26566170972629 96.67025291283419 l -29.09574193303091 -4.672512842904855 a50.46853533687489,50.46853533687489 0 0,0 0.14512861432355803,-0.8565572969974783 l 29.01100145718713 5.172655928218161" fill="#c3ff1e" stroke="none" /><path d="M 79.3925641242962 95.95851677861259 l -29.13265569337899 -5.713429845877246 a50.68762214042627,50.68762214042627 0 0,0 0.175284324201546,-0.8547486157674212 l 29.02999207326245 6.21405411780807" fill="#c1ff1e" stroke="none" /><path d="M 79.54389044137918 95.25157060432595 l -33.98864596233283 -7.8897057695256345 a55.89234173113765,55.89234173113765 0 0,0 0.22561129978162586,-0.9353044914981697 l 33.84780186229039 8.473595492683202" fill="#7fff26" stroke="none" /><path d="M 79.71946130924805 94.55025226153421 l -19.302735570993583 -5.186994346072028 a40.98750887103954,40.98750887103954 0 0,0 0.18895871905929879,-0.6797850495618519 l 19.210590081367926 5.518490699052823" fill="#ffb811" stroke="none" /><path d="M 79.91906864156998 93.8553929516997 l -29.40446206156692 -8.997534108851662 a51.75025218059321,51.75025218059321 0 0,0 0.26797886372628865,-0.8495662298405042 l 29.245227714072428 9.50235050511858" fill="#b3ff20" stroke="none" /><path d="M 80.02781315780177 93.51064311812611 l -12.63197032203848 -4.104375959859828 a34.28203961132236,34.28203961132236 0 0,0 0.1871843541360723,-0.5596573935925564 l 12.559448674130637 4.321206456374707" fill="#ff5307" stroke="none" /><path d="M 80.2630227832202 92.82701384747504 l -53.889725516173975 -19.585078841873163 a78.33827543143376,78.33827543143376 0 0,0 0.47150469329661465,-1.2633981606499713 l 53.54461623437574 20.509800139552475" fill="#45fff0" stroke="none" /><path d="M 80.52162464483688 92.15188598940014 l -25.63411481328965 -10.328348845694524 a48.63661759585053,48.63661759585053 0 0,0 0.3195618310207825,-0.7738443212338856 l 25.452531295382666 10.76806773738172" fill="#dbff1b" stroke="none" /><path d="M 80.803312248108 91.48605970444005 l -26.050330095455138 -11.553605391663147 a49.497464722821285,49.497464722821285 0 0,0 0.35213364503703515,-0.7758798097556557 l 25.847594133454752 12.000307210260875" fill="#d0ff1d" stroke="none" /><path d="M 81.10775173730289 90.83032412892265 l -49.93672970051941 -24.237645993647995 a76.50802155090864,76.50802155090864 0 0,0 0.5852498852808562,-1.1798280562941226 l 49.512119802285135 25.09363363844108" fill="#42ffdb" stroke="none" /><path d="M 81.43458229118936 90.18545643968196 l -24.538339246414306 -12.972107776357895 a48.75618261097087,48.75618261097087 0 0,0 0.3986210317775657,-0.7385842318411641 l 24.31141011541827 13.39257299153153" fill="#daff1c" stroke="none" /><line stroke="#e1ed5e" stroke-width="0.3" x1="26.266209847984243" x2="21.928928074336255" y1="57.711370442889674" y2="55.22380399835377" /><path d="M 25.398753493254645 57.213857153982495 a86.0,86.0 0 0,1 29.58750427330803,-30.492523968695096" fill="none" id="id11" stroke="none" /><text fill="#e1ed5e" style="font-size:6.75px; font-family:Arial;" text-anchor="middle"><textPath startOffset="21.46611528233685" xlink:href="#id11">November</textPath></text><path d="M 81.78341655067845 89.55222093294921 l -23.776818120171534 -13.636747161073936 a48.409814903694176,48.409814903694176 0 0,0 0.42079730339769755,-0.7192789949566658 l 23.53856114230351 14.044005568384494" fill="#deff1b" stroke="none" /><path d="M 82.15384107792192 88.93136811851018 l -25.741795791514107 -15.965702358072212 a51.290983845998895,51.290983845998895 0 0,0 0.4718096495448145,-0.7462895602474826 l 25.463158545723328 16.40643956603391" fill="#b9ff1f" stroke="none" /><path d="M 82.95767976084542 87.72973835380427 l -40.05977859570805 -28.842549486230833 a70.36272401319465,70.36272401319465 0 0,0 0.716149752714498,-0.9768274578773042 l 39.55736623047992 29.52783938777964" fill="#3aff91" stroke="none" /><path d="M 83.84228863543731 86.58626213691792 l -42.19545144560825 -35.0296345772801 a75.84096481022613,75.84096481022613 0 0,0 0.8425186739582026,-0.9972763658970049 l 41.58622215816292 35.75076989280622" fill="#42ffd3" stroke="none" /><path d="M 84.5562425177563 85.77008943001954 l -29.589330332706165 -27.263671094558486 a61.23476396215428,61.23476396215428 0 0,0 0.7209159372795437,-0.76902285747971 l 29.115647073456167 27.768963368916246" fill="#41ff2d" stroke="none" /><path d="M 85.31137513191541 84.99185889309783 l -18.90097119110861 -19.31211704575594 a48.02229776973259,48.02229776973259 0 0,0 0.5957434880594709,-0.5731047635062578 l 18.565744459436715 19.634604896024513" fill="#e4ff1b" stroke="none" /><path d="M 85.83668400450813 84.49514656593479 l -37.38021180421395 -40.92083418481436 a76.42377562841571,76.42377562841571 0 0,0 0.9789121871654578,-0.8788770270407918 l 36.67028862945252 41.55821022062443" fill="#42ffda" stroke="none" /><path d="M 86.65592168130627 83.78471172551755 l -8.527322839800199 -10.362124288736508 a34.41971887147422,34.41971887147422 0 0,0 0.4607269522446062,-0.3725424873032715 l 8.347692488991092 10.507372873303915" fill="#ff5507" stroke="none" /><path d="M 87.22198572758235 83.33499621200491 l -16.816137626651113 -21.93149821819418 a48.63644511823338,48.63644511823338 0 0,0 0.6687600283528032,-0.5036961885059399 l 16.43613144453992 22.217710996205973" fill="#dbff1b" stroke="none" /><path d="M 87.51073957382395 83.11751280151077 l -11.082114918813305 -14.980363677654248 a39.63396272907529,39.63396272907529 0 0,0 0.5519589538846534,-0.4010216537105517 l 10.822610648574871 15.168904566181467" fill="#ffa40f" stroke="none" /><path d="M 87.80319425747018 82.90503203632743 l -16.21020827864454 -22.720128290770848 a48.91012508008737,48.91012508008737 0 0,0 0.6895602378705764,-0.48308101352007415 l 15.816716901190304 22.995794147054866" fill="#d8ff1c" stroke="none" /><path d="M 88.39885842347998 82.49532879139004 l -23.544847537991053 -35.526229215540134 a63.62009863740745,63.62009863740745 0 0,0 0.9180470338090763,-0.5971233279290242 l 22.92983347839769 35.926251467628695" fill="#30ff3a" stroke="none" /><line stroke="#e1ed5e" stroke-width="0.3" x1="56.762969772571076" x2="54.21961505331055" y1="26.818313649435495" y2="22.513508569990535" /><path d="M 56.25429882871897 25.957352633546506 a86.0,86.0 0 0,1 42.265352541879196,-11.944610805530505" fill="none" id="id12" stroke="none" /><text fill="#e1ed5e" style="font-size:6.75px; font-family:Arial;" text-anchor="middle"><textPath startOffset="22.20632615414155" xlink:href="#id12">December</textPath></text><path d="M 89.94658935756843 81.56283822128135 l -26.84898390427941 -49.23891776071772 a77.08332157548247,77.08332157548247 0 0,0 1.170399948304483,-0.625187118867207 l 25.997438909446622 49.693783606086676" fill="#43ffe1" stroke="none" /><path d="M 91.23893434514133 80.91482961587045 l -16.928840218774646 -36.87791105661232 a61.57789983540562,61.57789983540562 0 0,0 0.9671186891894592,-0.43391796500617197 l 16.291539411118414 37.163849352135024" fill="#3eff2e" stroke="none" /><path d="M 91.90106846888425 80.62456947434976 l -17.575020872041602 -42.04549632069582 a66.57088017041522,66.57088017041522 0 0,0 1.0610641623208095,-0.43283471354513253 l 16.848672840132412 42.34179192042453" fill="#35ff61" stroke="none" /><path d="M 92.91201910852362 80.23233633223022 l -10.302093222396117 -28.731498717671965 a51.52264967735478,51.52264967735478 0 0,0 0.8374098825344835,-0.2921558650422156 l 9.806001335798348 28.90457543588639" fill="#b6ff1f" stroke="none" /><path d="M 93.59665428221793 80.00007090966166 l -10.254978838927746 -32.02995100388163 a54.63156779423037,54.63156779423037 0 0,0 0.8980769673482759,-0.2790368853697775 l 9.702116498868742 32.20172802413393" fill="#8fff24" stroke="none" /><path d="M 94.63758080256005 79.69619591428918 l -14.548997985448914 -55.087078026459 a77.97595552400836,77.97595552400836 0 0,0 1.3006801960168546,-0.3315723428173299 l 13.59860890074706 55.32935336544519" fill="#45ffec" stroke="none" /><path d="M 95.33964822691252 79.52364482259891 l -6.854355464350075 -30.116228094775074 a51.88639479589978,51.88639479589978 0 0,0 0.8725741828388045,-0.1907109195577263 l 6.3349385573577495 30.229752512428668" fill="#b1ff20" stroke="none" /><path d="M 95.692805502759 79.44645832069477 l -8.216331926385857 -39.2075911148548 a61.05924751357904,61.05924751357904 0 0,0 1.0305451586415544,-0.20671766395799435 l 7.540220358277168 39.34321273489" fill="#43ff2d" stroke="none" /><path d="M 96.04723909329186 79.375362276772 l -1.7492882328738029 -9.127401562614121 a30.293517558324268,30.293517558324268 0 0,0 0.5129772686997751,-0.09374331698670113 l 1.5919158430711344 9.15616036095156" fill="#ff1302" stroke="none" /><path d="M 96.75951476605007 79.25152402106235 l -9.627469830556194 -61.6436465824455 a83.39092353315276,83.39092353315276 0 0,0 1.4201514764837146,-0.2092934114813338 l 8.564949373643831 61.8002344780878" fill="#4cd8ff" stroke="none" /><path d="M 97.83486435360386 79.11191278185805 l -3.3245640634666636 -32.0736413146127 a53.24548330217001,53.24548330217001 0 0,0 0.9124624541136845,-0.08664930470846222 l 2.7719764822627426 32.12611616383634" fill="#a0ff22" stroke="none" /><path d="M 98.91598698831166 79.02799685794201 l -2.8702722918306445 -55.530107917321665 a76.60423858249155,76.60423858249155 0 0,0 1.3174439543762986,-0.05673190799242466 l 1.9139875050650217 55.57128755183828" fill="#43ffdc" stroke="none" /></svg>