<?xml version="1.0" encoding="utf-8" ?>
<svg baseProfile="full" height="200mm" version="1.1" viewBox="0,0,200,200" width="200mm" xmlns="http://www.w3.org/2000/svg" xmlns:ev="http://www.w3.org/2001/xml-events" xmlns:xlink="http://www.w3.org/1999/xlink"><defs /><rect fill="#1a1a1a" height="200" width="200" x="0" y="0" /><text alignment-baseline="middle" fill="#e1ed5e" style="dominant-baseline: central; font-size:9.0px; font-family:Arial;" text-anchor="middle" x="100.0" y="100.0">2024</text><line stroke="#e1ed5e" stroke-width="0.3" x1="100.0" x2="100.0" y1="15.0" y2="10.0" /><path d="M 100.0 14.0 a86.0,86.0 0 0,1 42.35913384403234,11.155469271406648" fill="none" id="id13" stroke="none" /><text fill="#e1ed5e" style="font-size:6.75px; font-family:Arial;" text-anchor="middle"><textPath startOffset="22.145653131862478" xlink:href="#id13">January</textPath></text><path d="M 100.36049292484886 79.00309439819443 l 0.5454319986860332 -31.76867949188312 a52.77336136959994,52.77336136959994 0 0,0 0.9056579433017754,0.023326536029563694 l -1.09070325605855 31.75463523850351" fill="#efff19" stroke="none" /><path d="M 101.80034050326958 79.07731436759882 l 2.698224890631745 -31.357463240804893 a52.47333662735578,52.47333662735578 0 0,0 0.8967954012477706,0.08492745689282702 l -3.2361198552645285 31.306524028406884" fill="#f4ff19" stroke="none" /><path d="M 102.51750503828377 79.15144685158666 l 5.335624619125958 -44.18662594918362 a65.50760387674549,65.50760387674549 0 0,0 1.1152581533680603,0.1443924961995825 l -6.0933605943848095 44.08852185678364" fill="#37ff2e" stroke="none" /><path d="M 104.9986988182912 79.60360301121754 l 8.066809167542225 -32.915334208950554 a54.88941776178006,54.88941776178006 0 0,0 0.9132415249479033,0.23214242443855412 l -8.630655985715523 32.77200655267673" fill="#ceff1d" stroke="none" /><path d="M 108.4095320186766 80.7573450057729 l 12.68629920472904 -29.02873527420796 a52.67979891242926,52.67979891242926 0 0,0 0.8255340839209974,0.3692508953682292 l -13.18274669150567 28.80668062792988" fill="#f1ff19" stroke="none" /><path d="M 109.71004243097381 81.37971332152246 l 15.851407654723465 -30.39716426437522 a55.28198827302226,55.28198827302226 0 0,0 0.8376831882872353,0.4460191150697313 l -16.37087965879726 30.120574681582916" fill="#c8ff1d" stroke="none" /><line stroke="#e1ed5e" stroke-width="0.3" x1="143.13028292997686" x2="145.6673583964461" y1="26.7553504044142" y2="22.446841604673864" /><path d="M 143.63769802327073 25.89364864446614 a86.0,86.0 0 0,1 29.32050498858742,28.57503671076993" fill="none" id="id14" stroke="none" /><text fill="#e1ed5e" style="font-size:6.75px; font-family:Arial;" text-anchor="middle"><textPath startOffset="20.669276256404974" xlink:href="#id14">February</textPath></text><path d="M 115.41159269507618 85.73525988315684 l 20.273087819269655 -18.764467425888633 a48.62432492396973,48.62432492396973 0 0,0 0.5617320486460312,0.6174419224332046 l -20.59221756875756 18.413687927897755" fill="#ffcb12" stroke="none" /><line stroke="#e1ed5e" stroke-width="0.3" x1="172.87174338648825" x2="177.1583165268699" y1="56.24261187166439" y2="53.66864786411523" /><path d="M 173.72905801456457 55.72781907015455 a86.0,86.0 0 0,1 12.242430191666344,42.057860355516425" fill="none" id="id15" stroke="none" /><text fill="#e1ed5e" style="font-size:6.75px; font-family:Arial;" text-anchor="middle"><textPath startOffset="22.145653131862474" xlink:href="#id15">March</textPath></text><path d="M 118.8641267826498 90.77261029715802 l 16.558243048994054 -8.099466419403504 a39.433034724336764,39.433034724336764 0 0,0 0.29221895831875455,0.6106252332374744 l -16.69484126527272 7.814028684100926" fill="#ff2503" stroke="none" /><path d="M 119.0197475246899 91.09779779509293 l 19.71348145494043 -9.226904712943957 a42.76596245646003,42.76596245646003 0 0,0 0.3055027973283158,0.6675787466390841 l -19.868968717123792 8.887136984090189" fill="#ff6309" stroke="none" /><path d="M 120.7213421655516 96.59031103205396 l 45.19884168984305 -7.437452199887217 a66.80666965987706,66.80666965987706 0 0,0 0.17649211180675284,1.1332059646976396 l -45.319855293788066 6.660458053258137" fill="#31ff3b" stroke="none" /><path d="M 120.93736805541906 98.37931529534042 l 24.331506031428265 -1.883412450031498 a45.404291184428274,45.404291184428274 0 0,0 0.05348201476241264,0.7776167569567155 l -24.360252007355744 1.4654522689204483" fill="#ff930d" stroke="none" /><line stroke="#e1ed5e" stroke-width="0.3" x1="184.99686870605535" x2="189.99668451229388" y1="99.2704041080226" y2="99.22748670261217" /><path d="M 185.99683186730306 99.26182062694052 a86.0,86.0 0 0,1 -10.086455211305974,41.156179273409016" fill="none" id="id16" stroke="none" /><text fill="#e1ed5e" style="font-size:6.75px; font-family:Arial;" text-anchor="middle"><textPath startOffset="21.40746469413373" xlink:href="#id16">April</textPath></text><path d="M 120.98066250479742 100.90099992219065 l 18.92237836868932 0.8126083451346007 a39.93981878082322,39.93981878082322 0 0,0 -0.03529616923640983,0.6847362537389597 l -18.905640609996336 -1.1373163922502911" fill="#ff2f04" stroke="none" /><path d="M 120.96210409425399 101.26102812881392 l 33.93457962682604 2.0414200433549605 a54.995927553793976,54.995927553793976 0 0,0 -0.06478006665399333,0.9418879518787302 l -33.894535599006986 -2.6236514193880343" fill="#ccff1d" stroke="none" /><path d="M 120.82617615685814 102.69636545807757 l 26.704915494897882 3.457485961848608 a47.92780571762239,47.92780571762239 0 0,0 -0.11264285817339112,0.8150276087656081 l -26.64162812016928 -3.9154018788143015" fill="#ffbf11" stroke="none" /><path d="M 120.7213421655516 103.40968896794604 l 20.617946988209066 3.3926753308608006 a41.895214378159196,41.895214378159196 0 0,0 -0.1228630677943287,0.7086415254479858 l -20.556669102922502 -3.7461098892293747" fill="#ff5307" stroke="none" /><path d="M 120.51834098615036 104.47187691870673 l 47.140258759802144 10.273999990160648 a69.24685556322737,69.24685556322737 0 0,0 -0.2631022354871804,1.1592769951768915 l -46.9569456627573 -11.081711319276558" fill="#35ff61" stroke="none" /><path d="M 120.35273937422433 105.17358676015961 l 18.11932444091403 4.605861417813291 a39.69555769682214,39.69555769682214 0 0,0 -0.1735461791376679,0.6589831096622106 l -18.037588780971635 -4.916225031848304" fill="#ff2a04" stroke="none" /><path d="M 119.71291397450082 107.23885506374661 l 22.33254855732918 8.20082116828103 a44.79067449442306,44.79067449442306 0 0,0 -0.27123806890217883,0.7194912027841597 l -22.18847980461256 -8.582980651259348" fill="#ff880c" stroke="none" /><path d="M 119.58574465831526 107.57618678355244 l 28.950777296935097 11.198782591985292 a52.04126668870466,52.04126668870466 0 0,0 -0.32944928333512796,0.8304274062048839 l -28.754269338633843 -11.69411101540374" fill="#fbff18" stroke="none" /><path d="M 119.31412917781788 108.2440532568976 l 32.89777421032315 14.042103587811782 a56.76931955131715,56.76931955131715 0 0,0 -0.39026506115057286,0.8930028343245611 l -32.65187526715562 -14.604768491912187" fill="#b1ff20" stroke="none" /><path d="M 119.0197475246899 108.90220220490707 l 57.05924257406971 26.70660661472122 a84.0,84.0 0 0,0 -0.6224829681603521,1.300749991739586 l -56.592380347949444 -27.682169108525912" fill="#4dd2ff" stroke="none" /><line stroke="#e1ed5e" stroke-width="0.3" x1="174.33088141563837" x2="178.70328620479359" y1="141.23008692659167" y2="143.65538615756765" /><path d="M 175.20536237346943 141.71514677278685 a86.0,86.0 0 0,1 -30.301960400862466,31.631185727798858" fill="none" id="id17" stroke="none" /><text fill="#e1ed5e" style="font-size:6.75px; font-family:Arial;" text-anchor="middle"><textPath startOffset="22.145653131862474" xlink:href="#id17">May</textPath></text><path d="M 115.41159269507618 114.26474011684316 l 16.47428261267949 15.248350039537504 a43.448032575945206,43.448032575945206 0 0,0 -0.5113298946086569,0.5430146284841194 l -16.210096884334575 -15.52890612796612" fill="#ff700a" stroke="none" /><path d="M 114.65682725009322 115.03919595460226 l 30.43815960607155 31.23223321133555 a64.6111677391461,64.6111677391461 0 0,0 -0.800955461089107,0.7672972133778319 l -29.89753165911713 -31.75014255501896" fill="#43ff2d" stroke="none" /><path d="M 113.86319453409587 115.77377054828091 l 11.821929381905017 13.451185514963397 a38.907886700242166,38.907886700242166 0 0,0 -0.5054699948041876,0.43661294258619243 l -11.589279907337973 -13.652142590014307" fill="#ff1b02" stroke="none" /><path d="M 112.16784306229584 117.11559508785304 l 11.733840935468017 16.505116744894323 a41.25097286209865,41.25097286209865 0 0,0 -0.5806661938997351,0.4053501001512514 l -11.448779650394524 -16.704111660850696" fill="#ff4806" stroke="none" /><line stroke="#e1ed5e" stroke-width="0.3" x1="143.1302829299769" x2="145.66735839644613" y1="173.24464959558577" y2="177.55315839532614" /><path d="M 143.63769802327073 174.10635135553383 a86.0,86.0 0 0,1 -40.68552437913181,11.842963189579606" fill="none" id="id18" stroke="none" /><text fill="#e1ed5e" style="font-size:6.75px; font-family:Arial;" text-anchor="middle"><textPath startOffset="21.407464694133747" xlink:href="#id18">June</textPath></text><path d="M 110.34350942703117 118.27599006163325 l 8.311006170815766 14.684751558601157 a37.873492581833105,37.873492581833105 0 0,0 -0.5685637452976157,0.3153727252452197 l -8.057698237362056 -14.82525719927952" fill="#ff0701" stroke="none" /><path d="M 107.74402155503746 119.51999308798841 l 6.083579134717637 15.334593507513066 a37.497263201180786,37.497263201180786 0 0,0 -0.6003628556579835,0.23223324983156704 l -5.819444016566125 -15.436766645482674" fill="#ff0000" stroke="none" /><path d="M 105.69591212413111 120.21278271476187 l 4.842994255589852 17.186078093157104 a38.85541580540119,38.85541580540119 0 0,0 -0.6435541091206928,0.1754035341988536 l -4.547258745534465 -17.266682121500097" fill="#ff1a02" stroke="none" /><path d="M 104.9986988182912 120.39639698878246 l 4.493299054685033 18.33419348517707 a39.87676845084303,39.87676845084303 0 0,0 -0.6662607553409919,0.15723572412649273 l -4.177906145604163 -18.408625352949787" fill="#ff2e04" stroke="none" /><path d="M 104.29559338865022 120.5559693870025 l 3.7894857486124343 18.134061116393642 a39.525775957083056,39.525775957083056 0 0,0 -0.665357176806895,0.13309006977590032 l -3.4776320862745806 -18.196440582832405" fill="#ff2703" stroke="none" /><path d="M 103.58742460773223 120.69131181640829 l 3.9239321597342998 22.632197952954158 a43.969841701150216,43.969841701150216 0 0,0 -0.7448124704902049,0.12255860858477372 l -3.5348421861910224 -22.696222560034602" fill="#ff790b" stroke="none" /><line stroke="#e1ed5e" stroke-width="0.3" x1="101.45913802915013" x2="101.54496967792366" y1="184.9874750549273" y2="189.98673829345242" /><path d="M 101.47630435890484 185.9873277026323 a86.0,86.0 0 0,1 -42.54439059252881,-10.42667462771756" fill="none" id="id19" stroke="none" /><text fill="#e1ed5e" style="font-size:6.75px; font-family:Arial;" text-anchor="middle"><textPath startOffset="22.145653131862474" xlink:href="#id19">July</textPath></text><line stroke="#e1ed5e" stroke-width="0.3" x1="58.13341422392154" x2="55.67067388415222" y1="173.97424548756322" y2="178.32567169271397" /><path d="M 57.64086615596768 174.84453072859336 a86.0,86.0 0 0,1 -31.369924170532247,-30.572349798747897" fill="none" id="id20" stroke="none" /><text fill="#e1ed5e" style="font-size:6.75px; font-family:Arial;" text-anchor="middle"><textPath startOffset="22.145653131862474" xlink:href="#id20">August</textPath></text><line stroke="#e1ed5e" stroke-width="0.3" x1="26.387840678322732" x2="22.057713659400548" y1="142.50000000000003" y2="145.00000000000006" /><path d="M 25.521815274538298 143.00000000000003 a86.0,86.0 0 0,1 -11.493303480769221,-40.785679425670985" fill="none" id="id21" stroke="none" /><text fill="#e1ed5e" style="font-size:6.75px; font-family:Arial;" text-anchor="middle"><textPath startOffset="21.40746469413373" xlink:href="#id21">September</textPath></text><path d="M 81.63589988554817 110.18625677009913 l -23.432447276781794 12.997583503983984 a47.79583479427717,47.79583479427717 0 0,0 -0.3918226299453452,-0.7209095071968786 l 23.652115256342466 -12.593419163312518" fill="#ffbc11" stroke="none" /><path d="M 81.29705330413844 109.54985784667822 l -24.19790446019795 12.355622434272588 a48.16983595834115,48.16983595834115 0 0,0 -0.3697151590638962,-0.7396779804944185 l 24.406439532473584 -11.938412597614416" fill="#ffc312" stroke="none" /><path d="M 81.1358732173502 109.22738970284198 l -24.110584585495722 11.79369511756709 a47.84048311004237,47.84048311004237 0 0,0 -0.3545224514829091,-0.7408155715500618 l 24.309486294938544 -11.378067043951923" fill="#ffbd11" stroke="none" /><path d="M 80.83023694016515 108.57439118712176 l -30.1183874193762 13.471571602264932 a53.99394644747108,53.99394644747108 0 0,0 -0.3711855449145296,-0.8493451673376775 l 30.345206846307697 -12.952564365151405" fill="#dcff1b" stroke="none" /><path d="M 80.5471966667186 107.91128576633889 l -26.607714630283883 10.821125902672856 a49.72398377050301,49.72398377050301 0 0,0 -0.31477963278159976,-0.7934503038849879 l 26.789552938031605 -10.362774581574303" fill="#ffdd14" stroke="none" /><path d="M 80.28708602549918 107.23885506374661 l -19.824485816577933 7.279825789588363 a42.1188565367175,42.1188565367175 0 0,0 -0.24340653653521838,-0.6808514034010723 l 19.946532523157096 -6.93843942980637" fill="#ff5808" stroke="none" /><path d="M 80.05021161711548 106.5578916946017 l -37.99673829002106 12.490282587050412 a60.99699088412436,60.99699088412436 0 0,0 -0.31844868725300807,-0.9975359772024858 l 38.20555169305132 -11.836177576156535" fill="#74ff27" stroke="none" /><path d="M 79.64726062577567 105.17358676015961 l -27.027470436007643 6.870277294732143 a48.887001779965146,48.887001779965146 0 0,0 -0.1997673592352938,-0.8151189964584887 l 27.141425321759233 -6.405302473665555" fill="#ffcf13" stroke="none" /><path d="M 79.56144815229197 104.8234425847677 l -22.045322038285867 5.20263597473567 a43.650908256786224,43.650908256786224 0 0,0 -0.1658508743825866,-0.7307695540696908 l 22.13138377422612 -4.823432086726953" fill="#ff740a" stroke="none" /><path d="M 79.34024301695615 103.76489593502545 l -36.72535144761826 6.692582419580232 a58.330176779570046,58.330176779570046 0 0,0 -0.17106069441333605,-0.9866326277655594 l 36.834826959523824 -6.06115675889408" fill="#9aff22" stroke="none" /><path d="M 79.2786578344484 103.40968896794605 l -32.891872200868605 5.412345053827619 a54.33419769335937,54.33419769335937 0 0,0 -0.1435419149472364,-0.921642063983217 l 32.97993560795411 -4.8469148079129525" fill="#d7ff1c" stroke="none" /><path d="M 79.0935383218832 101.97986365728391 l -18.35933665714201 1.738648269561701 a39.44147879904234,39.44147879904234 0 0,0 -0.058047296434393325,-0.6745975735711934 l 18.386477576274142 -1.4232296486148455" fill="#ff2503" stroke="none" /><line stroke="#e1ed5e" stroke-width="0.3" x1="15.003131293944662" x2="10.003315487706104" y1="100.72959589197737" y2="100.7725132973878" /><path d="M 14.003168132696942 100.73817937305945 a86.0,86.0 0 0,1 10.791469493833604,-42.45332614584628" fill="none" id="id22" stroke="none" /><text fill="#e1ed5e" style="font-size:6.75px; font-family:Arial;" text-anchor="middle"><textPath startOffset="22.145653131862435" xlink:href="#id22">October</textPath></text><line stroke="#e1ed5e" stroke-width="0.3" x1="26.387840678322718" x2="22.05771365940052" y1="57.49999999999999" y2="54.99999999999999" /><path d="M 25.521815274538284 56.99999999999999 a86.0,86.0 0 0,1 29.574782752854787,-30.34633250058573" fill="none" id="id23" stroke="none" /><text fill="#e1ed5e" style="font-size:6.75px; font-family:Arial;" text-anchor="middle"><textPath startOffset="21.40746469413373" xlink:href="#id23">November</textPath></text><line stroke="#e1ed5e" stroke-width="0.3" x1="56.869717070023135" x2="54.33264160355391" y1="26.7553504044142" y2="22.446841604673864" /><path d="M 56.362301976729285 25.89364864446614 a86.0,86.0 0 0,1 42.16139366436587,-11.88097634709845" fill="none" id="id24" stroke="none" /><text fill="#e1ed5e" style="font-size:6.75px; font-family:Arial;" text-anchor="middle"><textPath startOffset="22.145653131862474" xlink:href="#id24">December</textPath></text></svg>