<?xml version="1.0" encoding="utf-8" ?>
<svg baseProfile="full" height="200mm" version="1.1" viewBox="0,0,200,200" width="200mm" xmlns="http://www.w3.org/2000/svg" xmlns:ev="http://www.w3.org/2001/xml-events" xmlns:xlink="http://www.w3.org/1999/xlink"><defs /><rect fill="#1a1a1a" height="200" width="200" x="0" y="0" /><text alignment-baseline="middle" fill="#e1ed5e" style="dominant-baseline: central; font-size:9.0px; font-family:Arial;" text-anchor="middle" x="100.0" y="100.0">2024</text><line stroke="#e1ed5e" stroke-width="0.3" x1="100.0" x2="100.0" y1="15.0" y2="10.0" /><path d="M 100.0 14.0 a86.0,86.0 0 0,1 42.35913384403234,11.155469271406648" fill="none" id="id13" stroke="none" /><text fill="#e1ed5e" style="font-size:6.75px; font-family:Arial;" text-anchor="middle"><textPath startOffset="22.145653131862478" xlink:href="#id13">January</textPath></text><path d="M 100.36049292484886 79.00309439819443 l 0.7501574808290115 -43.69291246994375 a64.69935166970112,64.69935166970112 0 0,0 1.1103230919054872,0.028597984260333196 l -1.50009388680524 43.67359676833337" fill="#80ff26" stroke="none" /><path d="M 101.80034050326958 79.07731436759882 l 3.7109916388157727 -43.12734802244538 a64.2867139708304,64.2867139708304 0 0,0 1.0986918910797057,0.10404726439090031 l -4.450783093280491 43.0572890025493" fill="#87ff25" stroke="none" /><path d="M 102.51750503828377 79.15144685158666 l 7.3383276605976535 -60.77188006612306 a82.21333563550951,82.21333563550951 0 0,0 1.3996709917157502,0.18121543226708348 l -8.380476474204196 60.63695303765558" fill="#49edff" stroke="none" /><path d="M 104.9986988182912 79.60360301121754 l 11.094650218597096 -45.26995895054663 a67.60966044563287,67.60966044563287 0 0,0 1.1248789279301212,0.28593982467500745 l -11.870134439752611 45.07283389403635" fill="#4eff2b" stroke="none" /><path d="M 108.4095320186766 80.7573450057729 l 17.448045357420874 -39.92454233967136 a64.57067095910766,64.57067095910766 0 0,0 1.0118734467267347,0.45259812221022655 l -18.130832207003237 39.619140466551286" fill="#82ff25" stroke="none" /><path d="M 109.71004243097381 81.37971332152246 l 21.8011632293431 -41.80660508338684 a68.149580557527,68.149580557527 0 0,0 1.0326647015647583,0.5498357885126011 l -22.515616746694416 41.42619882715167" fill="#45ff2d" stroke="none" /><line stroke="#e1ed5e" stroke-width="0.3" x1="143.13028292997686" x2="145.6673583964461" y1="26.7553504044142" y2="22.446841604673864" /><path d="M 143.63769802327073 25.89364864446614 a86.0,86.0 0 0,1 29.32050498858742,28.57503671076993" fill="none" id="id14" stroke="none" /><text fill="#e1ed5e" style="font-size:6.75px; font-family:Arial;" text-anchor="middle"><textPath startOffset="20.669276256404974" xlink:href="#id14">February</textPath></text><path d="M 115.41159269507618 85.73525988315684 l 27.88250143696248 -25.80762706847604 a58.992992791931414,58.992992791931414 0 0,0 0.681515985025767,0.7491054515716774 l -28.32141512283013 25.325184041346695" fill="#eaff1a" stroke="none" /><line stroke="#e1ed5e" stroke-width="0.3" x1="172.87174338648825" x2="177.1583165268699" y1="56.24261187166439" y2="53.66864786411523" /><path d="M 173.72905801456457 55.72781907015455 a86.0,86.0 0 0,1 12.242430191666344,42.057860355516425" fill="none" id="id15" stroke="none" /><text fill="#e1ed5e" style="font-size:6.75px; font-family:Arial;" text-anchor="middle"><textPath startOffset="22.145653131862474" xlink:href="#id15">March</textPath></text><path d="M 118.8641267826498 90.77261029715802 l 22.773306154591655 -11.139565225135167 a46.35179257204119,46.35179257204119 0 0,0 0.34349049309282337,0.7177630214904474 l -22.961175905644392 10.746989701579615" fill="#ff0000" stroke="none" /><path d="M 119.0197475246899 91.09779779509293 l 27.112849305198324 -12.69018248285002 a50.935719949492224,50.935719949492224 0 0,0 0.3638642517245862,0.7951090570605172 l -27.32669802177796 12.222884443574818" fill="#ff6b09" stroke="none" /><path d="M 120.7213421655516 96.59031103205396 l 62.16402649665483 -10.229066903838131 a84.0,84.0 0 0,0 0.22191403144693922,1.424847272274235 l -62.330462020240034 9.160431449632455" fill="#4dd2ff" stroke="none" /><path d="M 120.93736805541906 98.37931529534042 l 33.46422892914792 -2.5903429616913742 a54.56433366658133,54.56433366658133 0 0,0 0.06427168936089751,0.9344962576106203 l -33.503764579673884 2.0155032799264196" fill="#ffba11" stroke="none" /><line stroke="#e1ed5e" stroke-width="0.3" x1="184.99686870605535" x2="189.99668451229388" y1="99.2704041080226" y2="99.22748670261217" /><path d="M 185.99683186730306 99.26182062694052 a86.0,86.0 0 0,1 -10.086455211305974,41.156179273409016" fill="none" id="id16" stroke="none" /><text fill="#e1ed5e" style="font-size:6.75px; font-family:Arial;" text-anchor="middle"><textPath startOffset="21.40746469413373" xlink:href="#id16">April</textPath></text><path d="M 120.98066250479742 100.90099992219065 l 26.024809183445587 1.1176172841991594 a47.04879577693937,47.04879577693937 0 0,0 -0.04157861274296718,0.8066139793979015 l -26.001788981246047 -1.5642030569737915" fill="#ff1101" stroke="none" /><path d="M 120.96210409425399 101.26102812881392 l 46.67177361646635 2.8076580045288466 a67.75614821579168,67.75614821579168 0 0,0 -0.0798104149319696,1.1604259171324964 l -46.61669924036932 -3.6084273458156866" fill="#4cff2c" stroke="none" /><path d="M 120.82617615685814 102.69636545807757 l 36.72848711051834 4.755237986385559 a58.035038189998886,58.035038189998886 0 0,0 -0.13639749364782064,0.9869043177001512 l -36.64144510031531 -5.385030612285795" fill="#fdff18" stroke="none" /><line stroke="#e1ed5e" stroke-width="0.3" x1="174.33088141563837" x2="178.70328620479359" y1="141.23008692659167" y2="143.65538615756765" /><path d="M 175.20536237346943 141.71514677278685 a86.0,86.0 0 0,1 -30.301960400862466,31.631185727798858" fill="none" id="id17" stroke="none" /><text fill="#e1ed5e" style="font-size:6.75px; font-family:Arial;" text-anchor="middle"><textPath startOffset="22.145653131862474" xlink:href="#id17">May</textPath></text><line stroke="#e1ed5e" stroke-width="0.3" x1="143.1302829299769" x2="145.66735839644613" y1="173.24464959558577" y2="177.55315839532614" /><path d="M 143.63769802327073 174.10635135553383 a86.0,86.0 0 0,1 -40.68552437913181,11.842963189579606" fill="none" id="id18" stroke="none" /><text fill="#e1ed5e" style="font-size:6.75px; font-family:Arial;" text-anchor="middle"><textPath startOffset="21.407464694133747" xlink:href="#id18">June</textPath></text><line stroke="#e1ed5e" stroke-width="0.3" x1="101.45913802915013" x2="101.54496967792366" y1="184.9874750549273" y2="189.98673829345242" /><path d="M 101.47630435890484 185.9873277026323 a86.0,86.0 0 0,1 -42.54439059252881,-10.42667462771756" fill="none" id="id19" stroke="none" /><text fill="#e1ed5e" style="font-size:6.75px; font-family:Arial;" text-anchor="middle"><textPath startOffset="22.145653131862474" xlink:href="#id19">July</textPath></text><line stroke="#e1ed5e" stroke-width="0.3" x1="58.13341422392154" x2="55.67067388415222" y1="173.97424548756322" y2="178.32567169271397" /><path d="M 57.64086615596768 174.84453072859336 a86.0,86.0 0 0,1 -31.369924170532247,-30.572349798747897" fill="none" id="id20" stroke="none" /><text fill="#e1ed5e" style="font-size:6.75px; font-family:Arial;" text-anchor="middle"><textPath startOffset="22.145653131862474" xlink:href="#id20">August</textPath></text><line stroke="#e1ed5e" stroke-width="0.3" x1="26.387840678322732" x2="22.057713659400548" y1="142.50000000000003" y2="145.00000000000006" /><path d="M 25.521815274538298 143.00000000000003 a86.0,86.0 0 0,1 -11.493303480769221,-40.785679425670985" fill="none" id="id21" stroke="none" /><text fill="#e1ed5e" style="font-size:6.75px; font-family:Arial;" text-anchor="middle"><textPath startOffset="21.40746469413373" xlink:href="#id21">September</textPath></text><line stroke="#e1ed5e" stroke-width="0.3" x1="15.003131293944662" x2="10.003315487706104" y1="100.72959589197737" y2="100.7725132973878" /><path d="M 14.003168132696942 100.73817937305945 a86.0,86.0 0 0,1 10.791469493833604,-42.45332614584628" fill="none" id="id22" stroke="none" /><text fill="#e1ed5e" style="font-size:6.75px; font-family:Arial;" text-anchor="middle"><textPath startOffset="22.145653131862435" xlink:href="#id22">October</textPath></text><line stroke="#e1ed5e" stroke-width="0.3" x1="26.387840678322718" x2="22.05771365940052" y1="57.49999999999999" y2="54.99999999999999" /><path d="M 25.521815274538284 56.99999999999999 a86.0,86.0 0 0,1 29.574782752854787,-30.34633250058573" fill="none" id="id23" stroke="none" /><text fill="#e1ed5e" style="font-size:6.75px; font-family:Arial;" text-anchor="middle"><textPath startOffset="21.40746469413373" xlink:href="#id23">November</textPath></text><line stroke="#e1ed5e" stroke-width="0.3" x1="56.869717070023135" x2="54.33264160355391" y1="26.7553504044142" y2="22.446841604673864" /><path d="M 56.362301976729285 25.89364864446614 a86.0,86.0 0 0,1 42.16139366436587,-11.88097634709845" fill="none" id="id24" stroke="none" /><text fill="#e1ed5e" style="font-size:6.75px; font-family:Arial;" text-anchor="middle"><textPath startOffset="22.145653131862474" xlink:href="#id24">December</textPath></text></svg>