<?xml version="1.0" encoding="utf-8" ?>
<svg baseProfile="full" height="200mm" version="1.1" viewBox="0,0,200,200" width="200mm" xmlns="http://www.w3.org/2000/svg" xmlns:ev="http://www.w3.org/2001/xml-events" xmlns:xlink="http://www.w3.org/1999/xlink"><defs /><rect fill="#1a1a1a" height="200" width="200" x="0" y="0" /><text alignment-baseline="middle" fill="#e1ed5e" style="dominant-baseline: central; font-size:9.0px; font-family:Arial;" text-anchor="middle" x="100.0" y="100.0">2024</text><line stroke="#e1ed5e" stroke-width="0.3" x1="100.0" x2="100.0" y1="15.0" y2="10.0" /><path d="M 100.0 14.0 a86.0,86.0 0 0,1 42.35913384403234,11.155469271406648" fill="none" id="id13" stroke="none" /><text fill="#e1ed5e" style="font-size:6.75px; font-family:Arial;" text-anchor="middle"><textPath startOffset="22.145653131862478" xlink:href="#id13">January</textPath></text><path d="M 100.36049292484886 79.00309439819443 l 0.5454319986860332 -31.76867949188312 a52.77336136959994,52.77336136959994 0 0,0 0.9056579433017754,0.023326536029563694 l -1.09070325605855 31.75463523850351" fill="#fff917" stroke="none" /><path d="M 101.80034050326958 79.07731436759882 l 2.698224890631745 -31.357463240804893 a52.47333662735578,52.47333662735578 0 0,0 0.8967954012477706,0.08492745689282702 l -3.2361198552645285 31.306524028406884" fill="#fff417" stroke="none" /><path d="M 102.51750503828377 79.15144685158666 l 5.335624619125958 -44.18662594918362 a65.50760387674549,65.50760387674549 0 0,0 1.1152581533680603,0.1443924961995825 l -6.0933605943848095 44.08852185678364" fill="#41ff2d" stroke="none" /><path d="M 104.9986988182912 79.60360301121754 l 8.066809167542225 -32.915334208950554 a54.88941776178006,54.88941776178006 0 0,0 0.9132415249479033,0.23214242443855412 l -8.630655985715523 32.77200655267673" fill="#e2ff1b" stroke="none" /><path d="M 108.4095320186766 80.7573450057729 l 12.68629920472904 -29.02873527420796 a52.67979891242926,52.67979891242926 0 0,0 0.8255340839209974,0.3692508953682292 l -13.18274669150567 28.80668062792988" fill="#fff717" stroke="none" /><path d="M 109.71004243097381 81.37971332152246 l 15.851407654723465 -30.39716426437522 a55.28198827302226,55.28198827302226 0 0,0 0.8376831882872353,0.4460191150697313 l -16.37087965879726 30.120574681582916" fill="#dbff1b" stroke="none" /><line stroke="#e1ed5e" stroke-width="0.3" x1="143.13028292997686" x2="145.6673583964461" y1="26.7553504044142" y2="22.446841604673864" /><path d="M 143.63769802327073 25.89364864446614 a86.0,86.0 0 0,1 29.32050498858742,28.57503671076993" fill="none" id="id14" stroke="none" /><text fill="#e1ed5e" style="font-size:6.75px; font-family:Arial;" text-anchor="middle"><textPath startOffset="20.669276256404974" xlink:href="#id14">February</textPath></text><path d="M 115.41159269507618 85.73525988315684 l 20.273087819269655 -18.764467425888633 a48.62432492396973,48.62432492396973 0 0,0 0.5617320486460312,0.6174419224332046 l -20.59221756875756 18.413687927897755" fill="#ffb010" stroke="none" /><line stroke="#e1ed5e" stroke-width="0.3" x1="172.87174338648825" x2="177.1583165268699" y1="56.24261187166439" y2="53.66864786411523" /><path d="M 173.72905801456457 55.72781907015455 a86.0,86.0 0 0,1 12.242430191666344,42.057860355516425" fill="none" id="id15" stroke="none" /><text fill="#e1ed5e" style="font-size:6.75px; font-family:Arial;" text-anchor="middle"><textPath startOffset="22.145653131862474" xlink:href="#id15">March</textPath></text><path d="M 118.8641267826498 90.77261029715802 l 16.558243048994054 -8.099466419403504 a39.433034724336764,39.433034724336764 0 0,0 0.29221895831875455,0.6106252332374744 l -16.69484126527272 7.814028684100926" fill="#ff0000" stroke="none" /><path d="M 119.0197475246899 91.09779779509293 l 19.71348145494043 -9.226904712943957 a42.76596245646003,42.76596245646003 0 0,0 0.3055027973283158,0.6675787466390841 l -19.868968717123792 8.887136984090189" fill="#ff4206" stroke="none" /><path d="M 120.7213421655516 96.59031103205396 l 45.19884168984305 -7.437452199887217 a66.80666965987706,66.80666965987706 0 0,0 0.17649211180675284,1.1332059646976396 l -45.319855293788066 6.660458053258137" fill="#30ff2f" stroke="none" /><path d="M 120.93736805541906 98.37931529534042 l 24.331506031428265 -1.883412450031498 a45.404291184428274,45.404291184428274 0 0,0 0.05348201476241264,0.7776167569567155 l -24.360252007355744 1.4654522689204483" fill="#ff750a" stroke="none" /><line stroke="#e1ed5e" stroke-width="0.3" x1="184.99686870605535" x2="189.99668451229388" y1="99.2704041080226" y2="99.22748670261217" /><path d="M 185.99683186730306 99.26182062694052 a86.0,86.0 0 0,1 -10.086455211305974,41.156179273409016" fill="none" id="id16" stroke="none" /><text fill="#e1ed5e" style="font-size:6.75px; font-family:Arial;" text-anchor="middle"><textPath startOffset="21.40746469413373" xlink:href="#id16">April</textPath></text><path d="M 120.98066250479742 100.90099992219065 l 18.92237836868932 0.8126083451346007 a39.93981878082322,39.93981878082322 0 0,0 -0.03529616923640983,0.6847362537389597 l -18.905640609996336 -1.1373163922502911" fill="#ff0a01" stroke="none" /><path d="M 120.96210409425399 101.26102812881392 l 33.93457962682604 2.0414200433549605 a54.995927553793976,54.995927553793976 0 0,0 -0.06478006665399333,0.9418879518787302 l -33.894535599006986 -2.6236514193880343" fill="#e0ff1b" stroke="none" /><path d="M 120.82617615685814 102.69636545807757 l 26.704915494897882 3.457485961848608 a47.92780571762239,47.92780571762239 0 0,0 -0.11264285817339112,0.8150276087656081 l -26.64162812016928 -3.9154018788143015" fill="#ffa40f" stroke="none" /><path d="M 120.7213421655516 103.40968896794604 l 20.617946988209066 3.3926753308608006 a41.895214378159196,41.895214378159196 0 0,0 -0.1228630677943287,0.7086415254479858 l -20.556669102922502 -3.7461098892293747" fill="#ff3104" stroke="none" /><path d="M 120.51834098615036 104.47187691870673 l 47.140258759802144 10.273999990160648 a69.24685556322737,69.24685556322737 0 0,0 -0.2631022354871804,1.1592769951768915 l -46.9569456627573 -11.081711319276558" fill="#34ff57" stroke="none" /><path d="M 120.35273937422433 105.17358676015961 l 18.11932444091403 4.605861417813291 a39.69555769682214,39.69555769682214 0 0,0 -0.1735461791376679,0.6589831096622106 l -18.037588780971635 -4.916225031848304" fill="#ff0500" stroke="none" /><path d="M 119.71291397450082 107.23885506374661 l 22.33254855732918 8.20082116828103 a44.79067449442306,44.79067449442306 0 0,0 -0.27123806890217883,0.7194912027841597 l -22.18847980461256 -8.582980651259348" fill="#ff6909" stroke="none" /><path d="M 119.58574465831526 107.57618678355244 l 28.950777296935097 11.198782591985292 a52.04126668870466,52.04126668870466 0 0,0 -0.32944928333512796,0.8304274062048839 l -28.754269338633843 -11.69411101540374" fill="#ffec16" stroke="none" /><path d="M 119.31412917781788 108.2440532568976 l 32.89777421032315 14.042103587811782 a56.76931955131715,56.76931955131715 0 0,0 -0.39026506115057286,0.8930028343245611 l -32.65187526715562 -14.604768491912187" fill="#c3ff1e" stroke="none" /><path d="M 119.0197475246899 108.90220220490707 l 57.05924257406971 26.70660661472122 a84.0,84.0 0 0,0 -0.6224829681603521,1.300749991739586 l -56.592380347949444 -27.682169108525912" fill="#4dd2ff" stroke="none" /><line stroke="#e1ed5e" stroke-width="0.3" x1="174.33088141563837" x2="178.70328620479359" y1="141.23008692659167" y2="143.65538615756765" /><path d="M 175.20536237346943 141.71514677278685 a86.0,86.0 0 0,1 -30.301960400862466,31.631185727798858" fill="none" id="id17" stroke="none" /><text fill="#e1ed5e" style="font-size:6.75px; font-family:Arial;" text-anchor="middle"><textPath startOffset="22.145653131862474" xlink:href="#id17">May</textPath></text><line stroke="#e1ed5e" stroke-width="0.3" x1="143.1302829299769" x2="145.66735839644613" y1="173.24464959558577" y2="177.55315839532614" /><path d="M 143.63769802327073 174.10635135553383 a86.0,86.0 0 0,1 -40.68552437913181,11.842963189579606" fill="none" id="id18" stroke="none" /><text fill="#e1ed5e" style="font-size:6.75px; font-family:Arial;" text-anchor="middle"><textPath startOffset="21.407464694133747" xlink:href="#id18">June</textPath></text><line stroke="#e1ed5e" stroke-width="0.3" x1="101.45913802915013" x2="101.54496967792366" y1="184.9874750549273" y2="189.98673829345242" /><path d="M 101.47630435890484 185.9873277026323 a86.0,86.0 0 0,1 -42.54439059252881,-10.42667462771756" fill="none" id="id19" stroke="none" /><text fill="#e1ed5e" style="font-size:6.75px; font-family:Arial;" text-anchor="middle"><textPath startOffset="22.145653131862474" xlink:href="#id19">July</textPath></text><line stroke="#e1ed5e" stroke-width="0.3" x1="58.13341422392154" x2="55.67067388415222" y1="173.97424548756322" y2="178.32567169271397" /><path d="M 57.64086615596768 174.84453072859336 a86.0,86.0 0 0,1 -31.369924170532247,-30.572349798747897" fill="none" id="id20" stroke="none" /><text fill="#e1ed5e" style="font-size:6.75px; font-family:Arial;" text-anchor="middle"><textPath startOffset="22.145653131862474" xlink:href="#id20">August</textPath></text><line stroke="#e1ed5e" stroke-width="0.3" x1="26.387840678322732" x2="22.057713659400548" y1="142.50000000000003" y2="145.00000000000006" /><path d="M 25.521815274538298 143.00000000000003 a86.0,86.0 0 0,1 -11.493303480769221,-40.785679425670985" fill="none" id="id21" stroke="none" /><text fill="#e1ed5e" style="font-size:6.75px; font-family:Arial;" text-anchor="middle"><textPath startOffset="21.40746469413373" xlink:href="#id21">September</textPath></text><line stroke="#e1ed5e" stroke-width="0.3" x1="15.003131293944662" x2="10.003315487706104" y1="100.72959589197737" y2="100.7725132973878" /><path d="M 14.003168132696942 100.73817937305945 a86.0,86.0 0 0,1 10.791469493833604,-42.45332614584628" fill="none" id="id22" stroke="none" /><text fill="#e1ed5e" style="font-size:6.75px; font-family:Arial;" text-anchor="middle"><textPath startOffset="22.145653131862435" xlink:href="#id22">October</textPath></text><line stroke="#e1ed5e" stroke-width="0.3" x1="26.387840678322718" x2="22.05771365940052" y1="57.49999999999999" y2="54.99999999999999" /><path d="M 25.521815274538284 56.99999999999999 a86.0,86.0 0 0,1 29.574782752854787,-30.34633250058573" fill="none" id="id23" stroke="none" /><text fill="#e1ed5e" style="font-size:6.75px; font-family:Arial;" text-anchor="middle"><textPath startOffset="21.40746469413373" xlink:href="#id23">November</textPath></text><line stroke="#e1ed5e" stroke-width="0.3" x1="56.869717070023135" x2="54.33264160355391" y1="26.7553504044142" y2="22.446841604673864" /><path d="M 56.362301976729285 25.89364864446614 a86.0,86.0 0 0,1 42.16139366436587,-11.88097634709845" fill="none" id="id24" stroke="none" /><text fill="#e1ed5e" style="font-size:6.75px; font-family:Arial;" text-anchor="middle"><textPath startOffset="22.145653131862474" xlink:href="#id24">December</textPath></text></svg>