<?xml version="1.0" encoding="utf-8" ?>
<svg baseProfile="full" height="200mm" version="1.1" viewBox="0,0,200,200" width="200mm" xmlns="http://www.w3.org/2000/svg" xmlns:ev="http://www.w3.org/2001/xml-events" xmlns:xlink="http://www.w3.org/1999/xlink"><defs /><rect fill="#1a1a1a" height="200" width="200" x="0" y="0" /><text alignment-baseline="middle" fill="#e1ed5e" style="dominant-baseline: central; font-size:9.0px; font-family:Arial;" text-anchor="middle" x="100.0" y="100.0">2024</text><line stroke="#e1ed5e" stroke-width="0.3" x1="100.0" x2="100.0" y1="15.0" y2="10.0" /><path d="M 100.0 14.0 a86.0,86.0 0 0,1 42.35913384403234,11.155469271406648" fill="none" id="id13" stroke="none" /><text fill="#e1ed5e" style="font-size:6.75px; font-family:Arial;" text-anchor="middle"><textPath startOffset="22.145653131862478" xlink:href="#id13">January</textPath></text><path d="M 100.36049292484886 79.00309439819443 l 0.7122166930068322 -41.48305178905954 a62.48916531278489,62.48916531278489 0 0,0 1.0723934854076254,0.02762105214252508 l -1.4242234924851989 41.464713019566965" fill="#9bff22" stroke="none" /><path d="M 101.80034050326958 79.07731436759882 l 3.523300453996031 -40.9460919495944 a62.0973976309178,62.0973976309178 0 0,0 1.0612753867805171,0.10050388253197431 l -4.225675404161561 40.87957631155724" fill="#a1ff22" stroke="none" /><path d="M 102.51750503828377 79.15144685158666 l 6.967176349232107 -57.698214781074405 a79.11734280921911,79.11734280921911 0 0,0 1.3469621298745202,0.17439121483355946 l -7.9566163009974185 57.57011197004045" fill="#43ffe2" stroke="none" /><path d="M 104.9986988182912 79.60360301121754 l 10.53351501610615 -42.980335836526194 a65.25227911887829,65.25227911887829 0 0,0 1.0856571871007237,0.27596981153159905 l -11.269777496432269 42.79318079315933" fill="#6bff28" stroke="none" /><path d="M 108.4095320186766 80.7573450057729 l 16.56557387145224 -37.90527488114641 a62.36699289899872,62.36699289899872 0 0,0 0.9773400698694512,0.43715178198878424 l -17.213827344177325 37.61531934824777" fill="#9dff22" stroke="none" /><path d="M 109.71004243097381 81.37971332152246 l 20.6985236776491 -39.69214835453904 a65.76489163879364,65.76489163879364 0 0,0 0.9965297165737673,0.5305959443160222 l -21.37684221000943 39.33098194250045" fill="#63ff29" stroke="none" /><line stroke="#e1ed5e" stroke-width="0.3" x1="143.13028292997686" x2="145.6673583964461" y1="26.7553504044142" y2="22.446841604673864" /><path d="M 143.63769802327073 25.89364864446614 a86.0,86.0 0 0,1 29.32050498858742,28.57503671076993" fill="none" id="id14" stroke="none" /><text fill="#e1ed5e" style="font-size:6.75px; font-family:Arial;" text-anchor="middle"><textPath startOffset="20.669276256404974" xlink:href="#id14">February</textPath></text><path d="M 115.41159269507618 85.73525988315684 l 26.472285451643888 -24.502352205767362 a57.0714175026265,57.0714175026265 0 0,0 0.6593170048738239,0.724704883695748 l -26.88900015735959 24.044309746513942" fill="#feff18" stroke="none" /><line stroke="#e1ed5e" stroke-width="0.3" x1="172.87174338648825" x2="177.1583165268699" y1="56.24261187166439" y2="53.66864786411523" /><path d="M 173.72905801456457 55.72781907015455 a86.0,86.0 0 0,1 12.242430191666344,42.057860355516425" fill="none" id="id15" stroke="none" /><text fill="#e1ed5e" style="font-size:6.75px; font-family:Arial;" text-anchor="middle"><textPath startOffset="22.145653131862474" xlink:href="#id15">March</textPath></text><path d="M 118.8641267826498 90.77261029715802 l 21.621498435676383 -10.576158351992863 a45.069572494965186,45.069572494965186 0 0,0 0.333988586433144,0.6979076910777695 l -21.799866280069438 10.20343815884999" fill="#ff0000" stroke="none" /><path d="M 119.0197475246899 91.09779779509293 l 25.74156009055711 -12.04834988994638 a49.421658131895356,49.421658131895356 0 0,0 0.35304840440033247,0.7714744787073593 l -25.944592959812493 11.604686429024335" fill="#ff6209" stroke="none" /><path d="M 120.7213421655516 96.59031103205396 l 59.01995048627441 -9.711710392791273 a80.8136428764854,80.8136428764854 0 0,0 0.21349620579326306,1.370798793036957 l -59.17796818420594 8.697123417822876" fill="#47fffd" stroke="none" /><path d="M 120.93736805541906 98.37931529534042 l 31.77170536992072 -2.4593309339400853 a52.86674710031891,52.86674710031891 0 0,0 0.062272090921434216,0.9054225351523564 l -31.809241422007222 1.9135649746333947" fill="#ffac0f" stroke="none" /><line stroke="#e1ed5e" stroke-width="0.3" x1="184.99686870605535" x2="189.99668451229388" y1="99.2704041080226" y2="99.22748670261217" /><path d="M 185.99683186730306 99.26182062694052 a86.0,86.0 0 0,1 -10.086455211305974,41.156179273409016" fill="none" id="id16" stroke="none" /><text fill="#e1ed5e" style="font-size:6.75px; font-family:Arial;" text-anchor="middle"><textPath startOffset="21.40746469413373" xlink:href="#id16">April</textPath></text><path d="M 120.98066250479742 100.90099992219065 l 24.70854987979829 1.0610914461853338 a45.731323301021476,45.731323301021476 0 0,0 -0.04041431773878861,0.7840269673607473 l -24.686693972602928 -1.4850902069228116" fill="#ff0f01" stroke="none" /><path d="M 120.96210409425399 101.26102812881392 l 44.31125078583321 2.6656548127332393 a65.39135796284737,65.39135796284737 0 0,0 -0.07702491285895512,1.1199253283245376 l -44.25896191180919 -3.4259235652121203" fill="#69ff28" stroke="none" /><path d="M 120.82617615685814 102.69636545807757 l 34.8708668479705 4.5147318525454505 a56.161913463707805,56.161913463707805 0 0,0 -0.13199516143741655,0.9550512348450055 l -34.788227169977866 -5.1126713955905405" fill="#ffee16" stroke="none" /><path d="M 120.7213421655516 103.40968896794604 l 26.922597236516804 4.430103130019045 a48.28464871868991,48.28464871868991 0 0,0 -0.1416009001744701,0.8167163632314599 l -26.8425815188501 -4.891612526171093" fill="#ff4906" stroke="none" /><path d="M 120.51834098615036 104.47187691870673 l 61.555022958451104 13.415630756120176 a84.0,84.0 0 0,0 -0.3191565537693437,1.4062626642439322 l -61.315655543124095 -14.470327754303124" fill="#4dd2ff" stroke="none" /><line stroke="#e1ed5e" stroke-width="0.3" x1="174.33088141563837" x2="178.70328620479359" y1="141.23008692659167" y2="143.65538615756765" /><path d="M 175.20536237346943 141.71514677278685 a86.0,86.0 0 0,1 -30.301960400862466,31.631185727798858" fill="none" id="id17" stroke="none" /><text fill="#e1ed5e" style="font-size:6.75px; font-family:Arial;" text-anchor="middle"><textPath startOffset="22.145653131862474" xlink:href="#id17">May</textPath></text><line stroke="#e1ed5e" stroke-width="0.3" x1="143.1302829299769" x2="145.66735839644613" y1="173.24464959558577" y2="177.55315839532614" /><path d="M 143.63769802327073 174.10635135553383 a86.0,86.0 0 0,1 -40.68552437913181,11.842963189579606" fill="none" id="id18" stroke="none" /><text fill="#e1ed5e" style="font-size:6.75px; font-family:Arial;" text-anchor="middle"><textPath startOffset="21.407464694133747" xlink:href="#id18">June</textPath></text><line stroke="#e1ed5e" stroke-width="0.3" x1="101.45913802915013" x2="101.54496967792366" y1="184.9874750549273" y2="189.98673829345242" /><path d="M 101.47630435890484 185.9873277026323 a86.0,86.0 0 0,1 -42.54439059252881,-10.42667462771756" fill="none" id="id19" stroke="none" /><text fill="#e1ed5e" style="font-size:6.75px; font-family:Arial;" text-anchor="middle"><textPath startOffset="22.145653131862474" xlink:href="#id19">July</textPath></text><line stroke="#e1ed5e" stroke-width="0.3" x1="58.13341422392154" x2="55.67067388415222" y1="173.97424548756322" y2="178.32567169271397" /><path d="M 57.64086615596768 174.84453072859336 a86.0,86.0 0 0,1 -31.369924170532247,-30.572349798747897" fill="none" id="id20" stroke="none" /><text fill="#e1ed5e" style="font-size:6.75px; font-family:Arial;" text-anchor="middle"><textPath startOffset="22.145653131862474" xlink:href="#id20">August</textPath></text><line stroke="#e1ed5e" stroke-width="0.3" x1="26.387840678322732" x2="22.057713659400548" y1="142.50000000000003" y2="145.00000000000006" /><path d="M 25.521815274538298 143.00000000000003 a86.0,86.0 0 0,1 -11.493303480769221,-40.785679425670985" fill="none" id="id21" stroke="none" /><text fill="#e1ed5e" style="font-size:6.75px; font-family:Arial;" text-anchor="middle"><textPath startOffset="21.40746469413373" xlink:href="#id21">September</textPath></text><line stroke="#e1ed5e" stroke-width="0.3" x1="15.003131293944662" x2="10.003315487706104" y1="100.72959589197737" y2="100.7725132973878" /><path d="M 14.003168132696942 100.73817937305945 a86.0,86.0 0 0,1 10.791469493833604,-42.45332614584628" fill="none" id="id22" stroke="none" /><text fill="#e1ed5e" style="font-size:6.75px; font-family:Arial;" text-anchor="middle"><textPath startOffset="22.145653131862435" xlink:href="#id22">October</textPath></text><line stroke="#e1ed5e" stroke-width="0.3" x1="26.387840678322718" x2="22.05771365940052" y1="57.49999999999999" y2="54.99999999999999" /><path d="M 25.521815274538284 56.99999999999999 a86.0,86.0 0 0,1 29.574782752854787,-30.34633250058573" fill="none" id="id23" stroke="none" /><text fill="#e1ed5e" style="font-size:6.75px; font-family:Arial;" text-anchor="middle"><textPath startOffset="21.40746469413373" xlink:href="#id23">November</textPath></text><line stroke="#e1ed5e" stroke-width="0.3" x1="56.869717070023135" x2="54.33264160355391" y1="26.7553504044142" y2="22.446841604673864" /><path d="M 56.362301976729285 25.89364864446614 a86.0,86.0 0 0,1 42.16139366436587,-11.88097634709845" fill="none" id="id24" stroke="none" /><text fill="#e1ed5e" style="font-size:6.75px; font-family:Arial;" text-anchor="middle"><textPath startOffset="22.145653131862474" xlink:href="#id24">December</textPath></text></svg>