<?xml version="1.0" encoding="utf-8" ?>
<svg baseProfile="full" height="200mm" version="1.1" viewBox="0,0,200,200" width="200mm" xmlns="http://www.w3.org/2000/svg" xmlns:ev="http://www.w3.org/2001/xml-events" xmlns:xlink="http://www.w3.org/1999/xlink"><defs /><rect fill="#1a1a1a" height="200" width="200" x="0" y="0" /><text alignment-baseline="middle" fill="#e1ed5e" style="dominant-baseline: central; font-size:9.0px; font-family:Arial;" text-anchor="middle" x="100.0" y="100.0">2024</text><line stroke="#e1ed5e" stroke-width="0.3" x1="100.0" x2="100.0" y1="15.0" y2="10.0" /><path d="M 100.0 14.0 a86.0,86.0 0 0,1 42.35913384403234,11.155469271406648" fill="none" id="id13" stroke="none" /><text fill="#e1ed5e" style="font-size:6.75px; font-family:Arial;" text-anchor="middle"><textPath startOffset="22.145653131862478" xlink:href="#id13">January</textPath></text><path d="M 100.36049292484886 79.00309439819443 l 0.503378127768077 -29.319252340920137 a50.32357323673338,50.32357323673338 0 0,0 0.8636164658526038,0.022243696701860233 l -1.006607907691422 29.306290926868233" fill="#ceff1d" stroke="none" /><path d="M 101.80034050326958 79.07731436759882 l 2.490186488903208 -28.939741664842774 a50.046680987289285,50.046680987289285 0 0,0 0.8553226503556712,0.08099994426428869 l -2.9866087026438923 28.8927299650733" fill="#d2ff1c" stroke="none" /><path d="M 102.51750503828377 79.15144685158666 l 4.924237554304052 -40.77975090620209 a62.07598080950847,62.07598080950847 0 0,0 1.0568352317752803,0.13682847933175873 l -5.623550607970124 40.68921083066993" fill="#3dff2e" stroke="none" /><path d="M 104.9986988182912 79.60360301121754 l 7.444842447091555 -30.377497742848043 a52.27647755388631,52.27647755388631 0 0,0 0.8697678355309217,0.2210915825912974 l -7.965215575847871 30.245220928421478" fill="#b5ff20" stroke="none" /><path d="M 108.4095320186766 80.7573450057729 l 11.708160792484277 -26.790563166458607 a50.237224627496275,50.237224627496275 0 0,0 0.787257014411429,0.35213004904126805 l -12.166331209751338 26.585629366507487" fill="#d0ff1d" stroke="none" /><path d="M 109.71004243097381 81.37971332152246 l 14.629233207706166 -28.05348361247826 a52.63878011303595,52.63878011303595 0 0,0 0.79763088358667,0.42469351877171424 l -15.108652907079396 27.798219625983972" fill="#b0ff20" stroke="none" /><line stroke="#e1ed5e" stroke-width="0.3" x1="143.13028292997686" x2="145.6673583964461" y1="26.7553504044142" y2="22.446841604673864" /><path d="M 143.63769802327073 25.89364864446614 a86.0,86.0 0 0,1 29.32050498858742,28.57503671076993" fill="none" id="id14" stroke="none" /><text fill="#e1ed5e" style="font-size:6.75px; font-family:Arial;" text-anchor="middle"><textPath startOffset="20.669276256404974" xlink:href="#id14">February</textPath></text><path d="M 115.41159269507618 85.73525988315684 l 18.70999320745038 -17.317690388836294 a46.49443559340807,46.49443559340807 0 0,0 0.5371265225247639,0.5903961389721846 l -19.00451743081702 16.993956674306435" fill="#fffb17" stroke="none" /><line stroke="#e1ed5e" stroke-width="0.3" x1="172.87174338648825" x2="177.1583165268699" y1="56.24261187166439" y2="53.66864786411523" /><path d="M 173.72905801456457 55.72781907015455 a86.0,86.0 0 0,1 12.242430191666344,42.057860355516425" fill="none" id="id15" stroke="none" /><text fill="#e1ed5e" style="font-size:6.75px; font-family:Arial;" text-anchor="middle"><textPath startOffset="22.145653131862474" xlink:href="#id15">March</textPath></text><path d="M 118.8641267826498 90.77261029715802 l 15.281570214455474 -7.474981761139104 a38.0118117950057,38.0118117950057 0 0,0 0.2816869694203313,0.5886174271233376 l -15.407636441835718 7.211551831950663" fill="#ff7e0b" stroke="none" /><path d="M 119.0197475246899 91.09779779509293 l 18.193533585276114 -8.515492363273976 a41.0877642983869,41.0877642983869 0 0,0 0.29351442614914397,0.6413819920560653 l -18.33703247628031 8.201921389003227" fill="#ffad10" stroke="none" /><path d="M 120.7213421655516 96.59031103205396 l 41.713922839014984 -6.864010129150611 a63.274886087042006,63.274886087042006 0 0,0 0.1671617269157302,1.0732982005307707 l -41.82560605806898 6.146923746688398" fill="#30ff2f" stroke="none" /><path d="M 120.93736805541906 98.37931529534042 l 22.455499459848003 -1.7381976766964105 a43.52267273559039,43.52267273559039 0 0,0 0.05126564395179445,0.7453912117968552 l -22.482029064964863 1.3524630407452212" fill="#ffd113" stroke="none" /><line stroke="#e1ed5e" stroke-width="0.3" x1="184.99686870605535" x2="189.99668451229388" y1="99.2704041080226" y2="99.22748670261217" /><path d="M 185.99683186730306 99.26182062694052 a86.0,86.0 0 0,1 -10.086455211305974,41.156179273409016" fill="none" id="id16" stroke="none" /><text fill="#e1ed5e" style="font-size:6.75px; font-family:Arial;" text-anchor="middle"><textPath startOffset="21.40746469413373" xlink:href="#id16">April</textPath></text><path d="M 120.98066250479742 100.90099992219065 l 17.463426089955032 0.7499546568004559 a38.47952181229735,38.47952181229735 0 0,0 -0.03400565539558957,0.65970062999059 l -17.44797884510287 -1.0496270801677765" fill="#ff850c" stroke="none" /><path d="M 120.96210409425399 101.26102812881392 l 31.31815735105282 1.8840225763941056 a52.37477523319755,52.37477523319755 0 0,0 -0.061692594006633794,0.8969967771932251 l -31.281200795881123 -2.4213627777416744" fill="#b3ff20" stroke="none" /><path d="M 120.82617615685814 102.69636545807757 l 24.64591442454846 3.190907050654357 a45.85161937637227,45.85161937637227 0 0,0 -0.10776327814511165,0.7797213984410506 l -24.58750662984814 -3.6135167572954923" fill="#fff216" stroke="none" /><path d="M 120.7213421655516 103.40968896794604 l 19.028263061845742 3.131093445723397 a40.28415259524398,40.28415259524398 0 0,0 -0.11813842332137062,0.6813910316533732 l -18.97170982103214 -3.457277510297358" fill="#ffa00e" stroke="none" /><path d="M 120.51834098615036 104.47187691870673 l 43.505652866309426 9.481854552345943 a65.52692889786653,65.52692889786653 0 0,0 -0.2489684381682369,1.0970008763290058 l -43.33647356658352 -10.227289762613966" fill="#33ff4e" stroke="none" /><path d="M 120.35273937422433 105.17358676015961 l 16.722289186300397 4.2507405191543715 a38.254093734283465,38.254093734283465 0 0,0 -0.1672442003375752,0.6350534696819718 l -16.64685550515809 -4.537174493209147" fill="#ff810b" stroke="none" /><path d="M 119.71291397450082 107.23885506374661 l 20.610665505800473 7.568521861194257 a42.95636708919235,42.95636708919235 0 0,0 -0.26013008707373614,0.6900259612765851 l -20.477704734912297 -7.921216102665001" fill="#ffc812" stroke="none" /><path d="M 119.58574465831526 107.57618678355244 l 26.71861590128396 10.33533461185918 a49.647924483624266,49.647924483624266 0 0,0 -0.3142981364778477,0.7922366186628702 l -26.537259089839992 -10.792472247735615" fill="#d7ff1c" stroke="none" /><path d="M 119.31412917781788 108.2440532568976 l 30.361291654364116 12.959430013248864 a54.011435248859684,54.011435248859684 0 0,0 -0.3713057730271379,0.8496202727878235 l -30.134351999320014 -13.478712355812531" fill="#9eff22" stroke="none" /><path d="M 119.0197475246899 108.90220220490707 l 52.65986368235284 24.64747515573504 a79.14257712379595,79.14257712379595 0 0,0 -0.5864869799509533,1.2255322207146087 l -52.22899744444197 -25.54781987851475" fill="#46fff7" stroke="none" /><line stroke="#e1ed5e" stroke-width="0.3" x1="174.33088141563837" x2="178.70328620479359" y1="141.23008692659167" y2="143.65538615756765" /><path d="M 175.20536237346943 141.71514677278685 a86.0,86.0 0 0,1 -30.301960400862466,31.631185727798858" fill="none" id="id17" stroke="none" /><text fill="#e1ed5e" style="font-size:6.75px; font-family:Arial;" text-anchor="middle"><textPath startOffset="22.145653131862474" xlink:href="#id17">May</textPath></text><path d="M 115.41159269507618 114.26474011684316 l 15.204083291538538 14.072672510864228 a41.71724548133933,41.71724548133933 0 0,0 -0.49096065968120883,0.5213832068652069 l -14.96026679812107 -14.331597177673931" fill="#ffb610" stroke="none" /><path d="M 114.65682725009322 115.03919595460226 l 28.091318133371832 28.82416711489616 a61.24866164654132,61.24866164654132 0 0,0 -0.7592719919295573,0.7273653928412027 l -27.592373655576964 -29.302144638042943" fill="#47ff2c" stroke="none" /><path d="M 113.86319453409587 115.77377054828091 l 10.910435568880665 12.414072876353117 a37.527153707825875,37.527153707825875 0 0,0 -0.48753226655182563,0.4211187601498854 l -10.695723822565984 -12.599535768967721" fill="#ff760a" stroke="none" /><path d="M 112.16784306229584 117.11559508785304 l 10.829138913473066 15.232540052020223 a39.689583356610626,39.689583356610626 0 0,0 -0.5586874128324952,0.39000720400815947 l -10.566056409466812 -15.416192071833505" fill="#ff970e" stroke="none" /><line stroke="#e1ed5e" stroke-width="0.3" x1="143.1302829299769" x2="145.66735839644613" y1="173.24464959558577" y2="177.55315839532614" /><path d="M 143.63769802327073 174.10635135553383 a86.0,86.0 0 0,1 -40.68552437913181,11.842963189579606" fill="none" id="id18" stroke="none" /><text fill="#e1ed5e" style="font-size:6.75px; font-family:Arial;" text-anchor="middle"><textPath startOffset="21.407464694133747" xlink:href="#id18">June</textPath></text><path d="M 110.34350942703117 118.27599006163325 l 7.670211385126983 13.552528572059538 a36.57251339344493,36.57251339344493 0 0,0 -0.5490332095725043,0.3045394663044771 l -7.436433987398384 -13.682200953797159" fill="#ff6709" stroke="none" /><path d="M 107.74402155503746 119.51999308798841 l 5.614523317921209 14.152266439248244 a36.22529203184468,36.22529203184468 0 0,0 -0.5799975228751578,0.22435550161399365 l -5.370753532552522 -14.246561829000278" fill="#ff6209" stroke="none" /><path d="M 105.69591212413111 120.21278271476187 l 4.469589952630693 15.860997952174069 a37.4787284213172,37.4787284213172 0 0,0 -0.6207523244881702,0.1691888064022271 l -4.196656227207827 -15.935387252720439" fill="#ff750a" stroke="none" /><path d="M 104.9986988182912 120.39639698878246 l 4.146856933766729 16.920591408166747 a38.421332785733,38.421332785733 0 0,0 -0.6419433469035003,0.15149688194811503 l -3.85578143312335 -16.989284433761085" fill="#ff840c" stroke="none" /><path d="M 104.29559338865022 120.5559693870025 l 3.4973090063210175 16.735889635357882 a38.097402497823275,38.097402497823275 0 0,0 -0.6413126511962934,0.12828049124756627 l -3.209499869593765 -16.79345952326831" fill="#ff7f0b" stroke="none" /><path d="M 103.58742460773223 120.69131181640829 l 3.6213893369189636 20.887211348581808 a42.1988221052462,42.1988221052462 0 0,0 -0.7148128746427328,0.11762218650425742 l -3.2622989592231586 -20.946299533581737" fill="#ffbd11" stroke="none" /><line stroke="#e1ed5e" stroke-width="0.3" x1="101.45913802915013" x2="101.54496967792366" y1="184.9874750549273" y2="189.98673829345242" /><path d="M 101.47630435890484 185.9873277026323 a86.0,86.0 0 0,1 -42.54439059252881,-10.42667462771756" fill="none" id="id19" stroke="none" /><text fill="#e1ed5e" style="font-size:6.75px; font-family:Arial;" text-anchor="middle"><textPath startOffset="22.145653131862474" xlink:href="#id19">July</textPath></text><line stroke="#e1ed5e" stroke-width="0.3" x1="58.13341422392154" x2="55.67067388415222" y1="173.97424548756322" y2="178.32567169271397" /><path d="M 57.64086615596768 174.84453072859336 a86.0,86.0 0 0,1 -31.369924170532247,-30.572349798747897" fill="none" id="id20" stroke="none" /><text fill="#e1ed5e" style="font-size:6.75px; font-family:Arial;" text-anchor="middle"><textPath startOffset="22.145653131862474" xlink:href="#id20">August</textPath></text><line stroke="#e1ed5e" stroke-width="0.3" x1="26.387840678322732" x2="22.057713659400548" y1="142.50000000000003" y2="145.00000000000006" /><path d="M 25.521815274538298 143.00000000000003 a86.0,86.0 0 0,1 -11.493303480769221,-40.785679425670985" fill="none" id="id21" stroke="none" /><text fill="#e1ed5e" style="font-size:6.75px; font-family:Arial;" text-anchor="middle"><textPath startOffset="21.40746469413373" xlink:href="#id21">September</textPath></text><path d="M 81.63589988554817 110.18625677009913 l -21.6257598887233 11.99544446513281 a45.72982366861517,45.72982366861517 0 0,0 -0.37488580027728896,-0.6897476482425374 l 21.82849103861592 -11.622441983415685" fill="#fff016" stroke="none" /><path d="M 81.29705330413844 109.54985784667822 l -22.332198830338182 11.40297984598726 a46.07498861347199,46.07498861347199 0 0,0 -0.35363669826131644,-0.7075102883553589 l 22.524655441811237 -11.01793770146815" fill="#fff517" stroke="none" /><path d="M 81.1358732173502 109.22738970284198 l -22.251611488285572 10.884378221391751 a45.77102951215208,45.77102951215208 0 0,0 -0.3391867417438036,-0.7087698364267138 l 22.435177487989286 -10.500795882899933" fill="#fff116" stroke="none" /><path d="M 80.83023694016515 108.57439118712176 l -27.796201005959468 12.432887156562352 a51.450048824452075,51.450048824452075 0 0,0 -0.353697324705886,-0.8093286970762378 l 28.005532212682322 -11.953896389710264" fill="#bfff1e" stroke="none" /><path d="M 80.5471966667186 107.91128576633889 l -24.55620793617833 9.98679598988036 a47.5093085980815,47.5093085980815 0 0,0 -0.3007595445939168,-0.758110523052568 l 24.72402615573837 -9.563784449614227" fill="#f5ff19" stroke="none" /><path d="M 80.28708602549918 107.23885506374661 l -18.295979294126692 6.718537022522861 a40.49055150718222,40.49055150718222 0 0,0 -0.2339964974161234,-0.6545298492164837 l 18.408615961586758 -6.403472216925456" fill="#ffa40f" stroke="none" /><path d="M 80.05021161711548 106.5578916946017 l -35.067115658416505 11.527257438342607 a57.913144876189904,57.913144876189904 0 0,0 -0.3023487666063856,-0.9471032050857299 l 35.25982914080014 -10.923585199565485" fill="#6eff28" stroke="none" /><path d="M 79.64726062577567 105.17358676015961 l -24.943599750582365 6.340565515409963 a46.73685955147711,46.73685955147711 0 0,0 -0.19098121528442108,-0.7792685308599532 l 25.04876849238308 -5.911441159941911" fill="#fffe18" stroke="none" /><path d="M 79.56144815229197 104.8234425847677 l -20.345584711586582 4.801502593779429 a41.90447905149555,41.90447905149555 0 0,0 -0.15921534668541173,-0.701532194698912 l 20.42501091982966 -4.451536065141491" fill="#ffb911" stroke="none" /><path d="M 79.34024301695615 103.76489593502545 l -33.89375522129612 6.176571261711182 a55.451947340493454,55.451947340493454 0 0,0 -0.1626199189226334,-0.937948477783985 l 33.994789957710985 -5.593829751006604" fill="#8cff24" stroke="none" /><path d="M 79.2786578344484 103.40968896794605 l -30.35584470134989 4.995042693853459 a51.76406603565093,51.76406603565093 0 0,0 -0.13675205450067138,-0.8780462891990332 l 30.437118247988828 -4.473208222722976" fill="#bbff1f" stroke="none" /><path d="M 79.0935383218832 101.97986365728391 l -16.943795992533545 1.604595096891199 a38.01960481508202,38.01960481508202 0 0,0 -0.05595467863322455,-0.6502781826986855 l 16.96884429386451 -1.3134958668168515" fill="#ff7e0b" stroke="none" /><path d="M 79.06263194458094 101.62068470465958 l -21.4832722324967 1.662941140504696 a42.54753719227204,42.54753719227204 0 0,0 -0.05011702534851601,-0.7286905493922994 l 21.50865321901028 -1.2939071669580533" fill="#ffc212" stroke="none" /><path d="M 79.01933749520258 100.90099992219065 l -48.81205197902107 2.0961995373123967 a69.85704115992785,69.85704115992785 0 0,0 -0.041166797610865245,-1.198526395524211 l 48.84084346362879 -1.2579668772240657" fill="#39ff87" stroke="none" /><line stroke="#e1ed5e" stroke-width="0.3" x1="15.003131293944662" x2="10.003315487706104" y1="100.72959589197737" y2="100.7725132973878" /><path d="M 14.003168132696942 100.73817937305945 a86.0,86.0 0 0,1 10.791469493833604,-42.45332614584628" fill="none" id="id22" stroke="none" /><text fill="#e1ed5e" style="font-size:6.75px; font-family:Arial;" text-anchor="middle"><textPath startOffset="22.145653131862435" xlink:href="#id22">October</textPath></text><path d="M 79.13060592940154 97.66154086499901 l -20.233123596718837 -2.267163701269573 a41.35974758508698,41.35974758508698 0 0,0 0.08511819064067527,-0.704900722931108 l 20.191223319818494 2.6141581011241177" fill="#ffb110" stroke="none" /><path d="M 79.17382384314186 97.30363454192245 l -12.305655773902362 -1.5932135077430667 a33.408363844884285,33.408363844884285 0 0,0 0.07851837850779896,-0.568119872995921 l 12.276492878839356 1.8042216889390548" fill="#ff3405" stroke="none" /><path d="M 79.73907114497095 94.47779374421319 l -23.000188971447084 -6.26880378146522 a44.839181898143835,44.839181898143835 0 0,0 0.20878299143536233,-0.7408971817774933 l 22.88918748793714 6.662708887145727" fill="#ffe415" stroke="none" /><path d="M 80.9802524753101 91.09779779509293 l -8.378997697268344 -3.921794002717692 a30.251382091913655,30.251382091913655 0 0,0 0.22417821566104976,-0.46844625007344903 l 8.31044022364739 4.065052754856228" fill="#ff0000" stroke="none" /><path d="M 81.29705330413844 90.45014215332179 l -12.15385612880402 -6.205845539020851 a34.64656504963253,34.64656504963253 0 0,0 0.2750144205480287,-0.5273764134114204 l 12.045533639281052 6.413568195536758" fill="#ff4806" stroke="none" /><line stroke="#e1ed5e" stroke-width="0.3" x1="26.387840678322718" x2="22.05771365940052" y1="57.49999999999999" y2="54.99999999999999" /><path d="M 25.521815274538284 56.99999999999999 a86.0,86.0 0 0,1 29.574782752854787,-30.34633250058573" fill="none" id="id23" stroke="none" /><text fill="#e1ed5e" style="font-size:6.75px; font-family:Arial;" text-anchor="middle"><textPath startOffset="21.40746469413373" xlink:href="#id23">November</textPath></text><path d="M 83.64595745247003 86.82634096563983 l -49.06212764258992 -39.520977103080504 a84.0,84.0 0 0,0 0.9142127230454804,-1.1151908732060285 l 48.376468100305814 40.357370257985025" fill="#4dd2ff" stroke="none" /><line stroke="#e1ed5e" stroke-width="0.3" x1="56.869717070023135" x2="54.33264160355391" y1="26.7553504044142" y2="22.446841604673864" /><path d="M 56.362301976729285 25.89364864446614 a86.0,86.0 0 0,1 42.16139366436587,-11.88097634709845" fill="none" id="id24" stroke="none" /><text fill="#e1ed5e" style="font-size:6.75px; font-family:Arial;" text-anchor="middle"><textPath startOffset="22.145653131862474" xlink:href="#id24">December</textPath></text><path d="M 90.61103034731259 81.2157712731953 l -7.883611779184019 -15.772504580535875 a38.633015494461354,38.633015494461354 0 0,0 0.5957574337134098,-0.2914148146149449 l 7.611694096208556 15.905513145248035" fill="#ff870c" stroke="none" /></svg>